<svg xmlns="http://www.w3.org/2000/svg" width="255" height="250" viewBox="0 0 255 250">
    <g id="prefix__dropdown-box" style="fill:#fff">
        <path d="M234.8 249.534h-215c-2.62 0-5.168-.517-7.57-1.536-2.32-.984-4.407-2.39-6.202-4.182-1.794-1.791-3.204-3.874-4.19-6.19C.818 235.228.3 232.686.3 230.071V35.434c0-2.615.518-5.157 1.538-7.555.986-2.316 2.396-4.398 4.19-6.19 1.795-1.791 3.881-3.198 6.202-4.182 2.402-1.02 4.95-1.536 7.57-1.536h182.618l.148-.16 7.6-8.184 5.802-6.29c.469-.51 1.14-.803 1.844-.803.614 0 1.198.222 1.643.627l.184.184 5.793 6.28 7.602 8.186.148.16H234.8c5.224 0 10.128 2.03 13.809 5.718 1.785 1.788 3.187 3.87 4.166 6.188 1.012 2.396 1.525 4.938 1.525 7.557v194.637c0 2.615-.518 5.157-1.538 7.555-.986 2.316-2.396 4.399-4.19 6.19-1.795 1.791-3.881 3.198-6.202 4.182-2.402 1.02-4.95 1.536-7.57 1.536z" style="stroke:none" transform="translate(.2 -.034)"/>
        <path d="M217.811.034v1c-.563 0-1.1.233-1.476.642l-5.802 6.29-7.6 8.186-.297.32H19.8c-2.553 0-5.035.502-7.375 1.495-2.261.959-4.294 2.33-6.044 4.076-1.749 1.746-3.122 3.775-4.083 6.031C1.304 30.41.8 32.886.8 35.434v194.637c0 2.548.504 5.024 1.498 7.36.96 2.256 2.334 4.285 4.083 6.031 1.75 1.746 3.783 3.117 6.044 4.076 2.34.993 4.822 1.496 7.375 1.496h215c2.553 0 5.035-.503 7.375-1.496 2.261-.959 4.294-2.33 6.044-4.076 1.749-1.746 3.122-3.775 4.083-6.031.994-2.336 1.498-4.812 1.498-7.36V35.434c0-2.552-.5-5.029-1.485-7.362-.954-2.258-2.32-4.287-4.06-6.03-3.587-3.592-8.365-5.57-13.455-5.57H232.964l-.297-.32-7.602-8.188-5.786-6.273-.169-.168c-.352-.316-.812-.49-1.298-.49v-1m0 0c.713 0 1.427.252 1.988.766l.2.2 5.8 6.287 7.6 8.185h1.4c11.1 0 20 8.983 20 19.963v194.637c0 10.98-9 19.963-20 19.963h-215c-11 0-20-8.983-20-19.963V35.434c0-10.98 9-19.963 20-19.963h182.4l7.6-8.185 5.8-6.288c.586-.638 1.398-.964 2.212-.964z" style="fill:#e6e6e6;stroke:none" transform="translate(.2 -.034)"/>
    </g>
</svg>
