<?xml version="1.0" encoding="utf-8"?>
<!-- Generator: Adobe Illustrator 24.1.1, SVG Export Plug-In . SVG Version: 6.00 Build 0)  -->
<svg version="1.1" id="레이어_1" xmlns="http://www.w3.org/2000/svg" xmlns:xlink="http://www.w3.org/1999/xlink" x="0px"
	 y="0px" viewBox="0 0 112.5 20" style="enable-background:new 0 0 112.5 20;" xml:space="preserve">
<style type="text/css">
	.st0{fill:#45A4F6;}
	.st1{fill:#F5503D;}
</style>
<g>
	<g>
		<polygon class="st0" points="37.1,4 37.1,0 27.1,0 27.1,4 37.1,4 		"/>
		<polygon class="st0" points="37.1,20 37.1,16 27.1,16 27.1,20 37.1,20 		"/>
		<polygon class="st1" points="37.1,4 37.1,16 37.1,16 41.1,16 41.1,4 37.1,4 		"/>
		<polygon class="st1" points="23.1,4 23.1,16 23.1,16 27.1,16 27.1,4 23.1,4 		"/>
	</g>
	<g>
		<rect x="50" class="st0" width="6" height="4"/>
		<rect x="46" y="4" class="st1" width="4" height="16"/>
		<rect x="60" class="st0" width="6" height="4"/>
		<rect x="56" y="4" class="st1" width="4" height="16"/>
		<rect x="66" y="4" class="st1" width="4" height="16"/>
	</g>
	<g>
		<rect x="102" y="16" class="st0" width="10.5" height="4"/>
		<polygon class="st1" points="102,15 102,0 98,0 98,20 102,20 102,16 		"/>
	</g>
	<g>
		<polygon class="st0" points="88.8,20 88.8,16 78.8,16 78.8,20 88.8,20 		"/>
		<rect x="74.8" class="st1" width="4" height="16"/>
		<rect x="88.8" class="st1" width="4" height="16"/>
	</g>
	<g>
		<rect x="4" class="st0" width="13.1" height="4"/>
		<rect x="4" y="8" class="st1" width="10.6" height="4"/>
		<rect x="1.5" y="16" class="st0" width="13.1" height="4"/>
		<rect y="4" class="st1" width="4" height="4"/>
		<rect x="14.6" y="12" class="st1" width="4" height="4"/>
	</g>
</g>
</svg>
