<svg xmlns="http://www.w3.org/2000/svg" width="48" height="48" viewBox="0 0 48 48">
    <g id="prefix__Code_Club" transform="translate(-.049 -.049)">
        <path id="prefix__패스_917" d="M48.049 24.049a24 24 0 1 1-24-24 24 24 0 0 1 24 24z" data-name="패스 917" style="fill:#393"/>
        <path id="prefix__패스_918" d="M13.667 37.053c0 .357-.087.644-.442.654v.006c-.191.015.046.022-.107.022a3.4 3.4 0 0 1-2.551-.793 3.88 3.88 0 0 1-.747-2.69V29.94a3.028 3.028 0 0 0-.3-1.523 1.7 1.7 0 0 0-1.035-.717.67.67 0 0 1-.012-1.244q1.346-.358 1.346-2.116v-4.6a3.361 3.361 0 0 1 .77-2.472 3.511 3.511 0 0 1 2.528-.758h.107c.368 0 .467.3.467.668s-.1.462-.467.464v.007a2.785 2.785 0 0 0-1.781.449 2.228 2.228 0 0 0-.46 1.644v4.689a4.869 4.869 0 0 1-.208 1.459 2.221 2.221 0 0 1-1.23 1.243 2.582 2.582 0 0 1 1.115 1.037 3.771 3.771 0 0 1 .322 1.726v4.517a2.5 2.5 0 0 0 .437 1.74 2.685 2.685 0 0 0 1.8.442v.01c.357.008.444.091.444.449zm24.387-.45v-.01a2.68 2.68 0 0 0 1.8-.442 2.494 2.494 0 0 0 .438-1.74v-4.516a3.779 3.779 0 0 1 .321-1.726 2.589 2.589 0 0 1 1.115-1.034 2.225 2.225 0 0 1-1.228-1.243 4.9 4.9 0 0 1-.205-1.459v-4.688a2.212 2.212 0 0 0-.462-1.643 2.774 2.774 0 0 0-1.779-.45v-.007c-.369 0-.667-.095-.667-.462a.67.67 0 0 1 .667-.669h.107a3.513 3.513 0 0 1 2.529.758 3.368 3.368 0 0 1 .771 2.472v4.6q0 1.759 1.345 2.116a.669.669 0 0 1-.012 1.244 1.707 1.707 0 0 0-1.034.715 3.042 3.042 0 0 0-.3 1.523v4.308a3.883 3.883 0 0 1-.748 2.69 3.406 3.406 0 0 1-2.552.793c-.154 0 .083-.007-.107-.022v-.006a.656.656 0 0 1-.643-.654c0-.357.286-.439.643-.449z" data-name="패스 918" transform="translate(-1.59 -3.273)" style="fill:#b1d9ae"/>
        <path id="prefix__패스_919" d="M23.913 25.563a2.449 2.449 0 0 0 1.786-.731 2.443 2.443 0 0 0 0-3.5 2.551 2.551 0 0 0-3.565 0 2.36 2.36 0 0 0-.737 1.749 2.389 2.389 0 0 0 .737 1.758 2.44 2.44 0 0 0 1.779.724zm-1.015-3.5a1.433 1.433 0 0 1 2.032 0 1.462 1.462 0 0 1 0 2.046 1.437 1.437 0 0 1-2.452-1.019 1.409 1.409 0 0 1 .421-1.026zm13.181-.363a1.2 1.2 0 0 1 1.3.869h-2.571a1.254 1.254 0 0 1 1.271-.869zm1.738 8.818a2.226 2.226 0 0 0-1.673-.711 2.1 2.1 0 0 0-1.471.563v-1.688a.551.551 0 0 0-1.1 0v5.575a.516.516 0 0 0 1.031 0h.006v-.149a1.906 1.906 0 0 0 .763.52 2.255 2.255 0 0 0 .79.143 2.182 2.182 0 0 0 1.662-.723 2.5 2.5 0 0 0 .674-1.774 2.437 2.437 0 0 0-.68-1.756zm-.867 2.751a1.3 1.3 0 0 1-.967.4 1.322 1.322 0 0 1-.967-.386 1.3 1.3 0 0 1-.391-.963A1.416 1.416 0 0 1 35 31.3a1.4 1.4 0 0 1 1.946 0 1.434 1.434 0 0 1 0 1.966zm-5.406-2.9v3.883a.525.525 0 0 1-1.051 0v-.268c-.1.127-.173.22-.229.281a1.7 1.7 0 0 1-1.318.5 2.2 2.2 0 0 1-1.029-.241 1.569 1.569 0 0 1-.679-.648 2.224 2.224 0 0 1-.229-.876q-.02-.459-.014-.919v-1.708a.56.56 0 0 1 1.12 0 .473.473 0 0 1-.01.09v1.621c0 .321 0 .518.01.584a1.4 1.4 0 0 0 .127.6.888.888 0 0 0 .9.465q1.279 0 1.282-1.652v-1.71a.56.56 0 0 1 1.12 0zm.314-11.388a.54.54 0 0 0-.538.545v1.633a2.293 2.293 0 0 0-.773-.46 2.238 2.238 0 0 0-.682-.1 2.186 2.186 0 0 0-1.657.71 2.454 2.454 0 0 0-.668 1.757 2.516 2.516 0 0 0 .664 1.774 2.135 2.135 0 0 0 1.635.721 1.978 1.978 0 0 0 1.331-.45 1.274 1.274 0 0 0 .2-.212v.11h.006a.509.509 0 1 0 1.018 0v-5.48a.543.543 0 0 0-.539-.544zm-.883 5.082a1.348 1.348 0 0 1-1.9 0 1.342 1.342 0 0 1-.386-.971 1.378 1.378 0 0 1 .385-.993 1.261 1.261 0 0 1 .947-.4 1.285 1.285 0 0 1 .968.386 1.376 1.376 0 0 1 .373 1 1.36 1.36 0 0 1-.387.982zM25.624 34.1a.5.5 0 0 1-.5.5h-2.773a.5.5 0 1 1 0-1h.849v-4.267h-.849a.5.5 0 1 1 0-1h1.439a.5.5 0 0 1 .5.5.207.207 0 0 1 0 .023V33.6h.834a.5.5 0 0 1 .5.5zm-8.313-2.831a1.468 1.468 0 0 0 0 2.017 1.334 1.334 0 0 0 1.938 0 .687.687 0 0 1 .871 0 .517.517 0 0 1 0 .753 2.647 2.647 0 0 1-3.649 0 2.435 2.435 0 0 1 0-3.524 2.65 2.65 0 0 1 3.649 0 .518.518 0 0 1 0 .753.687.687 0 0 1-.871 0 1.334 1.334 0 0 0-1.938 0zm-.017-9.206a1.481 1.481 0 0 0 0 2.017 1.313 1.313 0 0 0 1.919 0 .673.673 0 0 1 .862 0 .522.522 0 0 1 0 .752 2.6 2.6 0 0 1-3.611 0 2.452 2.452 0 0 1 0-3.523 2.6 2.6 0 0 1 3.611 0 .521.521 0 0 1 0 .753.675.675 0 0 1-.862 0 1.312 1.312 0 0 0-1.919 0zm20.9 2.813a.543.543 0 0 0 0-.781.616.616 0 0 0-.832 0 1.529 1.529 0 0 1-.951.361h-.176a1.663 1.663 0 0 1-.958-.262 1.128 1.128 0 0 1-.482-.721h3.11a.636.636 0 0 0 .628-.644V22.772a2.458 2.458 0 0 0-.665-1.438 2.288 2.288 0 0 0-1.741-.736 2.5 2.5 0 0 0-2.491 2.5 2.367 2.367 0 0 0 .711 1.763 2.474 2.474 0 0 0 1.806.7h.247a2.685 2.685 0 0 0 1.815-.7l-.017.016z" data-name="패스 919" transform="translate(-3.115 -3.764)" style="fill:#fff"/>
    </g>
</svg>
