<svg xmlns="http://www.w3.org/2000/svg" id="prefix__f_logo_RGB-Grey_1024" width="32" height="32" viewBox="0 0 32 32">
    <path id="prefix__패스_921" d="M32 16a16 16 0 1 0-18.5 15.806V20.625H9.438V16H13.5v-3.525c0-4.009 2.387-6.225 6.044-6.225a24.607 24.607 0 0 1 3.581.313V10.5h-2.019A2.312 2.312 0 0 0 18.5 13v3h4.438l-.709 4.625H18.5v11.181A16 16 0 0 0 32 16z" data-name="패스 921" style="fill:#9b9b9b"/>
    <path id="prefix__패스_922" d="M314.791 214.375l.709-4.625h-4.437v-3a2.312 2.312 0 0 1 2.606-2.5h2.019v-3.937a24.607 24.607 0 0 0-3.581-.312c-3.656 0-6.044 2.216-6.044 6.225v3.525H302v4.625h4.063v11.181a16.227 16.227 0 0 0 5 0v-11.182z" data-name="패스 922" transform="translate(-292.563 -193.75)"/>
</svg>
