<svg xmlns="http://www.w3.org/2000/svg" id="prefix__main-contents-title" width="430" height="175" viewBox="0 0 430 175">
    <defs>
        <clipPath id="prefix__clip-path">
            <path id="prefix__사각형_233" d="M0 0H430V175H0z" data-name="사각형 233"/>
        </clipPath>
        <style>
            .prefix__cls-2{fill:#fff}
        </style>
    </defs>
    <g id="prefix__그룹_789" data-name="그룹 789">
        <g id="prefix__그룹_780" data-name="그룹 780">
            <path id="prefix__패스_859" d="M1.6 63.1a4.481 4.481 0 0 1 4.5-4.5h19.1a4.118 4.118 0 0 0 4.1-4.1v-7.1a5.121 5.121 0 0 1 5.1-5.1h1.5a5.121 5.121 0 0 1 5.1 5.1v7.1a4.118 4.118 0 0 0 4.1 4.1H65a4.481 4.481 0 0 1 4.5 4.5 4.481 4.481 0 0 1-4.5 4.5H6.1a4.546 4.546 0 0 1-4.5-4.5zm62.5-22.6a4.88 4.88 0 0 1-5.8 2.6C48 40.4 40.2 34.8 35.6 26.8l-.6-1.2-.7 1.2c-4.5 8-12.3 13.6-22.6 16.3a5.179 5.179 0 0 1-5.9-2.7l-.1-.3a4.975 4.975 0 0 1 3.1-7c14.5-4.5 19.8-14.7 19.8-23.6a4.653 4.653 0 0 1 4.6-4.6h3.3a4.653 4.653 0 0 1 4.6 4.6c0 4.4 1.6 18.2 19.9 23.7a4.958 4.958 0 0 1 3 7z" class="prefix__cls-2" data-name="패스 859"/>
        </g>
        <g id="prefix__그룹_781" data-name="그룹 781">
            <path id="prefix__패스_860" d="M74.5 63.3v-.2a4.439 4.439 0 0 1 4.4-4.4h58.8a4.439 4.439 0 0 1 4.4 4.4v.2a4.439 4.439 0 0 1-4.4 4.4H78.9a4.439 4.439 0 0 1-4.4-4.4zm5.4-20.4a4.439 4.439 0 0 1 4.4-4.4h.3a4.439 4.439 0 0 0 4.4-4.4V20.4a4.439 4.439 0 0 0-4.4-4.4h-.8a4.439 4.439 0 0 1-4.4-4.4 4.439 4.439 0 0 1 4.4-4.4h48.7a4.439 4.439 0 0 1 4.4 4.4 4.439 4.439 0 0 1-4.4 4.4h-.8a4.439 4.439 0 0 0-4.4 4.4v13.7a4.439 4.439 0 0 0 4.4 4.4h.5a4.439 4.439 0 0 1 4.4 4.4 4.439 4.439 0 0 1-4.4 4.4H84.3a4.313 4.313 0 0 1-4.4-4.4zm25.1-4.4h6.3a4.439 4.439 0 0 0 4.4-4.4V20.4a4.439 4.439 0 0 0-4.4-4.4H105a4.439 4.439 0 0 0-4.4 4.4v13.7a4.375 4.375 0 0 0 4.4 4.4z" class="prefix__cls-2" data-name="패스 860"/>
        </g>
        <g id="prefix__그룹_782" data-name="그룹 782">
            <path id="prefix__패스_861" d="M147.4 63.4a4.481 4.481 0 0 1 4.5-4.5h58.7a4.481 4.481 0 0 1 4.5 4.5 4.481 4.481 0 0 1-4.5 4.5h-58.7a4.481 4.481 0 0 1-4.5-4.5zm7.7-19.1V10.2a3.842 3.842 0 0 1 3.9-3.9h44.5a4.118 4.118 0 0 1 4.1 4.1v.6a4.118 4.118 0 0 1-4.1 4.1h-32.6A3.842 3.842 0 0 0 167 19a3.842 3.842 0 0 0 3.9 3.9h30.7a4.118 4.118 0 0 1 4.1 4.1v.4a4.118 4.118 0 0 1-4.1 4.1h-30.7a3.842 3.842 0 0 0-3.9 3.9v.3a3.842 3.842 0 0 0 3.9 3.9H204a4.118 4.118 0 0 1 4.1 4.1v.6a4.118 4.118 0 0 1-4.1 4.1h-45a4.148 4.148 0 0 1-3.9-4.1z" class="prefix__cls-2" data-name="패스 861"/>
        </g>
        <g id="prefix__그룹_783" data-name="그룹 783">
            <path id="prefix__패스_862" d="M273.8 70.9V6.2a5.121 5.121 0 0 1 5.1-5.1h.8a5.121 5.121 0 0 1 5.1 5.1v64.7a5.121 5.121 0 0 1-5.1 5.1h-.8a5.058 5.058 0 0 1-5.1-5.1zm-15.7-3.1v-5.7a4.012 4.012 0 0 0-4-4h-2.8a4.012 4.012 0 0 1-4-4v-.2a4.012 4.012 0 0 1 4-4h2.8a4.012 4.012 0 0 0 4-4V7.3a5.121 5.121 0 0 1 5.1-5.1h.5a5.121 5.121 0 0 1 5.1 5.1v60.6a5.121 5.121 0 0 1-5.1 5.1h-.5a5.208 5.208 0 0 1-5.1-5.2zm-22.9 2.5a4.481 4.481 0 0 1-4.5-4.5V46.3h-.8c-2.9.1-5.6.2-8.2.2a4 4 0 0 1-4-3.5l-.1-.9a4.022 4.022 0 0 1 4-4.5c7.2-.1 18.4-.3 27.9-1.2a4.034 4.034 0 0 1 4.4 3.6v.2a4.077 4.077 0 0 1-3.4 4.4c-2.8.4-5.6.7-8.1.9l-.7.1v20.3a4.481 4.481 0 0 1-4.5 4.5h-2zm1.1-37.3c-9.5 0-16.3-5.9-16.3-14s6.9-14 16.3-14c9.5 0 16.3 5.9 16.3 14s-6.9 14-16.3 14zm0-19.8c-3.9 0-6.3 2.2-6.3 5.8s2.4 5.8 6.3 5.8 6.3-2.2 6.3-5.8-2.4-5.8-6.3-5.8z" class="prefix__cls-2" data-name="패스 862"/>
        </g>
        <g id="prefix__그룹_784" data-name="그룹 784">
            <path id="prefix__패스_863" d="M342.9 71.3V41.8a5.121 5.121 0 0 0-5.1-5.1h-6.9l-.1.7C329.5 51.1 322 60 311.6 60c-11.6 0-19.4-10.9-19.4-27S300 6.1 311.6 6.1c10 0 17.3 8 19 21l.1.7h7a5.121 5.121 0 0 0 5.1-5.1V6.1a5.121 5.121 0 0 1 5.1-5.1h1.5a5.121 5.121 0 0 1 5.1 5.1v65.2a5.121 5.121 0 0 1-5.1 5.1h-1.5a5.037 5.037 0 0 1-5-5.1zm-31.3-54.7c-3.1 0-8.3 2.1-8.3 16.4 0 13.7 4.5 16.6 8.3 16.6S320 46.7 320 33c0-14.3-5.3-16.4-8.4-16.4z" class="prefix__cls-2" data-name="패스 863"/>
        </g>
        <g id="prefix__그룹_785" data-name="그룹 785">
            <path id="prefix__패스_864" d="M417.6 70.9V6.1a5.121 5.121 0 0 1 5.1-5.1h.8a5.121 5.121 0 0 1 5.1 5.1v64.7a5.121 5.121 0 0 1-5.1 5.1h-.8a5.037 5.037 0 0 1-5.1-5zm-15.8-3.1V41a3.585 3.585 0 0 0-3.6-3.6h-1.9v.7c-1 14.5-7 23.2-15.9 23.2-9.8 0-15.9-10.6-15.9-27.7s6.1-27.7 15.9-27.7c8.7 0 14.4 7.9 15.8 21.8l.1.7h2a3.585 3.585 0 0 0 3.6-3.6V7.2a5.121 5.121 0 0 1 5.1-5.1h.5a5.121 5.121 0 0 1 5.1 5.1v60.6a5.121 5.121 0 0 1-5.1 5.1h-.5a5.209 5.209 0 0 1-5.2-5.1zm-21.3-50.9c-3.9 0-5.6 5.2-5.6 16.7 0 11.6 1.7 16.7 5.6 16.7 4 0 5.6-5 5.6-16.7s-1.7-16.7-5.6-16.7z" class="prefix__cls-2" data-name="패스 864"/>
        </g>
        <g id="prefix__그룹_786" data-name="그룹 786">
            <path id="prefix__패스_865" d="M9.2 169.5v-11.7a4.118 4.118 0 0 1 4.1-4.1h34.3a1.9 1.9 0 0 0 1.9-1.9 1.9 1.9 0 0 0-1.9-1.9H13.1a4.012 4.012 0 0 1-4-4 4.012 4.012 0 0 1 4-4H27a2.433 2.433 0 0 0 2.4-2.4 2.433 2.433 0 0 0-2.4-2.4H5.5a4.118 4.118 0 0 1-4.1-4.1v-.5a4.118 4.118 0 0 1 4.1-4.1h59.7a4.118 4.118 0 0 1 4.1 4.1v.5a4.118 4.118 0 0 1-4.1 4.1H43.5a2.433 2.433 0 0 0-2.4 2.4 2.433 2.433 0 0 0 2.4 2.4H57a4.118 4.118 0 0 1 4.1 4.1v11.3a4.118 4.118 0 0 1-4.1 4.1H22.7a1.9 1.9 0 0 0-1.9 1.9v.2a1.9 1.9 0 0 0 1.9 1.9h36.2a4.118 4.118 0 0 1 4.1 4.1v.1a4.118 4.118 0 0 1-4.1 4.1H13.3a4.421 4.421 0 0 1-4.1-4.2zm.5-50.7v-12.7a5.121 5.121 0 0 1 5.1-5.1h40.6a5.121 5.121 0 0 1 5.1 5.1v12.7a5.121 5.121 0 0 1-5.1 5.1H14.8a5.188 5.188 0 0 1-5.1-5.1zm13.4-3.4h24a1.9 1.9 0 0 0 1.9-1.9v-2.1a1.9 1.9 0 0 0-1.9-1.9h-24a1.9 1.9 0 0 0-1.9 1.9v2.1a1.839 1.839 0 0 0 1.9 1.9z" class="prefix__cls-2" data-name="패스 865"/>
        </g>
        <g id="prefix__그룹_787" data-name="그룹 787">
            <path id="prefix__패스_866" d="M82.2 169.3V157a4.118 4.118 0 0 1 4.1-4.1h34.2a2.112 2.112 0 0 0 2.1-2.1 2.112 2.112 0 0 0-2.1-2.1H86.1a4.118 4.118 0 0 1-4.1-4.1v-.1a4.118 4.118 0 0 1 4.1-4.1h43.8a4.118 4.118 0 0 1 4.1 4.1v11.9a4.118 4.118 0 0 1-4.1 4.1H95.7a2.112 2.112 0 0 0-2.1 2.1v.2a2.112 2.112 0 0 0 2.1 2.1h36.1a4.118 4.118 0 0 1 4.1 4.1v.3a4.118 4.118 0 0 1-4.1 4.1H86.2a4.034 4.034 0 0 1-4-4.1zM74.6 132v-.6a4.118 4.118 0 0 1 4.1-4.1h59.6a4.118 4.118 0 0 1 4.1 4.1v.6a4.118 4.118 0 0 1-4.1 4.1H78.6a4.1 4.1 0 0 1-4-4.1zm8-13.5v-14.3a4.268 4.268 0 0 1 4.3-4.3h42.5a4.118 4.118 0 0 1 4.1 4.1v.6a4.118 4.118 0 0 1-4.1 4.1H96.8a2.476 2.476 0 0 0-2.5 2.5v.4a2.476 2.476 0 0 0 2.5 2.5h33.3a4.118 4.118 0 0 1 4.1 4.1v.5a4.118 4.118 0 0 1-4.1 4.1H87a4.42 4.42 0 0 1-4.4-4.3z" class="prefix__cls-2" data-name="패스 866"/>
        </g>
        <g id="prefix__그룹_788" data-name="그룹 788">
            <path id="prefix__패스_867" d="M194.3 168.9v-65.1a5.121 5.121 0 0 1 5.1-5.1h1.5a5.121 5.121 0 0 1 5.1 5.1v18.7a3.585 3.585 0 0 0 3.6 3.6h2.2a4.481 4.481 0 0 1 4.5 4.5v.2a4.481 4.481 0 0 1-4.5 4.5h-2.2a3.585 3.585 0 0 0-3.6 3.6V169a5.121 5.121 0 0 1-5.1 5.1h-1.5a5.276 5.276 0 0 1-5.1-5.2zm-44.6-17.4v-41.3a4.481 4.481 0 0 1 4.5-4.5h25.3a4.481 4.481 0 0 1 4.5 4.5 4.481 4.481 0 0 1-4.5 4.5h-13.7a4.481 4.481 0 0 0-4.5 4.5v23.7a3.607 3.607 0 0 0 3.7 3.6c4.7-.2 12.8-.7 19-1.2a4.831 4.831 0 0 1 5.1 4.2v.1a4.543 4.543 0 0 1-3.8 5c-9.2 1.3-18.4 1.6-29.7 1.6h-1.4a4.792 4.792 0 0 1-4.5-4.7z" class="prefix__cls-2" data-name="패스 867"/>
        </g>
    </g>
</svg>
