<svg xmlns="http://www.w3.org/2000/svg" width="32.809" height="32" viewBox="0 0 32.809 32">
    <path id="prefix__github-logo" d="M16.4 0a16.406 16.406 0 0 0-5.185 31.971c.819.152 1.084-.357 1.084-.789v-3.054c-4.563.992-5.513-1.936-5.513-1.936a4.345 4.345 0 0 0-1.822-2.4c-1.489-1.018.113-1 .113-1A3.444 3.444 0 0 1 7.6 24.486a3.492 3.492 0 0 0 4.774 1.363 3.48 3.48 0 0 1 1.042-2.193c-3.643-.417-7.474-1.824-7.474-8.108a6.349 6.349 0 0 1 1.69-4.4A5.9 5.9 0 0 1 7.787 6.8s1.378-.44 4.513 1.681a15.549 15.549 0 0 1 8.215 0C23.646 6.364 25.021 6.8 25.021 6.8a5.9 5.9 0 0 1 .161 4.342 6.332 6.332 0 0 1 1.688 4.4c0 6.3-3.837 7.688-7.49 8.094a3.921 3.921 0 0 1 1.125 3.038v4.5c0 .436.262.949 1.095.787A16.408 16.408 0 0 0 16.4 0z" style="fill:#fff"/>
</svg>
