<svg xmlns="http://www.w3.org/2000/svg" width="32.892" height="32" viewBox="0 0 32.892 32">
    <path id="prefix__GitHub-Mark" d="M16.4 0a16.426 16.426 0 0 0-5.231 31.987c.8.1 1.106-.4 1.106-.8v-2.821c-4.526 1.006-5.532-2.213-5.532-2.213a4.153 4.153 0 0 0-1.811-2.414c-1.509-1.006.1-1.006.1-1.006a3.5 3.5 0 0 1 2.515 1.71 3.482 3.482 0 0 0 4.728 1.408 3.5 3.5 0 0 1 1.006-2.213c-3.621-.4-7.444-1.811-7.444-8.148a6.236 6.236 0 0 1 1.71-4.426 5.956 5.956 0 0 1 .2-4.225s1.408-.4 4.526 1.71a14.056 14.056 0 0 1 4.124-.5 18.514 18.514 0 0 1 4.124.5c3.118-2.112 4.526-1.71 4.526-1.71a6.3 6.3 0 0 1 .2 4.325 6.506 6.506 0 0 1 1.71 4.426c0 6.337-3.822 7.645-7.444 8.047a3.842 3.842 0 0 1 1.106 3.018v4.526c0 .4.3.905 1.106.8A16.426 16.426 0 0 0 16.4 0z" style="fill:#9b9b9b;fill-rule:evenodd"/>
</svg>
