<svg xmlns="http://www.w3.org/2000/svg" width="138.199" height="24.515" viewBox="0 0 138.199 24.515">
    <defs>
        <style>
            .prefix__cls-1{fill:#fff}
        </style>
    </defs>
    <g id="prefix__logo-20px-white" transform="translate(.301)">
        <path id="prefix__사각형_176" d="M0 0H17.283V4.903H0z" class="prefix__cls-1" data-name="사각형 176" transform="translate(4.903)"/>
        <path id="prefix__패스_32" d="M39.573 4.9V0H27.23v4.9h12.331z" class="prefix__cls-1" data-name="패스 32" transform="translate(6.147)"/>
        <path id="prefix__사각형_177" d="M0 0H12.343V4.903H0z" class="prefix__cls-1" data-name="사각형 177" transform="translate(96.124 19.612)"/>
        <path id="prefix__사각형_178" d="M0 0H7.232V4.903H0z" class="prefix__cls-1" data-name="사각형 178" transform="translate(61.03)"/>
        <path id="prefix__패스_33" d="M27.23 16v4.9h12.343V16H27.23z" class="prefix__cls-1" data-name="패스 33" transform="translate(6.147 3.612)"/>
        <path id="prefix__사각형_179" d="M0 0H13.079V4.903H0z" class="prefix__cls-1" data-name="사각형 179" transform="translate(4.903 9.806)"/>
        <path id="prefix__사각형_180" d="M0 0H17.283V4.903H0z" class="prefix__cls-1" data-name="사각형 180" transform="translate(.699 19.612)"/>
        <path id="prefix__사각형_181" d="M0 0H5V5H0z" class="prefix__cls-1" data-name="사각형 181" transform="translate(-.301 5.258)"/>
        <path id="prefix__사각형_182" d="M0 0H4.903V4.903H0z" class="prefix__cls-1" data-name="사각형 182" transform="translate(17.982 14.709)"/>
        <path id="prefix__사각형_183" d="M0 0H4.903V14.709H0z" class="prefix__cls-1" data-name="사각형 183" transform="translate(28.474 4.903)"/>
        <path id="prefix__패스_34" d="M37.29 4v14.709h4.9V4H37.3z" class="prefix__cls-1" data-name="패스 34" transform="translate(8.418 .903)"/>
        <path id="prefix__사각형_184" d="M0 0H4.903V19.612H0z" class="prefix__cls-1" data-name="사각형 184" transform="translate(56.127 4.903)"/>
        <path id="prefix__패스_35" d="M55.7 4v19.612h4.9V4h-4.9z" class="prefix__cls-1" data-name="패스 35" transform="translate(12.575 .903)"/>
        <path id="prefix__패스_36" d="M59.7 0v4.9h7.232V0z" class="prefix__cls-1" data-name="패스 36" transform="translate(13.478)"/>
        <path id="prefix__사각형_185" d="M0 0H4.903V19.612H0z" class="prefix__cls-1" data-name="사각형 185" transform="translate(80.41 4.903)"/>
        <path id="prefix__사각형_186" d="M0 0H13.042V4.903H0z" class="prefix__cls-1" data-name="사각형 186" transform="translate(124.855 19.612)"/>
        <path id="prefix__패스_37" d="M102.763 18.386V0h-4.9v24.515h4.9v-6.129z" class="prefix__cls-1" data-name="패스 37" transform="translate(22.092)"/>
        <path id="prefix__사각형_187" d="M0 0H4.903V19.612H0z" class="prefix__cls-1" data-name="사각형 187" transform="translate(91.221)"/>
        <path id="prefix__사각형_188" d="M0 0H4.903V19.612H0z" class="prefix__cls-1" data-name="사각형 188" transform="translate(108.455)"/>
    </g>
</svg>
