<svg xmlns="http://www.w3.org/2000/svg" width="534.519" height="263.8" viewBox="0 0 534.519 263.8">
    <defs>
        <style>
            .prefix__cls-1{fill:#45a4f6}.prefix__cls-2{fill:#97dcff}.prefix__cls-3{fill:#ff928a}.prefix__cls-4{fill:#f5503d}.prefix__cls-5{fill:#ffeae6}.prefix__cls-6{fill:#ffb4ae}.prefix__cls-7{fill:#fff}.prefix__cls-8{fill:#ce414b}.prefix__cls-11{fill:#ffc3c0}
        </style>
    </defs>
    <g id="prefix__about-illustration" transform="translate(.019)">
        <g id="prefix__그룹_1740" data-name="그룹 1740">
            <g id="prefix__그룹_1739" data-name="그룹 1739">
                <g id="prefix__그룹_1738" data-name="그룹 1738">
                    <path id="prefix__패스_1785" d="M399 167.6a60.465 60.465 0 0 0-60.3-56.4 67.374 67.374 0 0 0-11.1 1 109.672 109.672 0 0 0-103.4-72.9c-42.3 0-79.1 28.9-97.4 64-47.9 3.2-81.5 33.6-81.5 78.9 0 48.5 42.5 81.6 91 81.6h249.9a48.944 48.944 0 0 0 12.8-96.2z" class="prefix__cls-1" data-name="패스 1785"/>
                    <path id="prefix__패스_1786" d="M509.7 33.2A41.109 41.109 0 0 0 469.3 0c-15.9 0-29.7 10.8-36.5 24-18 1.2-30.6 12.6-30.6 29.6 0 18.2 16 30.6 34.2 30.6h71.5c15.2 0 26.6-9.7 26.6-24.9-.2-14.5-10.5-25.2-24.8-26.1z" class="prefix__cls-2" data-name="패스 1786"/>
                    <path id="prefix__패스_1787" d="M464.1 111.9a1.685 1.685 0 0 0-.4-2.1 1.829 1.829 0 0 0-2.4.1c-2.6 2.5-5.1 5.2-7.4 7.9-.7.9-1.5 1.7-2.2 2.6a4.68 4.68 0 0 1-6.4.8 27.5 27.5 0 0 0-2.8-1.9c-3-2-6.1-4-9.3-5.8a1.685 1.685 0 0 0-2.1.4 1.829 1.829 0 0 0 .1 2.4c2.5 2.6 5.2 5 7.9 7.4.8.7 1.5 1.3 2.3 2a5.023 5.023 0 0 1 .9 6.9c-.6.8-1.2 1.7-1.7 2.5-2 3-4 6.1-5.8 9.3a1.685 1.685 0 0 0 .4 2.1 1.829 1.829 0 0 0 2.4-.1c2.6-2.5 5-5.2 7.4-7.9.6-.7 1.1-1.3 1.7-2a5.591 5.591 0 0 1 7.5-1c.7.5 1.4 1 2.2 1.5 3 2 6.1 4 9.3 5.8a1.685 1.685 0 0 0 2.1-.4 1.829 1.829 0 0 0-.1-2.4c-2.5-2.6-5.2-5.1-7.9-7.4-.8-.7-1.6-1.4-2.5-2.1a4.846 4.846 0 0 1-.9-6.6l1.8-2.7a97.746 97.746 0 0 0 5.9-9.3z" class="prefix__cls-3" data-name="패스 1787"/>
                    <path id="prefix__패스_1788" d="M496.7 162.6a.778.778 0 0 0 .2-.8.63.63 0 0 0-.8-.3c-1.3.4-2.6 1-3.8 1.5a6.117 6.117 0 0 1-1.2.5 1.761 1.761 0 0 1-2.3-.7c-.2-.4-.4-.7-.6-1.1a35 35 0 0 0-2.3-3.5.778.778 0 0 0-.8-.2.63.63 0 0 0-.3.8c.4 1.3 1 2.6 1.5 3.8.2.3.3.7.5 1a1.944 1.944 0 0 1-.8 2.5c-.3.2-.7.4-1 .6a35 35 0 0 0-3.5 2.3.778.778 0 0 0-.2.8.63.63 0 0 0 .8.3c1.3-.4 2.6-1 3.8-1.5.3-.1.6-.3.9-.4a2 2 0 0 1 2.7.9c.2.3.3.6.5.9a35 35 0 0 0 2.3 3.5.778.778 0 0 0 .8.2.63.63 0 0 0 .3-.8c-.4-1.3-1-2.6-1.5-3.8-.2-.4-.3-.7-.5-1.1a1.824 1.824 0 0 1 .8-2.4c.4-.2.7-.4 1.1-.6 1.1-.9 2.3-1.6 3.4-2.4z" class="prefix__cls-4" data-name="패스 1788"/>
                    <path id="prefix__패스_1789" d="M24.7 111.3a.832.832 0 0 0 .6-1 1.063 1.063 0 0 0-1-.9c-2 0-4 .2-6 .4-.6.1-1.2.1-1.9.2a2.565 2.565 0 0 1-2.9-2.1c-.1-.6-.3-1.2-.4-1.8a38.27 38.27 0 0 0-1.6-5.8.832.832 0 0 0-1-.6 1.063 1.063 0 0 0-.9 1c0 2 .2 4 .4 6 .1.6.1 1.1.2 1.7a2.953 2.953 0 0 1-2.2 3.2 9.362 9.362 0 0 0-1.6.4 38.271 38.271 0 0 0-5.8 1.6.832.832 0 0 0-.6 1 1.063 1.063 0 0 0 1 .9c2 0 4-.2 6-.4.5-.1 1-.1 1.4-.2a3.017 3.017 0 0 1 3.4 2.4c.1.5.2.9.3 1.4a38.27 38.27 0 0 0 1.6 5.8.832.832 0 0 0 1 .6 1.063 1.063 0 0 0 .9-1c0-2-.2-4-.4-6-.1-.6-.1-1.2-.2-1.8a2.666 2.666 0 0 1 2.1-3 11.626 11.626 0 0 0 1.8-.4c1.9-.5 3.9-1 5.8-1.6z" class="prefix__cls-4" data-name="패스 1789"/>
                    <path id="prefix__패스_1790" d="M362 66.5a.948.948 0 0 0 .5-1.1.921.921 0 0 0-1.1-.7c-2 .3-3.9.7-5.9 1.2-.6.2-1.2.3-1.8.5a2.47 2.47 0 0 1-3.1-1.6L350 63c-.7-1.9-1.5-3.7-2.4-5.6a.948.948 0 0 0-1.1-.5.921.921 0 0 0-.7 1.1c.3 2 .7 3.9 1.2 5.9.1.5.3 1.1.4 1.6a2.829 2.829 0 0 1-1.8 3.4c-.5.2-1 .4-1.6.6-1.9.7-3.7 1.5-5.6 2.4a.948.948 0 0 0-.5 1.1.921.921 0 0 0 1.1.7c2-.3 3.9-.7 5.9-1.2a7.366 7.366 0 0 0 1.4-.4A3.04 3.04 0 0 1 350 74c.2.5.3.9.5 1.4.7 1.9 1.5 3.7 2.4 5.6a.948.948 0 0 0 1.1.5.921.921 0 0 0 .7-1.1c-.3-2-.7-3.9-1.2-5.9a8.446 8.446 0 0 0-.5-1.7 2.749 2.749 0 0 1 1.7-3.3c.6-.2 1.1-.4 1.7-.6 1.9-.8 3.8-1.5 5.6-2.4z" class="prefix__cls-1" data-name="패스 1790"/>
                    <circle id="prefix__타원_43" cx="2.8" cy="2.8" r="2.8" class="prefix__cls-3" data-name="타원 43" transform="translate(128.4 44)"/>
                    <circle id="prefix__타원_44" cx="3.3" cy="3.3" r="3.3" class="prefix__cls-3" data-name="타원 44" transform="translate(451.8 167.3)"/>
                    <circle id="prefix__타원_45" cx="3.1" cy="3.1" r="3.1" class="prefix__cls-2" data-name="타원 45" transform="translate(325.3 50.2)"/>
                    <path id="prefix__패스_1791" d="M121.5 68.4a.494.494 0 0 0 .1-.7.524.524 0 0 0-.8-.2c-1.1.5-2.2 1-3.3 1.6-.3.2-.7.4-1 .6a1.6 1.6 0 0 1-2.1-.5l-.6-.9a20.907 20.907 0 0 0-2.3-2.9.494.494 0 0 0-.7-.1.524.524 0 0 0-.2.8 31.825 31.825 0 0 0 1.6 3.2c.2.3.3.6.5.9a1.725 1.725 0 0 1-.5 2.3 5.547 5.547 0 0 0-.8.6 20.907 20.907 0 0 0-2.9 2.3.494.494 0 0 0-.1.7.524.524 0 0 0 .8.2 31.825 31.825 0 0 0 3.2-1.6c.3-.1.5-.3.8-.4a1.925 1.925 0 0 1 2.5.6c.2.2.3.5.5.7a20.907 20.907 0 0 0 2.3 2.9.494.494 0 0 0 .7.1.524.524 0 0 0 .2-.8c-.5-1.1-1-2.2-1.6-3.3a4.053 4.053 0 0 1-.5-.9 1.728 1.728 0 0 1 .5-2.2l.9-.6a32.177 32.177 0 0 1 2.8-2.4z" class="prefix__cls-4" data-name="패스 1791"/>
                    <path id="prefix__패스_1792" d="M94.9 48.2a3.37 3.37 0 0 0 2.3-3.4 3.474 3.474 0 0 0-3.5-3 199.576 199.576 0 0 0-20.5 1c-2.1.2-4.3.4-6.4.7a8.882 8.882 0 0 1-9.8-7.2c-.4-2.1-.8-4.2-1.3-6.3a205.887 205.887 0 0 0-5.1-20.2 3.37 3.37 0 0 0-3.4-2.3 3.55 3.55 0 0 0-3 3.5 199.587 199.587 0 0 0 1.1 20.5l.6 5.7A9.715 9.715 0 0 1 38 47.9c-1.9.4-3.8.7-5.6 1.1a205.887 205.887 0 0 0-20.2 5.1 3.37 3.37 0 0 0-2.3 3.4 3.55 3.55 0 0 0 3.5 3 199.587 199.587 0 0 0 20.5-1.1c1.6-.2 3.3-.3 4.9-.5a10.66 10.66 0 0 1 11.6 8.5c.3 1.6.6 3.3 1 4.9a197.117 197.117 0 0 0 5.1 20.1 3.37 3.37 0 0 0 3.4 2.3 3.474 3.474 0 0 0 3-3.5 199.576 199.576 0 0 0-1-20.5c-.2-2-.4-4.1-.6-6.1a9.27 9.27 0 0 1 7.5-10.2l6-1.2a184.34 184.34 0 0 0 20.1-5z" class="prefix__cls-3" data-name="패스 1792"/>
                    <g id="prefix__그룹_1737" data-name="그룹 1737">
                        <g id="prefix__그룹_1705" data-name="그룹 1705">
                            <path id="prefix__패스_1793" d="M179.7 20.1c-.8 2.1-.9 7.5-1 9.4A51.793 51.793 0 0 0 165 41.3c-2.7-.5-6.9-3-6.9-7.5 0-5 3.5-7.9 6.5-9.4a2.735 2.735 0 0 1 1.4-.4c.6-.1 1.3-.3 1.5-1 .3-.9-.3-1.7-1.5-3.2-3-3.7-3.1-6-2.5-6.5a1.135 1.135 0 0 1 .8-.3h.1c1 0 2.3 1 3.8 2.7.5.6.9 1 1.2 1.4a50.161 50.161 0 0 0 3.5 3.7 2.333 2.333 0 0 0 1.8.6 2.145 2.145 0 0 0 1.6-1 3.552 3.552 0 0 0 .4-.9 3.067 3.067 0 0 1 .9-1.4c.7-.6 1.4-.7 1.8-.4a2.213 2.213 0 0 1 .3 2.4z" class="prefix__cls-5" data-name="패스 1793"/>
                        </g>
                        <g id="prefix__그룹_1706" data-name="그룹 1706">
                            <path id="prefix__패스_1794" d="M181.6 20.8c-.5 1.4-.7 5-.8 7.5a10.907 10.907 0 0 1-1.1.6 10.907 10.907 0 0 1-1.1.6c0-2 .2-7.3 1-9.4a2.213 2.213 0 0 0-.3-2.4c-.4-.3-1.1-.2-1.8.4a3.067 3.067 0 0 0-.9 1.4c-.1.3-.3.6-.4.9a2.748 2.748 0 0 1-1.6 1 2.107 2.107 0 0 1-1.8-.6 34.987 34.987 0 0 1-3.5-3.7 12.986 12.986 0 0 0-1.2-1.4c-1.4-1.6-2.8-2.6-3.8-2.7h-.1a1.135 1.135 0 0 0-.8.3c-.6.6-.5 2.8 2.5 6.5 1.2 1.5 1.8 2.3 1.5 3.2a1.882 1.882 0 0 1-1.5 1 10.261 10.261 0 0 0-1.4.4c-3 1.5-6.6 4.4-6.5 9.4 0 4.5 4.2 7 6.9 7.5-.2.3-.5.6-.7.9s-.5.6-.7.9c-3.6-1.1-7.5-4.4-7.6-9.3 0-4.8 2.6-8.6 7.7-11.2a6.518 6.518 0 0 1 1.5-.5c-.2-.2-.4-.6-.8-1-3.3-4.1-4.2-7.6-2.3-9.3a3.583 3.583 0 0 1 2.4-.9c1.6.1 3.4 1.3 5.2 3.4q.75.9 1.2 1.5a42.192 42.192 0 0 0 3.3 3.6h.1a.1.1 0 0 0 .1-.1 2.186 2.186 0 0 0 .3-.5 5.388 5.388 0 0 1 1.5-2.2 3.568 3.568 0 0 1 4.3-.5c1.5.9 1.9 2.8 1.2 4.7z" class="prefix__cls-6" data-name="패스 1794"/>
                        </g>
                        <g id="prefix__그룹_1707" data-name="그룹 1707">
                            <path id="prefix__패스_1795" d="M185.7 193.7c-.5-.3-1.1-.6-1.6-.9.5.3 1 .6 1.6.9z" class="prefix__cls-7" data-name="패스 1795"/>
                            <path id="prefix__패스_1796" d="M201.5 129.8a38.166 38.166 0 0 0-9.6.9.959.959 0 0 0-.9-.2c-8 2.2-13.7 5.2-18.5 9.9-9.3 9.3-14.1 17.8-20.1 28.6l-.1.2a1.076 1.076 0 0 0 .3 1.4c-.8 1.9-1.5 3.7-2.1 5.2-.1-.1-.1-.2-.2-.2l-.7-.7c-.1-.2-.3-.3-.5-.5l-.5-.5c-1-1-2.1-2-3.2-3.2l-1-1c-.6-.6-1.3-1.2-1.9-1.8-.8-.7-1.5-1.4-2.2-2-10.3-8.9-18.7-11.5-20.1-10.1 0 0 6.6-19.5 34.1-33.4 14.2-7.2 34.5-5.2 47.2 7.4z" class="prefix__cls-7" data-name="패스 1796"/>
                        </g>
                        <g id="prefix__그룹_1708" data-name="그룹 1708">
                            <path id="prefix__패스_1797" d="M140.4 165.8l-2.8 5-2.1 3.8c-7.5-6.7-17.2-16.7-15.1-18.8 1.3-1.5 9.7 1.1 20 10z" class="prefix__cls-1" data-name="패스 1797"/>
                        </g>
                        <g id="prefix__그룹_1709" data-name="그룹 1709">
                            <path id="prefix__패스_1799" d="M149.1 180.8a22.916 22.916 0 0 0-.5 2.4v.3l-.1.1-3.2 5.6a43.931 43.931 0 0 1-14.1-7.3l4.2-7.4 2.1-3.8 2.8-5c.7.6 1.5 1.3 2.2 2 .6.6 1.3 1.2 1.9 1.8l1 1c1.2 1.2 2.3 2.2 3.2 3.2l.5.5.5.5.7.7.2.2c-.6 2.2-1.1 3.9-1.4 5.2z" class="prefix__cls-5" data-name="패스 1799"/>
                            <path id="prefix__패스_1800" d="M142.6 167.8c.6.6 1.3 1.2 1.9 1.8-.6-.6-1.3-1.2-1.9-1.8z" class="prefix__cls-5" data-name="패스 1800"/>
                            <path id="prefix__패스_1801" d="M150.6 175.7l-.2-.2z" class="prefix__cls-5" data-name="패스 1801"/>
                        </g>
                        <path id="prefix__패스_1802" d="M179 217c.5-1.2-13.8-5.7-18.3-7.3-5.8-2-21.1-7.7-21.7-5.7.2-.5.4-1 .6-1.4a2.994 2.994 0 0 1 .4-.8 2.507 2.507 0 0 1 .4-.7c-4.1-2.1-12.1-5.3-15.2-6.7-5.5-2.4-20.1-8.9-21.2-7.3 8.6-18.8 26.1-5.9 27.5-5.2a43.931 43.931 0 0 0 14.1 7.3h.1a26.694 26.694 0 0 1 .1 5.6c8.5-5.7 19.8 1.2 21.6 2.5a24.9 24.9 0 0 0 3 1.9c1.3.7 2.5 1.4 3.7 1.9a39.006 39.006 0 0 0 7.9 2.7c.3 9.2-3 13.2-3 13.2z" class="prefix__cls-4" data-name="패스 1802"/>
                        <g id="prefix__그룹_1710" data-name="그룹 1710">
                            <path id="prefix__패스_1803" d="M140.3 201a2.507 2.507 0 0 1-.4.7 2.994 2.994 0 0 1-.4.8c-4.1-1.1-11.3-3.8-16.2-5.6-6.7-2.5-20.6-7.3-19.6-9.8v-.1c1.2-1.6 15.7 4.9 21.2 7.3 3.3 1.4 11.3 4.6 15.4 6.7z" class="prefix__cls-8" data-name="패스 1803"/>
                        </g>
                        <g id="prefix__그룹_1711" data-name="그룹 1711">
                            <path id="prefix__패스_1804" d="M224.1 58.8c-.3 1.7-2.4 1.8-3.3 1.6s-3.1-.8-3.1-2.6c0-1.4 1.2-2.5 3.3-2.2 2.1.4 3.4 1.6 3.1 3.2z" data-name="패스 1804"/>
                            <path id="prefix__패스_1805" d="M228.8 53.7c-.4 2-1.6 3.2-3.2 2.8s-1.6-2.4-1.4-3.2c.2-.9.9-3 2.6-2.8 1.3.1 2.3 1.2 2 3.2z" data-name="패스 1805"/>
                            <path id="prefix__패스_1806" d="M234.7 59c-.2.8-1.1.8-1.6.8-.5-.1-1.5-.4-1.5-1.2 0-.7.6-1.2 1.6-1.1s1.7.7 1.5 1.5z" data-name="패스 1806"/>
                            <path id="prefix__패스_1807" d="M246.2 59c-.4 2-1.6 3.2-3.2 2.8s-1.6-2.4-1.3-3.2c.2-.9.9-3 2.6-2.8 1.3 0 2.3 1.2 1.9 3.2z" data-name="패스 1807"/>
                            <path id="prefix__패스_1808" d="M250.6 66.5c-.3 1.7-2.5 1.8-3.4 1.6-1-.2-3.2-.8-3.2-2.6 0-1.4 1.2-2.6 3.4-2.3s3.6 1.6 3.2 3.3z" data-name="패스 1808"/>
                            <path id="prefix__패스_1809" d="M264.1 70.3a4.763 4.763 0 0 1-5.9 2.3c-.4-.2-.6-.7-.3-1a6.279 6.279 0 0 0 2.6-4.4 1.961 1.961 0 0 1 3.4-1.4c.8.8 1.1 2.7.2 4.5z" data-name="패스 1809"/>
                        </g>
                        <g id="prefix__그룹_1712" data-name="그룹 1712">
                            <path id="prefix__패스_1810" d="M251 182.1v1c0 4.3-2.4 9-8 11.8a21.4 21.4 0 0 1-2.2 1c13.1 7.9 27.3 2.6 32-1.1 3.4-2.7 11.4-8.1 19.3-15.4a100.045 100.045 0 0 0-41.1 2.7z" class="prefix__cls-4" data-name="패스 1810"/>
                            <path id="prefix__패스_1811" d="M295.1 119.5c-3-5.8-6.3-13.1-11.3-18.6a24.491 24.491 0 0 0-8.9-6.3 22.827 22.827 0 0 0-10.5-1.7l-1.7-5.4a3.051 3.051 0 0 0-3.8-2.1l-1.8.5-3.7 1-10.1 2.8-6 1.6-1.7-5.7-.7-2.6c0-.1-.1-.2-.1-.3a.758.758 0 0 0-.2-.4c0-.1-.1-.1-.1-.2-.1-.1-.1-.2-.2-.3s-.1-.2-.2-.2c-.1-.1-.2-.1-.3-.2a.349.349 0 0 1-.2-.1h-.1c-.1 0-.2-.1-.3-.1a24.143 24.143 0 0 1-17.3-18.8v-.1c-.2-1.3-.3-2.6-.4-3.7l-4.8-5.4-22.3-25a4.328 4.328 0 0 0-5-1.1c-.7.3-1.6.8-2.5 1.3a10.907 10.907 0 0 1-1.1.6 10.907 10.907 0 0 1-1.1.6A51.793 51.793 0 0 0 165 41.4c-.2.3-.5.6-.7.9s-.5.6-.7.9l-1.5 2.1a4.2 4.2 0 0 0 .2 5.1l53.3 68.4-10 11.4a37.421 37.421 0 0 1 12.2 4.1c13.1 6.9 22.6 23 25.6 29.4l-3.6 3.1s-6.6 4.6-8.6 11.2a15.917 15.917 0 0 1 2.2-1.3 18.245 18.245 0 0 1 8.5-2.2 11.047 11.047 0 0 1 4.1.7 7.311 7.311 0 0 1 4.4 4c.1.1.1.3.2.5 0 .1.1.1.1.2s.1.1.1.2v.1a3.091 3.091 0 0 1 .2.8v.1a.6.6 0 0 0 .1.4.367.367 0 0 0 .1.3v.5a97.162 97.162 0 0 1 41.2-2.7 79.723 79.723 0 0 0 12.9-14.8c9.3-14.8-5.8-36.6-10.2-45.3zm-37.3-30.9a1.146 1.146 0 0 1 1.3.7l1 3.4.3 1.1v.1a1.209 1.209 0 0 1-.7 1.3h-.3a1.2 1.2 0 0 1-1-.7v-.1l-1-3.5-.1-.5-.2-.7c-.2-.4.1-.9.7-1.1zm-4.6 1.4a1.053 1.053 0 0 1 1.3.7l.3 1.1 1 3.6v.2a1.17 1.17 0 0 1-.8 1.1h-.3a1.05 1.05 0 0 1-.9-.5c0-.1-.1-.1-.1-.2l-1-3.6-.3-1.2a1.12 1.12 0 0 1 .8-1.2zm-11.9 11h-.3a.875.875 0 0 1-.9-.6.31.31 0 0 0-.1-.2l-1.1-3.7-.3-1a1.044 1.044 0 0 1 2-.6l.3 1 1.1 3.7v.1c.1.7-.2 1.2-.7 1.3zm4.6-1.4h-.3a.875.875 0 0 1-.9-.6c0-.1 0-.1-.1-.2l-1-3.7-.3-1.1a1.209 1.209 0 0 1 .7-1.3 1.1 1.1 0 0 1 1.3.7l.3 1.1 1 3.7v.2a.977.977 0 0 1-.7 1.2zm2.3-5.7l-.3-1.1a1.044 1.044 0 1 1 2-.6l.3 1.1 1 3.6v.2a1.23 1.23 0 0 1-.7 1.1h-.3a1.05 1.05 0 0 1-.9-.5c0-.1-.1-.1-.1-.2zm27.2 46.8a164.887 164.887 0 0 0-24.9 18.3.908.908 0 0 1-.7.3 1.136 1.136 0 0 1-.8-.3l-.1-.1a.948.948 0 0 1 .2-1.3 189.431 189.431 0 0 1 16.9-13.2c5-3.4 8.2-5.3 8.3-5.3a1.012 1.012 0 0 1 1.4.4.8.8 0 0 1-.3 1.2z" class="prefix__cls-4" data-name="패스 1811"/>
                        </g>
                        <g id="prefix__그룹_1713" data-name="그룹 1713">
                            <path id="prefix__패스_1812" d="M264.7 74.7a14.072 14.072 0 0 1-8.2 2.9 1.282 1.282 0 0 0-1.2 1.6l1.8 6.8-3.7 1-10.1 2.8-6 1.6-1.7-5.8-.8-2.6c0-.1-.1-.2-.1-.3a4.054 4.054 0 0 0-.5-.9c-.1-.1-.1-.2-.2-.2-.1-.1-.2-.1-.3-.2a.349.349 0 0 1-.2-.1h-.1c-.1 0-.2-.1-.3-.1a24.143 24.143 0 0 1-17.3-18.8v-.1c-.2-1.3-.3-2.6-.4-3.8a22.521 22.521 0 0 1 3.1-11.8c3-.8 14.3-4.1 22.7-8.5a1.6 1.6 0 0 1 2.2.8c3.3 7.8 12.8 19.8 18.9 21.8 6.6-1.1 7.9 9.5 2.4 13.9z" class="prefix__cls-5" data-name="패스 1812"/>
                            <path id="prefix__패스_1813" d="M224.1 58.8c-.3 1.7-2.4 1.8-3.3 1.6s-3.1-.8-3.1-2.6c0-1.4 1.2-2.5 3.3-2.2 2.1.4 3.4 1.6 3.1 3.2z" class="prefix__cls-5" data-name="패스 1813"/>
                            <path id="prefix__패스_1814" d="M228.8 53.7c-.4 2-1.6 3.2-3.2 2.8s-1.6-2.4-1.4-3.2c.2-.9.9-3 2.6-2.8 1.3.1 2.3 1.2 2 3.2z" class="prefix__cls-5" data-name="패스 1814"/>
                            <path id="prefix__패스_1815" d="M234.7 59c-.2.8-1.1.8-1.6.8-.5-.1-1.5-.4-1.5-1.2 0-.7.6-1.2 1.6-1.1s1.7.7 1.5 1.5z" class="prefix__cls-5" data-name="패스 1815"/>
                            <path id="prefix__패스_1816" d="M246.2 59c-.4 2-1.6 3.2-3.2 2.8s-1.6-2.4-1.3-3.2c.2-.9.9-3 2.6-2.8 1.3 0 2.3 1.2 1.9 3.2z" class="prefix__cls-5" data-name="패스 1816"/>
                            <path id="prefix__패스_1817" d="M250.6 66.5c-.3 1.7-2.5 1.8-3.4 1.6-1-.2-3.2-.8-3.2-2.6 0-1.4 1.2-2.6 3.4-2.3s3.6 1.6 3.2 3.3z" class="prefix__cls-5" data-name="패스 1817"/>
                            <path id="prefix__패스_1818" d="M264.1 70.3a4.763 4.763 0 0 1-5.9 2.3c-.4-.2-.6-.7-.3-1a6.279 6.279 0 0 0 2.6-4.4 1.961 1.961 0 0 1 3.4-1.4c.8.8 1.1 2.7.2 4.5z" class="prefix__cls-5" data-name="패스 1818"/>
                        </g>
                        <g id="prefix__그룹_1714" data-name="그룹 1714">
                            <path id="prefix__패스_1819" d="M264.1 70.3a4.763 4.763 0 0 1-5.9 2.3c-.4-.2-.6-.7-.3-1a6.279 6.279 0 0 0 2.6-4.4 1.961 1.961 0 0 1 3.4-1.4c.8.8 1.1 2.7.2 4.5z" class="prefix__cls-6" data-name="패스 1819"/>
                        </g>
                        <g id="prefix__그룹_1715" data-name="그룹 1715">
                            <path id="prefix__패스_1820" d="M242 99.9a.921.921 0 0 1-.7 1.1h-.3a.875.875 0 0 1-.9-.6.31.31 0 0 0-.1-.2l-1.1-3.7-.3-1a1.044 1.044 0 0 1 2-.6l.3 1 1.1 3.7z" class="prefix__cls-3" data-name="패스 1820"/>
                        </g>
                        <g id="prefix__그룹_1716" data-name="그룹 1716">
                            <path id="prefix__패스_1821" d="M246.6 98.5a1.008 1.008 0 0 1-.7 1.1h-.3a.875.875 0 0 1-.9-.6c0-.1 0-.1-.1-.2l-1-3.7-.3-1.1a1.209 1.209 0 0 1 .7-1.3 1.1 1.1 0 0 1 1.3.7l.3 1.1 1 3.7z" class="prefix__cls-3" data-name="패스 1821"/>
                        </g>
                        <g id="prefix__그룹_1717" data-name="그룹 1717">
                            <path id="prefix__패스_1822" d="M251.2 97.1a1.23 1.23 0 0 1-.7 1.1h-.3a1.05 1.05 0 0 1-.9-.5c0-.1-.1-.1-.1-.2l-1-3.6-.3-1.1a1.044 1.044 0 1 1 2-.6l.3 1.1 1 3.6z" class="prefix__cls-3" data-name="패스 1822"/>
                        </g>
                        <g id="prefix__그룹_1718" data-name="그룹 1718">
                            <path id="prefix__패스_1823" d="M255.8 95.7a1.17 1.17 0 0 1-.8 1.1h-.3a1.05 1.05 0 0 1-.9-.5c0-.1-.1-.1-.1-.2l-1-3.6-.3-1.2a1.146 1.146 0 0 1 .7-1.3 1.053 1.053 0 0 1 1.3.7l.3 1.1 1 3.6a.367.367 0 0 1 .1.3z" class="prefix__cls-3" data-name="패스 1823"/>
                        </g>
                        <g id="prefix__그룹_1719" data-name="그룹 1719">
                            <path id="prefix__패스_1824" d="M259.7 95.3h-.3a1.2 1.2 0 0 1-1-.7v-.1l-1-3.5-.1-.5-.2-.7a1.053 1.053 0 0 1 .7-1.3 1.028 1.028 0 0 1 1.2.7l1 3.4.3 1.1v.1c.2.8-.1 1.4-.6 1.5z" class="prefix__cls-3" data-name="패스 1824"/>
                        </g>
                        <g id="prefix__그룹_1720" data-name="그룹 1720">
                            <path id="prefix__패스_1825" d="M217.7 134.2a40.871 40.871 0 0 0-12.2-4.1c-1.4-.2-2.7-.3-4.1-.4a38.166 38.166 0 0 0-9.6.9.55.55 0 0 1 .3.5 1.146 1.146 0 0 1-.7 1.3c-7.7 2.1-13.1 5-17.5 9.4-9.1 9-13.8 17.5-19.8 28.1l-.1.2a1.05 1.05 0 0 1-.9.5.9.9 0 0 1-.5-.1h-.1c-.8 1.9-1.5 3.7-2.1 5.2q-1.05 3.15-1.5 5.1a22.916 22.916 0 0 0-.5 2.4.6.6 0 0 1 .1-.4c.1-.4.4-.6.8-.9.2-.1.3-.2.5-.3a11.584 11.584 0 0 1 6-.1 55.593 55.593 0 0 1 6.3 1.5c2.5.8 5.3 1.8 8.4 3.1a19.99 19.99 0 0 1 2.1 1c.5.2 1.1.5 1.7.8a18.648 18.648 0 0 1 2 1 5.939 5.939 0 0 1 .8.4 10.092 10.092 0 0 0 1.5.7c1.1.6 2.1 1.1 3.1 1.6.3.2.7.3 1 .5a7.458 7.458 0 0 1 1.2.7c.6.3 1.1.6 1.6.9l1.5.9a8.341 8.341 0 0 1 1.2.8c6.3 4 7 6 7.1 7.6v.2l5-7.9s4.2 6.2 10.6 14.8a74.717 74.717 0 0 1 15.3-15.8 14.625 14.625 0 0 1-.9-1.3c-.4.1-.9.2-1.3.3-5.2.7-6.4-2-6.6-2.9a3.169 3.169 0 0 1 1.6-3.9c.9-.4 2.1-.8 3.2-1.2.9-.3 1.8-.6 2.5-.9.2-.1.3-.1.5-.2a16.131 16.131 0 0 1 5.8-6.2c2-6.5 8.6-11.2 8.6-11.2l3.6-3.1c-2.8-6.5-12.4-22.6-25.5-29.5zm-2.3 36.9l-1.6 3-8.8 16a1.05 1.05 0 0 1-.9.5.9.9 0 0 1-.5-.1 1.012 1.012 0 0 1-.4-1.4l4.2-7.8 6.1-11.2a1.012 1.012 0 0 1 1.4-.4.975.975 0 0 1 .5 1.4z" class="prefix__cls-7" data-name="패스 1825"/>
                            <path id="prefix__패스_1826" d="M185.7 193.7c-.5-.3-1.1-.6-1.6-.9.5.3 1 .6 1.6.9z" class="prefix__cls-7" data-name="패스 1826"/>
                            <path id="prefix__패스_1827" d="M228.9 196.2c-8.6 10.3-17.2 14.9-17.2 14.9-.3-.4-.5-.7-.8-1.1a74.717 74.717 0 0 1 15.3-15.8 7.317 7.317 0 0 0 2.7 2z" class="prefix__cls-7" data-name="패스 1827"/>
                        </g>
                        <path id="prefix__패스_1828" d="M172.8 187.1l-1.9 3.5-.9 1.7-2 3.6c-8.5-3.6-18.8-8.8-19.3-12.2v-.5a.6.6 0 0 1 .1-.4c.1-.4.4-.6.8-.9.2-.1.3-.2.5-.3a11.584 11.584 0 0 1 6-.1 55.593 55.593 0 0 1 6.3 1.5c2.5.8 5.3 1.8 8.4 3.1a12.446 12.446 0 0 0 2 1z" class="prefix__cls-1" data-name="패스 1828"/>
                        <path id="prefix__패스_1829" d="M185.7 193.7c-.5-.3-1.1-.6-1.6-.9.5.3 1 .6 1.6.9z" data-name="패스 1829" style="fill:#2489d3"/>
                        <path id="prefix__패스_1830" d="M187.1 194.5l-1.1 1.9-1.2 2.1-1.6 2.9-1.4 2.5a41.329 41.329 0 0 1-7.9-2.7c-1.2-.5-2.4-1.2-3.7-1.9-1-.6-2-1.2-3-1.9l.8-1.5 2-3.6.9-1.7 1.9-3.5c.5.2 1.1.5 1.7.8a18.648 18.648 0 0 1 2 1 5.939 5.939 0 0 1 .8.4 10.092 10.092 0 0 0 1.5.7c1.1.6 2.1 1.1 3.1 1.6.3.2.7.3 1 .5a7.458 7.458 0 0 1 1.2.7c.6.3 1.1.6 1.6.9s1 .6 1.4.8z" class="prefix__cls-5" data-name="패스 1830"/>
                        <path id="prefix__패스_1831" d="M195.5 202.9v.2c-.5 1.3-6.3.1-12.3-1.6l1.6-2.9 1.2-2.1 1.1-1.9a8.341 8.341 0 0 1 1.2.8c6.3 3.8 7.1 5.9 7.2 7.5z" class="prefix__cls-1" data-name="패스 1831"/>
                        <g id="prefix__그룹_1721" data-name="그룹 1721">
                            <path id="prefix__패스_1832" d="M234.7 59c-.2.8-1.1.8-1.6.8-.5-.1-1.5-.4-1.5-1.2 0-.7.6-1.2 1.6-1.1s1.7.7 1.5 1.5z" data-name="패스 1832" style="fill:#ff9b99"/>
                        </g>
                        <g id="prefix__그룹_1722" data-name="그룹 1722">
                            <path id="prefix__패스_1833" d="M250.6 66.5c-.3 1.7-2.5 1.8-3.4 1.6-1-.2-3.2-.8-3.2-2.6 0-1.4 1.2-2.6 3.4-2.3s3.6 1.6 3.2 3.3z" class="prefix__cls-11" data-name="패스 1833"/>
                        </g>
                        <g id="prefix__그룹_1723" data-name="그룹 1723">
                            <path id="prefix__패스_1834" d="M224.1 58.8c-.3 1.7-2.4 1.8-3.3 1.6s-3.1-.8-3.1-2.6c0-1.4 1.2-2.5 3.3-2.2 2.1.4 3.4 1.6 3.1 3.2z" class="prefix__cls-11" data-name="패스 1834"/>
                        </g>
                        <g id="prefix__그룹_1724" data-name="그룹 1724">
                            <path id="prefix__패스_1835" d="M226.8 50.3h-.2c-1.7 0-2.3 2.1-2.6 2.9-.2.8-.3 3 1.4 3.4a1.268 1.268 0 0 0 .6.1c1.3 0 2.3-1.1 2.7-3a3.244 3.244 0 0 0-.4-2.6 1.99 1.99 0 0 0-1.5-.8z" data-name="패스 1835"/>
                            <path id="prefix__패스_1836" d="M245.9 56.5a2.6 2.6 0 0 0-1.6-.9h-.2c-1.7 0-2.4 2.2-2.5 2.9-.2.8-.3 3 1.4 3.4a1.268 1.268 0 0 0 .6.1c1.3 0 2.3-1.1 2.7-3a2.9 2.9 0 0 0-.4-2.5z" data-name="패스 1836"/>
                        </g>
                        <g id="prefix__그룹_1725" data-name="그룹 1725">
                            <path id="prefix__패스_1837" d="M191.5 132.5c-7.7 2.1-13.1 5-17.5 9.4-9.1 9-13.8 17.5-19.8 28.1l-.1.2a1.05 1.05 0 0 1-.9.5.9.9 0 0 1-.5-.1h-.1a1.076 1.076 0 0 1-.3-1.4l.1-.2c6-10.8 10.8-19.3 20.1-28.6 4.7-4.7 10.4-7.8 18.5-9.9a.959.959 0 0 1 .9.2.55.55 0 0 1 .3.5 1.015 1.015 0 0 1-.7 1.3z" class="prefix__cls-2" data-name="패스 1837"/>
                        </g>
                        <g id="prefix__그룹_1726" data-name="그룹 1726">
                            <path id="prefix__패스_1838" d="M317.4 187.3L203.3 224a59.61 59.61 0 0 1 7.6-13.9 74.717 74.717 0 0 1 15.3-15.8 6.829 6.829 0 0 0 2.7 2 11.311 11.311 0 0 0 4.9 1 21.536 21.536 0 0 0 6.9-1.3 14.723 14.723 0 0 0 2.2-1c5.6-2.8 8-7.5 8-11.8v-1a97.162 97.162 0 0 1 41.2-2.7c15.8 2.2 25.3 7.8 25.3 7.8z" class="prefix__cls-1" data-name="패스 1838"/>
                        </g>
                        <g id="prefix__그룹_1727" data-name="그룹 1727">
                            <path id="prefix__패스_1839" d="M251 182.1v-.3a.9.9 0 0 0-.1-.5.6.6 0 0 0-.1-.4v-.1c-.1-.3-.1-.6-.2-.8v-.1c0-.1-.1-.3-.1-.4 0-.2-.1-.3-.2-.5a7.6 7.6 0 0 0-4.4-4 10.7 10.7 0 0 0-4.1-.7 19.539 19.539 0 0 0-8.5 2.2c-.8.4-1.5.9-2.2 1.3a16.131 16.131 0 0 0-5.8 6.2c-.2.1-.3.1-.5.2-.7.3-1.6.6-2.5.9a27.56 27.56 0 0 0-3.2 1.2 3.394 3.394 0 0 0-1.6 3.9c.2.9 1.4 3.6 6.6 2.9.4-.1.9-.2 1.3-.3a14.633 14.633 0 0 0 .9 1.3 6.829 6.829 0 0 0 2.7 2 11.311 11.311 0 0 0 4.9 1 21.536 21.536 0 0 0 6.9-1.3 14.723 14.723 0 0 0 2.2-1c5.6-2.8 8-7.5 8-11.8v-.9zm-8.7 11.4a18.869 18.869 0 0 1-3.3 1.3 13.882 13.882 0 0 1-9 .1 5.272 5.272 0 0 1-2.4-1.7 4.44 4.44 0 0 1-.8-1.1c-.1-.1-.1-.3-.2-.4l-.1-.2-.3-.7-.7.3a8.448 8.448 0 0 1-1.7.5c-2.6.4-4.4-.3-4.8-1.7a1.654 1.654 0 0 1 .6-2c.8-.4 2-.8 3.1-1.2.9-.3 1.9-.7 2.6-1h.1c.2-.1.4-.1.5-.2l.4-.1.2-.4c.1-.1.1-.3.2-.4a12.632 12.632 0 0 1 3.7-4.4 17.365 17.365 0 0 1 3.5-2.2 17.746 17.746 0 0 1 7.1-2 9.09 9.09 0 0 1 4.1.6 5.29 5.29 0 0 1 3.4 3.1 10.1 10.1 0 0 1 .7 3c.4 3.8-1.7 8.2-6.9 10.8z" class="prefix__cls-6" data-name="패스 1839"/>
                        </g>
                        <g id="prefix__그룹_1728" data-name="그룹 1728">
                            <path id="prefix__패스_1840" d="M275.4 140.7a164.887 164.887 0 0 0-24.9 18.3.908.908 0 0 1-.7.3 1.136 1.136 0 0 1-.8-.3l-.1-.1a.948.948 0 0 1 .2-1.3 189.431 189.431 0 0 1 16.9-13.2c5-3.4 8.2-5.3 8.3-5.3a1.012 1.012 0 0 1 1.4.4.8.8 0 0 1-.3 1.2z" class="prefix__cls-3" data-name="패스 1840"/>
                        </g>
                        <g id="prefix__그룹_1729" data-name="그룹 1729">
                            <path id="prefix__패스_1841" d="M215.4 171.1l-1.6 3-8.8 16a1.05 1.05 0 0 1-.9.5.9.9 0 0 1-.5-.1 1.012 1.012 0 0 1-.4-1.4l4.2-7.8 6.1-11.2a1.012 1.012 0 0 1 1.4-.4.975.975 0 0 1 .5 1.4z" class="prefix__cls-2" data-name="패스 1841"/>
                        </g>
                        <g id="prefix__그룹_1730" data-name="그룹 1730">
                            <path id="prefix__패스_1842" d="M299.8 49.9a16.036 16.036 0 0 1-12.1-1.6 77.6 77.6 0 0 1-.4 12.5c-2 19.8.2 25.3 7.4 31.9 1.8 1.6.9 4.4-1.4 5.5-3.4 1.6-5.4 2.5-9.6 2.6a24.491 24.491 0 0 0-8.9-6.3 22.827 22.827 0 0 0-10.5-1.7l-1.7-5.4a3.051 3.051 0 0 0-3.8-2.1l-1.8.5-1.8-6.8a1.321 1.321 0 0 1 1.2-1.6 14.072 14.072 0 0 0 8.2-2.9c5.5-4.4 4.3-15-2.4-14-6-1.9-15.5-13.9-18.9-21.8a1.6 1.6 0 0 0-2.2-.8c-8.4 4.4-19.8 7.7-22.7 8.5a22.92 22.92 0 0 0-3.1 11.9l-4.8-5.4a45.916 45.916 0 0 1 1.1-15.2c2.9-11.5 8.4-18.9 17.9-23.1a25.854 25.854 0 0 1 23 .9s12.4-3.1 24.1 6.7a4.267 4.267 0 0 0-1 2.7 3.886 3.886 0 0 0 1.6 3.2 3.5 3.5 0 0 0 2.2.8 3.916 3.916 0 0 0-.9 2.6 4.118 4.118 0 0 0 4.1 4.1 4 4 0 0 0 4-4 4.08 4.08 0 0 0-3.9-4.1 3.916 3.916 0 0 0 .9-2.6 4.08 4.08 0 0 0-2.1-3.6 11.088 11.088 0 0 1 4-1.2c7.4-.7 13.5 4.9 11.6 17.5-.8 5.2 2 8.1 3.2 9.6 1 1.3.5 2.5-.5 2.7z" data-name="패스 1842"/>
                        </g>
                        <g id="prefix__그룹_1731" data-name="그룹 1731">
                            <path id="prefix__패스_1843" d="M283.9 25.2a4.525 4.525 0 0 1-.9 2.6h-.2a4.1 4.1 0 0 0-1.1.1 3.9 3.9 0 0 0-2 1.3 3.5 3.5 0 0 1-2.2-.8 3.886 3.886 0 0 1-1.6-3.2 4.267 4.267 0 0 1 1-2.7 4.075 4.075 0 0 1 3-1.4 4.552 4.552 0 0 1 2 .5 4.331 4.331 0 0 1 2 3.6z" class="prefix__cls-7" data-name="패스 1843"/>
                        </g>
                        <g id="prefix__그룹_1732" data-name="그룹 1732">
                            <path id="prefix__패스_1844" d="M286.8 31.9a3.886 3.886 0 0 1-1.6 3.2 4.069 4.069 0 0 1-2.4.8 4.118 4.118 0 0 1-4.1-4.1 4.525 4.525 0 0 1 .9-2.6 3.9 3.9 0 0 1 2-1.3 3.75 3.75 0 0 1 1.1-.1h.2a4.148 4.148 0 0 1 3.9 4.1z" class="prefix__cls-4" data-name="패스 1844"/>
                        </g>
                        <g id="prefix__그룹_1733" data-name="그룹 1733">
                            <path id="prefix__패스_1845" d="M179 217c-.5 1.1-12.6-2.4-19.8-4.6-6.8-2.1-21-5.8-20.3-8.4.6-2 16 3.7 21.7 5.7 4.7 1.6 19 6.1 18.4 7.3z" class="prefix__cls-8" data-name="패스 1845"/>
                        </g>
                        <g id="prefix__그룹_1734" data-name="그룹 1734">
                            <path id="prefix__패스_1846" d="M242.3 193.5a18.869 18.869 0 0 1-3.3 1.3 13.882 13.882 0 0 1-9 .1 5.272 5.272 0 0 1-2.4-1.7 4.44 4.44 0 0 1-.8-1.1c-.1-.1-.1-.3-.2-.4l-.1-.2-.3-.7-.7.3a8.448 8.448 0 0 1-1.7.5c-2.6.4-4.4-.3-4.8-1.7a1.654 1.654 0 0 1 .6-2c.8-.4 2-.8 3.1-1.2.9-.3 1.9-.7 2.6-1h.1c.2-.1.4-.1.5-.2l.4-.1.2-.4c.1-.1.1-.3.2-.4a12.632 12.632 0 0 1 3.7-4.4 17.365 17.365 0 0 1 3.5-2.2 17.746 17.746 0 0 1 7.1-2 9.09 9.09 0 0 1 4.1.6 5.29 5.29 0 0 1 3.4 3.1 10.1 10.1 0 0 1 .7 3c.4 3.8-1.7 8.2-6.9 10.8z" class="prefix__cls-5" data-name="패스 1846"/>
                        </g>
                        <g id="prefix__그룹_1735" data-name="그룹 1735">
                            <path id="prefix__패스_1847" d="M247.4 81.2c-.1.2-2.7 4.2-10 4.5h-1.7l-.7-2.6a2.851 2.851 0 0 0-1.8-1.9c-.2-.1-.4-.1-.6-.2a43.593 43.593 0 0 0 13.8-.9 1.015 1.015 0 0 1 1 .3c.3.3.1.5 0 .8z" class="prefix__cls-6" data-name="패스 1847"/>
                        </g>
                        <g id="prefix__그룹_1736" data-name="그룹 1736">
                            <path id="prefix__패스_1848" d="M238.1 65a5.471 5.471 0 0 1-3.4 2 8.005 8.005 0 0 1-3.4-.2 7.741 7.741 0 0 1-1.6-.7 6.193 6.193 0 0 1-2.3-2.9 4.013 4.013 0 0 1-.3-1.5 1.278 1.278 0 0 1 1.1-1.2 1.2 1.2 0 0 1 1.2 1.1 3.575 3.575 0 0 0 2.6 3 4.151 4.151 0 0 0 4.3-.9 1.147 1.147 0 0 1 1.6-.3 1.313 1.313 0 0 1 .2 1.6z" class="prefix__cls-4" data-name="패스 1848"/>
                        </g>
                    </g>
                </g>
            </g>
        </g>
    </g>
</svg>
