<svg xmlns="http://www.w3.org/2000/svg" width="240" height="174" viewBox="0 0 240 174">
    <defs>
        <clipPath id="prefix__clip-path">
            <path id="prefix__사각형_313" d="M0 0H240V174H0z" data-name="사각형 313" transform="translate(0 -.207)"/>
        </clipPath>
        <style>
            .prefix__cls-2{fill:#fff}.prefix__cls-3{fill:#ffeae6}.prefix__cls-4{fill:#ffb4ae}.prefix__cls-5{fill:#45a4f6}.prefix__cls-6{fill:#2489d3}.prefix__cls-7{fill:#f5503d}.prefix__cls-8{fill:#ce414b}.prefix__cls-9{fill:#ff928a}.prefix__cls-11{fill:#ffc3c0}
        </style>
    </defs>
    <g id="prefix__list-illlustration" transform="translate(0 .207)">
        <g id="prefix__그룹_1630" data-name="그룹 1630">
            <path id="prefix__패스_1633" d="M195.034 86.2a74.41 74.41 0 0 0-72.993-60C93.324 26.2 68.414 45.731 56 69.566 23.559 71.717.8 92.324.8 123.028c0 32.855 28.8 55.283 61.655 55.283h129.1c27.393 0 48-17.545 48-44.938-.079-26.235-18.7-45.435-44.521-47.173z" class="prefix__cls-2" data-name="패스 1633" transform="translate(-.138 -4.517)"/>
            <path id="prefix__패스_1634" d="M262.31 70.479a1.053 1.053 0 0 0 .579-.993.917.917 0 0 0-.993-.745c-1.821.083-3.641.331-5.462.579l-1.738.248a2.4 2.4 0 0 1-2.731-1.738c-.166-.579-.248-1.076-.414-1.655-.5-1.821-.993-3.559-1.655-5.3a1.053 1.053 0 0 0-.993-.579.917.917 0 0 0-.745.993 40.987 40.987 0 0 0 .662 5.462l.248 1.49a2.589 2.589 0 0 1-1.9 2.979c-.5.166-.993.248-1.49.414-1.821.5-3.559.993-5.3 1.655a1.053 1.053 0 0 0-.579.993.917.917 0 0 0 .993.745 40.986 40.986 0 0 0 5.462-.662c.414-.083.91-.166 1.324-.248a2.8 2.8 0 0 1 3.228 2.069c.083.414.248.828.331 1.324a39.628 39.628 0 0 0 1.738 5.3 1.053 1.053 0 0 0 .993.579.917.917 0 0 0 .745-.993c-.083-1.821-.331-3.641-.579-5.462-.083-.579-.166-1.076-.248-1.655a2.427 2.427 0 0 1 1.821-2.814c.5-.166 1.076-.248 1.572-.414a50.807 50.807 0 0 0 5.131-1.572z" class="prefix__cls-2" data-name="패스 1634" transform="translate(-41.345 -10.397)"/>
            <circle id="prefix__타원_42" cx="2.069" cy="2.069" r="2.069" class="prefix__cls-2" data-name="타원 42" transform="translate(195.89 42.869)"/>
            <g id="prefix__그룹_1629" data-name="그룹 1629" transform="translate(32.085)">
                <g id="prefix__그룹_1597" data-name="그룹 1597" transform="translate(37.101 1.324)">
                    <path id="prefix__패스_1635" d="M98.331 6.566a28.507 28.507 0 0 0-.662 6.455 37 37 0 0 0-9.352 8.028c-1.817-.332-4.717-2.07-4.717-5.132 0-3.393 2.4-5.379 4.469-6.372a6.286 6.286 0 0 1 .91-.331c.414-.083.91-.166 1.076-.745.248-.579-.248-1.159-1.076-2.152-2.069-2.483-2.152-4.055-1.738-4.469a.751.751 0 0 1 .579-.248h.08c.662 0 1.572.662 2.566 1.821.331.414.579.662.828.993a28.686 28.686 0 0 0 2.4 2.566 1.366 1.366 0 0 0 1.241.414 1.84 1.84 0 0 0 1.076-.662 2.074 2.074 0 0 0 .331-.579 2.143 2.143 0 0 1 .579-.91q.745-.621 1.241-.248c.252.164.417.743.169 1.571z" class="prefix__cls-3" data-name="패스 1635" transform="translate(-83.6 -1.6)"/>
                </g>
                <g id="prefix__그룹_1598" data-name="그룹 1598" transform="translate(35.529)">
                    <path id="prefix__패스_1636" d="M99.328 6.786a26.686 26.686 0 0 0-.579 5.131 3.355 3.355 0 0 0-.745.414c-.248.166-.5.248-.745.414a29.492 29.492 0 0 1 .662-6.455 1.354 1.354 0 0 0-.248-1.655c-.331-.248-.745-.083-1.241.248a1.573 1.573 0 0 0-.579.91 2.074 2.074 0 0 1-.331.579 1.84 1.84 0 0 1-1.076.662 1.44 1.44 0 0 1-1.246-.413 20.545 20.545 0 0 1-2.4-2.566c-.248-.331-.5-.579-.828-.993a5.245 5.245 0 0 0-2.562-1.821h-.083a.751.751 0 0 0-.579.248c-.414.414-.331 1.9 1.738 4.469.828.993 1.241 1.572 1.076 2.152-.166.5-.662.579-1.076.745a6.286 6.286 0 0 0-.91.331c-2.069 1.076-4.469 2.979-4.469 6.372 0 3.062 2.9 4.8 4.717 5.131-.166.166-.331.414-.5.579s-.331.414-.5.579c-2.4-.745-5.131-2.979-5.131-6.29 0-3.228 1.821-5.876 5.214-7.7a3.431 3.431 0 0 1 .993-.331 2.713 2.713 0 0 0-.5-.662C85.259 4.138 84.679 1.738 86 .579A2.254 2.254 0 0 1 87.659 0a5.6 5.6 0 0 1 3.559 2.317c.331.414.579.745.828.993a25.571 25.571 0 0 0 2.234 2.4h.083a.081.081 0 0 0 .083-.083c.083-.083.083-.248.166-.331a3.18 3.18 0 0 1 1.076-1.49 2.436 2.436 0 0 1 2.9-.331 2.926 2.926 0 0 1 .74 3.311z" class="prefix__cls-4" data-name="패스 1636" transform="translate(-81.7)"/>
                </g>
                <g id="prefix__그룹_1599" data-name="그룹 1599" transform="translate(11.198 73.136)">
                    <path id="prefix__패스_1637" d="M106.076 150.362A7.555 7.555 0 0 1 105 149.7c.331.248.745.414 1.076.662z" class="prefix__cls-5" data-name="패스 1637" transform="translate(-61.386 -98.946)"/>
                    <path id="prefix__패스_1638" d="M107.748 96.257a24.684 24.684 0 0 0-6.538.579.892.892 0 0 0-.662-.166c-5.462 1.49-9.352 3.559-12.579 6.786-6.372 6.29-9.6 12.083-13.738 19.448l-.083.083a.666.666 0 0 0 .248.91c-.579 1.324-.993 2.483-1.407 3.559l-.166-.166-.5-.5-.323-.326-.331-.331-2.238-2.233-.662-.662c-.414-.414-.91-.828-1.324-1.241-.5-.5-.993-.91-1.49-1.324-7.034-6.043-12.745-7.864-13.655-6.873 0 0 4.469-13.324 23.255-22.759 9.683-4.715 23.586-3.308 32.193 5.216z" class="prefix__cls-5" data-name="패스 1638" transform="translate(-52.3 -88.373)"/>
                </g>
                <g id="prefix__그룹_1600" data-name="그룹 1600" transform="translate(11.172 98.393)">
                    <path id="prefix__패스_1639" d="M66.115 126.016l-1.9 3.393-1.415 2.565c-5.131-4.552-11.752-11.338-10.345-12.828.998-.992 6.708.828 13.66 6.87z" class="prefix__cls-6" data-name="패스 1639" transform="translate(-52.268 -118.891)"/>
                </g>
                <g id="prefix__그룹_1601" data-name="그룹 1601" transform="translate(18.812 105.6)">
                    <path id="prefix__패스_1641" d="M73.666 137.779c-.248 1.076-.331 1.655-.331 1.655v.248l-.083.083-2.152 3.807a30.647 30.647 0 0 1-9.6-4.966l2.9-5.048 1.407-2.566 1.9-3.393c.5.414.993.91 1.49 1.324.414.414.828.828 1.324 1.241l.662.662c.828.828 1.572 1.49 2.234 2.234l.331.331.331.331.5.5.166.166a21.969 21.969 0 0 0-1.079 3.391z" class="prefix__cls-3" data-name="패스 1641" transform="translate(-61.5 -127.6)"/>
                    <path id="prefix__패스_1642" d="M70.9 129.2c.414.414.828.828 1.324 1.241-.496-.413-.91-.827-1.324-1.241z" class="prefix__cls-3" data-name="패스 1642" transform="translate(-63.121 -127.876)"/>
                    <path id="prefix__패스_1643" d="M77.366 135.666l-.166-.166c.083.083.166.083.166.166z" class="prefix__cls-3" data-name="패스 1643" transform="translate(-64.207 -128.962)"/>
                </g>
                <path id="prefix__패스_1644" d="M90.128 164c.331-.828-9.352-3.89-12.5-4.966-3.972-1.407-14.4-5.214-14.814-3.89.166-.331.248-.662.414-.993a4.035 4.035 0 0 0 .248-.579l.248-.5c-2.814-1.407-8.193-3.641-10.345-4.552-3.807-1.655-13.655-6.041-14.483-4.966 5.876-12.828 17.793-4.055 18.7-3.476a29.6 29.6 0 0 0 9.6 4.966h.083a14.594 14.594 0 0 1 0 3.807c5.793-3.89 13.49.828 14.731 1.738.662.5 1.407.91 2.069 1.324.828.5 1.738.91 2.566 1.324a24 24 0 0 0 5.379 1.821c.421 6.207-1.896 8.942-1.896 8.942z" class="prefix__cls-7" data-name="패스 1644" transform="translate(-38.792 -23.554)"/>
                <g id="prefix__그룹_1602" data-name="그룹 1602" transform="translate(0 119.915)">
                    <path id="prefix__패스_1645" d="M63.705 154.5l-.248.5a4.034 4.034 0 0 0-.248.579c-2.814-.745-7.7-2.566-11.007-3.807-4.552-1.738-13.986-4.966-13.407-6.621v-.083c.828-1.076 10.676 3.31 14.483 4.966 2.234.907 7.696 3.059 10.427 4.466z" class="prefix__cls-8" data-name="패스 1645" transform="translate(-38.769 -144.897)"/>
                </g>
                <g id="prefix__그룹_1603" data-name="그룹 1603" transform="translate(77.653 26.976)">
                    <path id="prefix__패스_1646" d="M136.986 39.042c-.248 1.159-1.655 1.159-2.234 1.076-.662-.083-2.152-.5-2.152-1.738 0-.993.828-1.738 2.234-1.49 1.49.165 2.4.993 2.152 2.152z" data-name="패스 1646" transform="translate(-132.6 -33.328)"/>
                    <path id="prefix__패스_1647" d="M141.145 34.834c-.248 1.407-1.076 2.152-2.152 1.9s-1.076-1.572-.91-2.234c.166-.579.579-1.986 1.738-1.9.911.082 1.573.827 1.324 2.234z" data-name="패스 1647" transform="translate(-133.532 -32.596)"/>
                    <path id="prefix__패스_1648" d="M146.269 39.373c-.083.579-.745.579-1.076.5s-.993-.248-.993-.828c0-.5.414-.828 1.076-.745.662.163 1.076.494.993 1.073z" data-name="패스 1648" transform="translate(-134.6 -33.577)"/>
                    <path id="prefix__패스_1649" d="M155.445 39.134c-.248 1.407-1.076 2.152-2.152 1.9s-1.076-1.572-.91-2.234c.166-.579.579-1.986 1.738-1.9.911.082 1.573.91 1.324 2.234z" data-name="패스 1649" transform="translate(-135.997 -33.337)"/>
                    <path id="prefix__패스_1650" d="M158.868 45.312c-.248 1.159-1.655 1.241-2.317 1.076-.662-.083-2.234-.579-2.152-1.821 0-.993.828-1.738 2.317-1.572 1.407.248 2.318 1.159 2.152 2.317z" data-name="패스 1650" transform="translate(-136.358 -34.385)"/>
                    <path id="prefix__패스_1651" d="M169.891 48.182a3.351 3.351 0 0 1-4.055 1.572.375.375 0 0 1-.166-.662 4.461 4.461 0 0 0 1.738-2.979 1.31 1.31 0 0 1 2.317-.91 2.5 2.5 0 0 1 .166 2.979z" data-name="패스 1651" transform="translate(-138.277 -34.689)"/>
                </g>
                <g id="prefix__그룹_1604" data-name="그룹 1604" transform="translate(39.065 10.676)">
                    <path id="prefix__패스_1652" d="M158.552 140.466v.745c0 2.979-1.655 6.124-5.462 8.028a11.723 11.723 0 0 1-1.49.662c8.938 5.379 18.538 1.821 21.848-.745a166.689 166.689 0 0 0 13.159-10.51 66.248 66.248 0 0 0-28.055 1.82z" class="prefix__cls-7" data-name="패스 1652" transform="translate(-97.288 -34.452)"/>
                    <path id="prefix__패스_1653" d="M177.361 76.21c-1.986-3.972-4.3-8.938-7.7-12.662a16.783 16.783 0 0 0-6.041-4.3 15.1 15.1 0 0 0-7.117-1.159l-1.159-3.641a2.216 2.216 0 0 0-2.566-1.49l-1.241.331-2.566.662-6.869 1.9-4.052 1.159-1.159-3.89-.5-1.738c0-.083-.083-.166-.083-.248s-.083-.166-.166-.248c0-.083-.083-.083-.083-.166l-.166-.166-.166-.166-.166-.166c-.083 0-.083-.083-.166-.083h-.083c-.083 0-.083-.083-.166-.083a16.6 16.6 0 0 1-11.834-12.828v-.083a14.143 14.143 0 0 1-.248-2.566l-3.31-3.641-15.138-17.045a3.018 3.018 0 0 0-3.476-.745c-.5.248-1.076.5-1.738.828a3.355 3.355 0 0 0-.745.414c-.248.166-.5.248-.745.414a37 37 0 0 0-9.352 8.028c-.166.166-.331.414-.5.579s-.331.414-.5.579a15.91 15.91 0 0 1-1.068 1.41 2.982 2.982 0 0 0 .083 3.476l36.331 46.593-6.786 7.779a27 27 0 0 1 8.276 2.731c8.938 4.717 15.393 15.641 17.462 20.028l-2.483 2.152s-4.469 3.145-5.876 7.614c.5-.331.993-.579 1.49-.91a12.827 12.827 0 0 1 5.793-1.49 7.29 7.29 0 0 1 2.731.5 4.684 4.684 0 0 1 2.979 2.731.5.5 0 0 1 .083.331c0 .083 0 .083.083.166 0 .083 0 .083.083.166v.083c.083.166.083.414.166.579V118a.3.3 0 0 0 .083.248v.579a67.7 67.7 0 0 1 28.055-1.9 53.274 53.274 0 0 0 8.772-10.014c6.868-9.93-3.477-24.744-6.456-30.703zm-25.407-21.02a.632.632 0 0 1 .828.5l.662 2.31.248.745v.083a.664.664 0 0 1-.5.828h-.166a.737.737 0 0 1-.662-.414v-.083l-.662-2.4-.083-.331-.166-.5c-.161-.242.087-.656.501-.738zm-3.145.993a.75.75 0 0 1 .91.5l.248.745.662 2.483v.166a.724.724 0 0 1-.5.745h-.166a.7.7 0 0 1-.579-.331c0-.083-.083-.083-.083-.166l-.662-2.4-.248-.828a.626.626 0 0 1 .418-.914zm-8.11 7.448h-.166a.844.844 0 0 1-.662-.414v-.083l-.745-2.483-.166-.745a.682.682 0 0 1 1.324-.331l.166.662.75 2.563v.083a.724.724 0 0 1-.5.748zm3.145-.993h-.166a.844.844 0 0 1-.662-.414.081.081 0 0 0-.083-.083l-.745-2.483-.248-.745a.664.664 0 0 1 .5-.828.75.75 0 0 1 .91.5l.166.745.745 2.483v.083a.592.592 0 0 1-.417.742zm1.572-3.89l-.248-.748a.682.682 0 0 1 1.324-.331l.248.745.745 2.483v.166a.724.724 0 0 1-.5.745h-.166a.7.7 0 0 1-.579-.331c0-.083-.083-.083-.083-.166zm18.455 31.945a113.648 113.648 0 0 0-16.966 12.414 1.176 1.176 0 0 1-.5.166.59.59 0 0 1-.5-.248l-.083-.083a.753.753 0 0 1 .083-.91 131.494 131.494 0 0 1 11.5-9.021c3.393-2.317 5.628-3.559 5.628-3.641a.79.79 0 0 1 .993.248.7.7 0 0 1-.155 1.075z" class="prefix__cls-7" data-name="패스 1653" transform="translate(-85.973 -12.9)"/>
                </g>
                <g id="prefix__그룹_1605" data-name="그룹 1605" transform="translate(76.242 18.472)">
                    <path id="prefix__패스_1654" d="M164.416 47.379a9.644 9.644 0 0 1-5.545 1.986.9.9 0 0 0-.828 1.076l1.241 4.634-2.566.662-6.869 1.9L145.8 58.8l-1.159-3.89-.5-1.738c0-.083-.083-.166-.083-.248a3.6 3.6 0 0 0-.331-.579l-.166-.166-.166-.166c-.083 0-.083-.083-.166-.083h-.083c-.083 0-.083-.083-.166-.083a16.6 16.6 0 0 1-11.834-12.828v-.083a14.144 14.144 0 0 1-.248-2.566 15.288 15.288 0 0 1 2.152-8.11 93.076 93.076 0 0 0 15.476-5.793 1.03 1.03 0 0 1 1.49.5c2.234 5.3 8.772 13.49 12.828 14.814 4.469-.664 5.297 6.536 1.572 9.598z" class="prefix__cls-3" data-name="패스 1654" transform="translate(-130.895 -22.321)"/>
                    <path id="prefix__패스_1655" d="M136.986 39.042c-.248 1.159-1.655 1.159-2.234 1.076-.662-.083-2.152-.5-2.152-1.738 0-.993.828-1.738 2.234-1.49 1.49.165 2.4.993 2.152 2.152z" class="prefix__cls-3" data-name="패스 1655" transform="translate(-131.189 -24.824)"/>
                    <path id="prefix__패스_1656" d="M141.145 34.834c-.248 1.407-1.076 2.152-2.152 1.9s-1.076-1.572-.91-2.234c.166-.579.579-1.986 1.738-1.9.911.082 1.573.827 1.324 2.234z" class="prefix__cls-3" data-name="패스 1656" transform="translate(-132.12 -24.092)"/>
                    <path id="prefix__패스_1657" d="M146.269 39.373c-.083.579-.745.579-1.076.5s-.993-.248-.993-.828c0-.5.414-.828 1.076-.745.662.163 1.076.494.993 1.073z" class="prefix__cls-3" data-name="패스 1657" transform="translate(-133.189 -25.073)"/>
                    <path id="prefix__패스_1658" d="M155.445 39.134c-.248 1.407-1.076 2.152-2.152 1.9s-1.076-1.572-.91-2.234c.166-.579.579-1.986 1.738-1.9.911.082 1.573.91 1.324 2.234z" class="prefix__cls-3" data-name="패스 1658" transform="translate(-134.586 -24.834)"/>
                    <path id="prefix__패스_1659" d="M158.868 45.312c-.248 1.159-1.655 1.241-2.317 1.076-.662-.083-2.234-.579-2.152-1.821 0-.993.828-1.738 2.317-1.572 1.407.248 2.318 1.159 2.152 2.317z" class="prefix__cls-3" data-name="패스 1659" transform="translate(-134.947 -25.881)"/>
                    <path id="prefix__패스_1660" d="M169.891 48.182a3.351 3.351 0 0 1-4.055 1.572.375.375 0 0 1-.166-.662 4.461 4.461 0 0 0 1.738-2.979 1.31 1.31 0 0 1 2.317-.91 2.5 2.5 0 0 1 .166 2.979z" class="prefix__cls-3" data-name="패스 1660" transform="translate(-136.866 -26.185)"/>
                </g>
                <g id="prefix__그룹_1606" data-name="그룹 1606" transform="translate(104.902 37.021)">
                    <path id="prefix__패스_1661" d="M169.891 48.182a3.351 3.351 0 0 1-4.055 1.572.375.375 0 0 1-.166-.662 4.461 4.461 0 0 0 1.738-2.979 1.31 1.31 0 0 1 2.317-.91 2.5 2.5 0 0 1 .166 2.979z" class="prefix__cls-4" data-name="패스 1661" transform="translate(-165.526 -44.734)"/>
                </g>
                <g id="prefix__그룹_1607" data-name="그룹 1607" transform="translate(92.032 56.834)">
                    <path id="prefix__패스_1662" d="M152.23 72.5a.644.644 0 0 1-.5.745h-.166a.844.844 0 0 1-.662-.414v-.083l-.745-2.483-.157-.742a.682.682 0 1 1 1.324-.331l.166.662.745 2.566z" class="prefix__cls-9" data-name="패스 1662" transform="translate(-149.975 -68.675)"/>
                </g>
                <g id="prefix__그룹_1608" data-name="그룹 1608" transform="translate(95.012 55.841)">
                    <path id="prefix__패스_1663" d="M156 71.3a.724.724 0 0 1-.5.745h-.166a.844.844 0 0 1-.662-.414.081.081 0 0 0-.083-.083l-.745-2.483-.248-.745a.664.664 0 0 1 .5-.828.75.75 0 0 1 .91.5l.166.745.745 2.483a.081.081 0 0 1 .083.08z" class="prefix__cls-9" data-name="패스 1663" transform="translate(-153.575 -67.475)"/>
                </g>
                <g id="prefix__그룹_1609" data-name="그룹 1609" transform="translate(98.322 54.931)">
                    <path id="prefix__패스_1664" d="M159.83 70.2a.724.724 0 0 1-.5.745h-.166a.7.7 0 0 1-.579-.331c0-.083-.083-.083-.083-.166l-.662-2.483-.248-.745a.682.682 0 0 1 1.324-.331l.248.745.745 2.483c-.162.003-.079.003-.079.083z" class="prefix__cls-9" data-name="패스 1664" transform="translate(-157.575 -66.375)"/>
                </g>
                <g id="prefix__그룹_1610" data-name="그룹 1610" transform="translate(101.467 53.938)">
                    <path id="prefix__패스_1665" d="M163.63 69a.724.724 0 0 1-.5.745h-.166a.7.7 0 0 1-.579-.331c0-.083-.083-.083-.083-.166l-.662-2.4-.248-.828a.632.632 0 0 1 .5-.828.75.75 0 0 1 .91.5l.248.745.662 2.483c-.165 0-.165.08-.082.08z" class="prefix__cls-9" data-name="패스 1665" transform="translate(-161.375 -65.175)"/>
                </g>
                <g id="prefix__그룹_1611" data-name="그룹 1611" transform="translate(104.529 52.862)">
                    <path id="prefix__패스_1666" d="M166.834 68.53h-.166a.737.737 0 0 1-.662-.414v-.083l-.662-2.4-.083-.331-.166-.5a.75.75 0 0 1 .5-.91.664.664 0 0 1 .828.5l.662 2.317.248.745v.083c.08.497-.086.91-.499.993z" class="prefix__cls-9" data-name="패스 1666" transform="translate(-165.075 -63.875)"/>
                </g>
                <g id="prefix__그룹_1612" data-name="그룹 1612" transform="translate(30.729 81)">
                    <path id="prefix__패스_1667" d="M122.907 100.875a27 27 0 0 0-8.276-2.731 15.239 15.239 0 0 0-2.731-.244 24.683 24.683 0 0 0-6.538.579c.083.083.166.248.248.331a.632.632 0 0 1-.5.828c-5.214 1.407-8.938 3.393-11.917 6.372-6.207 6.124-9.434 11.917-13.49 19.117l-.083.083a.625.625 0 0 1-.579.331.5.5 0 0 1-.331-.083h-.083c-.579 1.324-.993 2.483-1.407 3.559a26.905 26.905 0 0 0-.993 3.476c-.248 1.076-.331 1.655-.331 1.655a.3.3 0 0 1 .083-.248.99.99 0 0 1 .579-.579.627.627 0 0 1 .331-.165 7.911 7.911 0 0 1 4.055-.083 29.549 29.549 0 0 1 4.3 1.076 45.8 45.8 0 0 1 5.71 2.152 11.726 11.726 0 0 1 1.49.662c.331.166.745.331 1.159.5.414.248.91.414 1.324.662.166.083.414.166.579.248l.993.5c.745.414 1.407.745 2.069 1.076.248.083.414.248.662.331a3.866 3.866 0 0 0 .828.414 12.25 12.25 0 0 1 1.076.662c.331.166.662.414.993.579a7.273 7.273 0 0 1 .828.5c4.3 2.731 4.8 4.055 4.8 5.131v.166l3.393-5.379s2.814 4.221 7.2 10.1a50.282 50.282 0 0 1 10.428-10.759 3.417 3.417 0 0 1-.579-.91 3.519 3.519 0 0 1-.91.165c-3.559.5-4.386-1.407-4.552-1.986a2.167 2.167 0 0 1 1.076-2.648 21.843 21.843 0 0 1 2.234-.828c.579-.248 1.241-.414 1.738-.662a.5.5 0 0 1 .331-.083 10.609 10.609 0 0 1 3.972-4.221c1.407-4.469 5.876-7.614 5.876-7.614l2.483-2.152c-2.145-4.155-8.683-15.163-17.538-19.88zm-1.572 25.159l-1.076 1.986-5.959 10.924a.625.625 0 0 1-.579.331.5.5 0 0 1-.331-.083.676.676 0 0 1-.248-.993l2.9-5.3 4.138-7.614a.676.676 0 0 1 .993-.248.88.88 0 0 1 .161.997z" class="prefix__cls-5" data-name="패스 1667" transform="translate(-75.9 -97.875)"/>
                    <path id="prefix__패스_1668" d="M106.076 150.362A7.555 7.555 0 0 1 105 149.7c.331.248.745.414 1.076.662z" class="prefix__cls-5" data-name="패스 1668" transform="translate(-80.917 -106.811)"/>
                    <path id="prefix__패스_1669" d="M139.348 152.324a47.434 47.434 0 0 1-11.669 10.176 4.549 4.549 0 0 0-.579-.745A50.281 50.281 0 0 1 137.528 151a7.35 7.35 0 0 0 1.82 1.324z" class="prefix__cls-5" data-name="패스 1669" transform="translate(-84.728 -107.035)"/>
                </g>
                <path id="prefix__패스_1670" d="M92.252 144.28l-1.324 2.4-.662 1.159-1.407 2.483c-5.793-2.483-12.828-5.959-13.159-8.359v-.331a.3.3 0 0 1 .083-.248.99.99 0 0 1 .579-.579.627.627 0 0 1 .331-.166 7.911 7.911 0 0 1 4.055-.083 29.549 29.549 0 0 1 4.3 1.076 45.8 45.8 0 0 1 5.71 2.152 2.905 2.905 0 0 1 1.494.496z" class="prefix__cls-6" data-name="패스 1670" transform="translate(-45.137 -24.197)"/>
                <path id="prefix__패스_1671" d="M106.076 150.362A7.555 7.555 0 0 1 105 149.7c.331.248.745.414 1.076.662z" class="prefix__cls-6" data-name="패스 1671" transform="translate(-50.188 -25.81)"/>
                <path id="prefix__패스_1672" d="M104.638 150.148l-.745 1.324-.828 1.49-1.159 1.986-.993 1.655a24 24 0 0 1-5.379-1.821 25.438 25.438 0 0 1-2.566-1.324c-.662-.414-1.407-.828-2.069-1.324l.579-.993 1.407-2.483.662-1.159 1.324-2.4c.331.166.745.331 1.159.5.414.248.91.414 1.324.662.166.083.414.166.579.248l.993.5c.745.414 1.407.745 2.069 1.076.248.083.414.248.662.331a3.866 3.866 0 0 0 .828.414 12.251 12.251 0 0 1 1.076.662 12.24 12.24 0 0 1 1.077.656z" class="prefix__cls-3" data-name="패스 1672" transform="translate(-47.757 -25.017)"/>
                <path id="prefix__패스_1673" d="M112.659 156.81v.166c-.331.91-4.3.083-8.359-1.076l1.159-1.986.828-1.49.745-1.324a7.276 7.276 0 0 1 .828.5c4.219 2.81 4.716 4.134 4.799 5.21z" class="prefix__cls-6" data-name="패스 1673" transform="translate(-50.068 -26.052)"/>
                <g id="prefix__그룹_1613" data-name="그룹 1613" transform="translate(87.253 31.684)">
                    <path id="prefix__패스_1674" d="M146.269 39.373c-.083.579-.745.579-1.076.5s-.993-.248-.993-.828c0-.5.414-.828 1.076-.745.662.163 1.076.494.993 1.073z" data-name="패스 1674" transform="translate(-144.2 -38.285)" style="fill:#ff9b99"/>
                </g>
                <g id="prefix__그룹_1614" data-name="그룹 1614" transform="translate(95.691 35.563)">
                    <path id="prefix__패스_1675" d="M158.868 45.312c-.248 1.159-1.655 1.241-2.317 1.076-.662-.083-2.234-.579-2.152-1.821 0-.993.828-1.738 2.317-1.572 1.407.248 2.318 1.159 2.152 2.317z" class="prefix__cls-11" data-name="패스 1675" transform="translate(-154.396 -42.972)"/>
                </g>
                <g id="prefix__그룹_1615" data-name="그룹 1615" transform="translate(77.653 30.49)">
                    <path id="prefix__패스_1676" d="M136.986 39.042c-.248 1.159-1.655 1.159-2.234 1.076-.662-.083-2.152-.5-2.152-1.738 0-.993.828-1.738 2.234-1.49 1.49.165 2.4.993 2.152 2.152z" class="prefix__cls-11" data-name="패스 1676" transform="translate(-132.6 -36.842)"/>
                </g>
                <g id="prefix__그룹_1616" data-name="그룹 1616" transform="translate(82.044 26.897)">
                    <path id="prefix__패스_1677" d="M139.8 32.5h-.083c-1.159 0-1.572 1.407-1.738 1.986s-.166 1.986.993 2.317c.165 0 .248.083.414.083.91 0 1.572-.745 1.821-2.069a1.962 1.962 0 0 0-.331-1.738 1.415 1.415 0 0 0-1.076-.579z" data-name="패스 1677" transform="translate(-137.905 -32.5)"/>
                    <path id="prefix__패스_1678" d="M155.277 37.379a1.415 1.415 0 0 0-1.077-.579h-.083c-1.159 0-1.655 1.572-1.738 1.986-.166.579-.248 1.986.993 2.317.166 0 .248.083.414.083.91 0 1.572-.745 1.821-2.069a3.057 3.057 0 0 0-.33-1.738z" data-name="패스 1678" transform="translate(-140.385 -33.241)"/>
                </g>
                <g id="prefix__그룹_1617" data-name="그룹 1617" transform="translate(33.046 81.402)">
                    <path id="prefix__패스_1679" d="M105.514 99.8c-5.214 1.407-8.938 3.393-11.917 6.372-6.207 6.124-9.434 11.917-13.49 19.117l-.083.083a.625.625 0 0 1-.579.331.5.5 0 0 1-.331-.083h-.083a.666.666 0 0 1-.248-.91l.083-.083c4.134-7.365 7.365-13.158 13.734-19.448 3.228-3.228 7.117-5.3 12.579-6.786a.644.644 0 0 1 .662.166c.083.083.166.248.248.331a.835.835 0 0 1-.575.91z" data-name="패스 1679" transform="translate(-78.7 -98.361)" style="fill:#97dcff"/>
                </g>
                <g id="prefix__그룹_1618" data-name="그룹 1618" transform="translate(67.888 114.108)">
                    <path id="prefix__패스_1680" d="M198.51 143.938l-77.71 24.993a42.413 42.413 0 0 1 5.214-9.434 50.282 50.282 0 0 1 10.428-10.759 5.132 5.132 0 0 0 1.821 1.407 7.54 7.54 0 0 0 3.393.662 14 14 0 0 0 4.717-.91 11.726 11.726 0 0 0 1.49-.662c3.807-1.9 5.462-5.048 5.462-8.028v-.745a67.7 67.7 0 0 1 28.055-1.9c10.675 1.652 17.13 5.376 17.13 5.376z" class="prefix__cls-2" data-name="패스 1680" transform="translate(-120.8 -137.88)"/>
                </g>
                <g id="prefix__그룹_1619" data-name="그룹 1619" transform="translate(77.385 111.228)">
                    <path id="prefix__패스_1681" d="M155.22 139.862v-.248a.5.5 0 0 0-.083-.331.3.3 0 0 0-.083-.248v-.083a1.534 1.534 0 0 0-.166-.579v-.083c0-.083-.083-.166-.083-.331 0-.083-.083-.248-.083-.331a5.135 5.135 0 0 0-2.979-2.731 7.29 7.29 0 0 0-2.731-.5 12.827 12.827 0 0 0-5.793 1.49 6.493 6.493 0 0 0-1.49.91 11.928 11.928 0 0 0-3.972 4.221c-.083 0-.248.083-.331.083-.5.166-1.159.414-1.738.662-.828.248-1.572.579-2.234.828a2.207 2.207 0 0 0-1.076 2.648c.165.579.993 2.483 4.552 1.986.331-.083.579-.083.91-.166a8.721 8.721 0 0 0 .579.91 5.132 5.132 0 0 0 1.821 1.407 7.54 7.54 0 0 0 3.393.662 14 14 0 0 0 4.717-.91 11.724 11.724 0 0 0 1.49-.662c3.807-1.9 5.462-5.048 5.462-8.028a1.615 1.615 0 0 0-.082-.576zm-5.876 7.7c-.745.331-1.49.662-2.234.91a9.7 9.7 0 0 1-6.124.083 4 4 0 0 1-1.655-1.159 3.887 3.887 0 0 1-.5-.745c-.083-.083-.083-.166-.166-.331l-.083-.083-.248-.5-.5.248a4.744 4.744 0 0 1-1.159.331c-1.821.248-3.062-.166-3.31-1.159a1.17 1.17 0 0 1 .414-1.324c.579-.248 1.324-.5 2.152-.828.579-.248 1.241-.414 1.821-.662h.083a.5.5 0 0 1 .331-.083l.248-.083.083-.248c0-.083.083-.166.166-.248a8.537 8.537 0 0 1 2.566-2.979 13.382 13.382 0 0 1 2.4-1.572 12.168 12.168 0 0 1 4.8-1.407 6.3 6.3 0 0 1 2.814.414 3.648 3.648 0 0 1 2.317 2.069 8.4 8.4 0 0 1 .5 2.069c.25 2.566-1.16 5.546-4.716 7.284z" class="prefix__cls-4" data-name="패스 1681" transform="translate(-132.276 -134.4)"/>
                </g>
                <g id="prefix__그룹_1620" data-name="그룹 1620" transform="translate(98.807 87.062)">
                    <path id="prefix__패스_1682" d="M176.317 106.607a113.648 113.648 0 0 0-16.966 12.414 1.176 1.176 0 0 1-.5.166.59.59 0 0 1-.5-.248l-.083-.083a.753.753 0 0 1 .083-.91 131.494 131.494 0 0 1 11.5-9.021c3.393-2.317 5.628-3.559 5.628-3.641a.79.79 0 0 1 .993.248.7.7 0 0 1-.155 1.075z" class="prefix__cls-9" data-name="패스 1682" transform="translate(-158.161 -105.2)"/>
                </g>
                <g id="prefix__그룹_1621" data-name="그룹 1621" transform="translate(67.851 108.046)">
                    <path id="prefix__패스_1683" d="M129.068 131.668l-1.076 1.986-5.959 10.924a.625.625 0 0 1-.579.331.5.5 0 0 1-.331-.083.676.676 0 0 1-.248-.993l2.9-5.3 4.138-7.614a.676.676 0 0 1 .993-.248.88.88 0 0 1 .162.997z" class="prefix__cls-6" data-name="패스 1683" transform="translate(-120.756 -130.556)"/>
                </g>
                <g id="prefix__그룹_1622" data-name="그룹 1622" transform="translate(72.632 1.177)">
                    <path id="prefix__패스_1684" d="M187.5 26.894a11.412 11.412 0 0 1-8.276-1.076 50.508 50.508 0 0 1-.248 8.524c-1.407 13.49.083 17.214 5.048 21.683 1.241 1.076.579 2.979-.993 3.807a14 14 0 0 1-6.538 1.821 16.783 16.783 0 0 0-6.041-4.3 15.1 15.1 0 0 0-7.117-1.159l-1.159-3.641a2.216 2.216 0 0 0-2.566-1.49l-1.241.331-1.241-4.634a.855.855 0 0 1 .828-1.076 9.644 9.644 0 0 0 5.545-1.986c3.724-3.062 2.9-10.179-1.572-9.6-4.138-1.324-10.593-9.517-12.828-14.814a1.03 1.03 0 0 0-1.49-.5 93.075 93.075 0 0 1-15.476 5.793 15.837 15.837 0 0 0-2.152 8.11l-3.31-3.641a30.889 30.889 0 0 1 .745-10.345c1.986-7.862 5.71-12.91 12.166-15.724a17.9 17.9 0 0 1 15.807.579 19.94 19.94 0 0 1 16.466 4.634 2.892 2.892 0 0 0-.662 1.821 2.786 2.786 0 0 0 1.076 2.234 2.975 2.975 0 0 0 1.49.579 2.727 2.727 0 0 0-.662 1.821 2.755 2.755 0 0 0 2.731 2.731 2.666 2.666 0 0 0 1.655-.579 2.786 2.786 0 0 0 1.076-2.234 2.685 2.685 0 0 0-2.648-2.731 2.727 2.727 0 0 0 .662-1.821 2.653 2.653 0 0 0-1.407-2.4 8.166 8.166 0 0 1 2.731-.828c5.048-.5 9.186 3.31 7.862 11.917a7.474 7.474 0 0 0 2.152 6.538.937.937 0 0 1-.413 1.656z" data-name="패스 1684" transform="translate(-126.533 -1.422)"/>
                </g>
                <g id="prefix__그룹_1623" data-name="그룹 1623" transform="translate(117.294 7.034)">
                    <path id="prefix__패스_1685" d="M186.045 11.231a2.892 2.892 0 0 1-.662 1.821h-.165a2.291 2.291 0 0 0-.745.083 3.193 3.193 0 0 0-1.407.91 2.379 2.379 0 0 1-1.49-.579 2.786 2.786 0 0 1-1.076-2.234 2.727 2.727 0 0 1 .662-1.821 2.69 2.69 0 0 1 2.069-.91 2.428 2.428 0 0 1 1.324.331 2.763 2.763 0 0 1 1.49 2.399z" class="prefix__cls-2" data-name="패스 1685" transform="translate(-180.5 -8.5)"/>
                </g>
                <g id="prefix__그룹_1624" data-name="그룹 1624" transform="translate(119.363 11.586)">
                    <path id="prefix__패스_1686" d="M188.462 16.731a2.786 2.786 0 0 1-1.076 2.234 3.08 3.08 0 0 1-1.655.579 2.755 2.755 0 0 1-2.731-2.73 2.892 2.892 0 0 1 .662-1.821 2.788 2.788 0 0 1 1.407-.91 2.291 2.291 0 0 1 .745-.083h.166a2.717 2.717 0 0 1 2.482 2.731z" class="prefix__cls-7" data-name="패스 1686" transform="translate(-183 -14)"/>
                </g>
                <g id="prefix__그룹_1625" data-name="그룹 1625" transform="translate(24.007 131.311)">
                    <path id="prefix__패스_1687" d="M95.107 167.8c-.331.745-8.607-1.655-13.49-3.145-4.634-1.407-14.317-3.972-13.821-5.71.414-1.324 10.841 2.483 14.814 3.89 3.145 1.073 12.91 4.135 12.497 4.965z" class="prefix__cls-8" data-name="패스 1687" transform="translate(-67.778 -158.667)"/>
                </g>
                <g id="prefix__그룹_1626" data-name="그룹 1626" transform="translate(78.428 112.531)">
                    <path id="prefix__패스_1688" d="M149.561 147.83c-.745.331-1.49.662-2.234.91a9.7 9.7 0 0 1-6.124.083 4 4 0 0 1-1.655-1.159 3.887 3.887 0 0 1-.5-.745c-.083-.083-.083-.166-.165-.331l-.083-.083-.248-.5-.5.248a4.744 4.744 0 0 1-1.159.331c-1.821.248-3.062-.166-3.31-1.159a1.17 1.17 0 0 1 .414-1.324c.579-.248 1.324-.5 2.152-.828.579-.248 1.241-.414 1.821-.662h.083a.5.5 0 0 1 .331-.083l.248-.083.083-.248c0-.083.083-.166.166-.248a8.537 8.537 0 0 1 2.566-2.979 13.382 13.382 0 0 1 2.4-1.572 12.168 12.168 0 0 1 4.8-1.407 6.3 6.3 0 0 1 2.814.414 3.648 3.648 0 0 1 2.317 2.069 8.4 8.4 0 0 1 .5 2.069c.249 2.57-1.158 5.549-4.717 7.287z" class="prefix__cls-3" data-name="패스 1688" transform="translate(-133.536 -135.975)"/>
                </g>
                <g id="prefix__그룹_1627" data-name="그룹 1627" transform="translate(87.832 47.14)">
                    <path id="prefix__패스_1689" d="M155 57.738c-.083.083-1.821 2.814-6.786 3.062h-1.159l-.5-1.738a2.177 2.177 0 0 0-1.241-1.324c-.083-.083-.248-.083-.414-.166a29.457 29.457 0 0 0 9.434-.579.644.644 0 0 1 .662.166c.166.165.083.414.004.579z" class="prefix__cls-4" data-name="패스 1689" transform="translate(-144.9 -56.961)"/>
                </g>
                <g id="prefix__그룹_1628" data-name="그룹 1628" transform="translate(84.026 33.683)">
                    <path id="prefix__패스_1690" d="M147.831 43.845a3.244 3.244 0 0 1-2.317 1.324A5.689 5.689 0 0 1 143.2 45a2.565 2.565 0 0 1-1.076-.5 3.928 3.928 0 0 1-1.572-1.986 4.364 4.364 0 0 1-.248-.993.787.787 0 0 1 1.572-.083 2.684 2.684 0 0 0 1.738 2.069 2.886 2.886 0 0 0 2.979-.579.77.77 0 0 1 1.241.91z" class="prefix__cls-7" data-name="패스 1690" transform="translate(-140.3 -40.7)"/>
                </g>
            </g>
        </g>
    </g>
</svg>
