<svg xmlns="http://www.w3.org/2000/svg" id="prefix__main-illustration" width="590" height="525" viewBox="0 0 590 525">
    <defs>
        <clipPath id="prefix__clip-path">
            <path id="prefix__사각형_306" d="M0 0H590V525H0z" data-name="사각형 306"/>
        </clipPath>
        <style>
            .prefix__cls-2{fill:#fff}.prefix__cls-3{opacity:.5}.prefix__cls-5{fill:#f5503d}.prefix__cls-6{fill:none}.prefix__cls-8{fill:#ffeae6}.prefix__cls-9{fill:#ffb4ae}.prefix__cls-10{fill:#ff9b99}.prefix__cls-11{fill:#ffc3c0}.prefix__cls-12{fill:#45a4f6}.prefix__cls-13{fill:#ff928a}.prefix__cls-14{fill:#dcdcdc}.prefix__cls-15{fill:#2489d3}.prefix__cls-16{fill:#ce414b}
        </style>
    </defs>
    <g id="prefix__그룹_1258" data-name="그룹 1258">
        <g id="prefix__그룹_1140" data-name="그룹 1140">
            <path id="prefix__패스_1128" d="M419.8 76.4a2.106 2.106 0 0 1-2-1.6L414 57.3l-4.1 3.4a1.877 1.877 0 0 1-1.9.3 1.828 1.828 0 0 1-1.3-1.5L402.9 42l-4.1 3.4a1.877 1.877 0 0 1-1.9.3 1.828 1.828 0 0 1-1.3-1.5l-4.5-20.7a2 2 0 1 1 3.9-.9l3.8 17.5 4.1-3.4a1.877 1.877 0 0 1 1.9-.3 1.828 1.828 0 0 1 1.3 1.5l3.8 17.5L414 52a1.877 1.877 0 0 1 1.9-.3 1.828 1.828 0 0 1 1.3 1.5l4.5 20.7a2.122 2.122 0 0 1-1.5 2.4.6.6 0 0 1-.4.1z" class="prefix__cls-2" data-name="패스 1128"/>
        </g>
        <g id="prefix__그룹_1141" class="prefix__cls-3" data-name="그룹 1141">
            <path id="prefix__패스_1129" d="M429.6 61.2h-.2a2.017 2.017 0 0 1-1.8-2.2l2-17.8-4.9 1.9a2.091 2.091 0 0 1-1.9-.3 2.055 2.055 0 0 1-.8-1.8l2-17.8-4.9 1.9a2.091 2.091 0 0 1-1.9-.3 2.055 2.055 0 0 1-.8-1.8l2.4-21.1a2.01 2.01 0 1 1 4 .4l-2 17.8 4.9-1.9a2.142 2.142 0 0 1 1.9.3 2.055 2.055 0 0 1 .8 1.8l-2 17.8 4.9-1.9a2.142 2.142 0 0 1 1.9.3 2.055 2.055 0 0 1 .8 1.8l-2.4 21.1a2.127 2.127 0 0 1-2 1.8z" class="prefix__cls-2" data-name="패스 1129"/>
        </g>
        <g id="prefix__그룹_1142" data-name="그룹 1142">
            <circle id="prefix__타원_21" cx="3.9" cy="3.9" r="3.9" class="prefix__cls-2" data-name="타원 21" transform="translate(467.7 59.1)"/>
        </g>
        <g id="prefix__그룹_1143" data-name="그룹 1143">
            <path id="prefix__패스_1130" d="M478.8 27a.76.76 0 0 0 .8-.6.876.876 0 0 0-.5-1c-1.6-.6-3.2-1.1-4.8-1.6-.5-.1-1-.3-1.5-.4a2.21 2.21 0 0 1-1.6-2.5c.1-.5.2-1 .3-1.6a44.294 44.294 0 0 0 .6-5.1.76.76 0 0 0-.6-.8.877.877 0 0 0-1 .5c-.6 1.6-1.1 3.2-1.6 4.8-.1.5-.3.9-.4 1.4a2.471 2.471 0 0 1-2.8 1.8 6.752 6.752 0 0 0-1.4-.2 44.29 44.29 0 0 0-5.1-.6.76.76 0 0 0-.8.6.876.876 0 0 0 .5 1c1.6.6 3.2 1.1 4.8 1.6l1.2.3a2.731 2.731 0 0 1 1.9 3c-.1.4-.1.8-.2 1.2a44.294 44.294 0 0 0-.6 5.1.76.76 0 0 0 .6.8.877.877 0 0 0 1-.5c.6-1.6 1.1-3.2 1.6-4.8.1-.5.3-1 .4-1.5a2.3 2.3 0 0 1 2.6-1.7l1.5.3c1.7.2 3.4.4 5.1.5z" class="prefix__cls-2" data-name="패스 1130"/>
        </g>
        <g id="prefix__그룹_1149" class="prefix__cls-3" data-name="그룹 1149">
            <g id="prefix__그룹_1148" data-name="그룹 1148">
                <g id="prefix__그룹_1144" data-name="그룹 1144">
                    <path id="prefix__패스_1131" d="M534.2 258.8l7.4 13.4-15.5 7.4z" class="prefix__cls-2" data-name="패스 1131"/>
                </g>
                <g id="prefix__그룹_1145" data-name="그룹 1145">
                    <path id="prefix__패스_1132" d="M526.7 281.4l15.8-7.5 3.4 6.2c.1.3.4.4.7.5h.5l6.7-2.3 6.5 16.3z" class="prefix__cls-2" data-name="패스 1132"/>
                </g>
                <g id="prefix__그룹_1146" data-name="그룹 1146">
                    <path id="prefix__패스_1133" d="M536.2 258.3l32.8 12.9-14.9 5.1h-.1l-6.8 2.3z" class="prefix__cls-2" data-name="패스 1133"/>
                </g>
                <g id="prefix__그룹_1147" data-name="그룹 1147">
                    <path id="prefix__패스_1134" d="M555.6 277.8l14.6-5-8.3 21z" class="prefix__cls-2" data-name="패스 1134"/>
                </g>
            </g>
        </g>
        <g id="prefix__그룹_1156" data-name="그룹 1156">
            <g id="prefix__그룹_1150" data-name="그룹 1150">
                <path id="prefix__패스_1135" d="M532.7 372.5L513 350.3l-5.1 21.5a3.185 3.185 0 0 0 .7 2.8l15.6 18.7a5.749 5.749 0 0 0 6.6 1.6l22.4-9.6a3.01 3.01 0 0 0 1.9-2.2l5.1-21.5z" data-name="패스 1135" style="fill:#ff8980"/>
            </g>
            <g id="prefix__그룹_1151" data-name="그룹 1151">
                <path id="prefix__패스_1136" d="M560.2 361.6l-19.7-22.2 12.6-5a3.29 3.29 0 0 1 3.6.9l15.9 17.9a2.381 2.381 0 0 1-.9 3.9z" class="prefix__cls-5" data-name="패스 1136"/>
            </g>
            <g id="prefix__그룹_1152" data-name="그룹 1152">
                <path id="prefix__패스_1137" d="M513 350.3l19.7 22.2-12.6 5a3.29 3.29 0 0 1-3.6-.9l-15.9-17.9a2.381 2.381 0 0 1 .9-3.9z" class="prefix__cls-5" data-name="패스 1137"/>
            </g>
            <g id="prefix__그룹_1153" data-name="그룹 1153">
                <path id="prefix__패스_1138" d="M513 350.3l27.6-10.9-9-10.1a3.29 3.29 0 0 0-3.6-.9l-22.2 8.8a2.359 2.359 0 0 0-.9 3.9z" class="prefix__cls-5" data-name="패스 1138"/>
            </g>
            <g id="prefix__그룹_1154" data-name="그룹 1154">
                <path id="prefix__패스_1139" d="M560.2 361.6l-27.6 10.9 9 10.1a3.29 3.29 0 0 0 3.6.9l22.2-8.8a2.359 2.359 0 0 0 .9-3.9z" class="prefix__cls-5" data-name="패스 1139"/>
            </g>
            <g id="prefix__그룹_1155" data-name="그룹 1155">
                <path id="prefix__패스_1140" d="M540.6 339.4L513 350.3l19.7 22.2 27.5-10.9z" class="prefix__cls-2" data-name="패스 1140"/>
            </g>
        </g>
        <g id="prefix__그룹_1157" data-name="그룹 1157">
            <circle id="prefix__타원_22" cx="3.7" cy="3.7" r="3.7" class="prefix__cls-2" data-name="타원 22" transform="translate(550.2 219.8)"/>
        </g>
        <g id="prefix__그룹_1158" data-name="그룹 1158">
            <path id="prefix__패스_1141" d="M542.9 189.1a1.514 1.514 0 0 0 .2-1.7 1.4 1.4 0 0 0-1.9-.4 68.69 68.69 0 0 0-7.4 4.4c-.8.5-1.5 1-2.3 1.5a3.781 3.781 0 0 1-5.1-.8c-.6-.7-1.1-1.4-1.7-2.1-1.8-2.2-3.7-4.4-5.8-6.5a1.514 1.514 0 0 0-1.7-.2 1.4 1.4 0 0 0-.4 1.9 68.673 68.673 0 0 0 4.4 7.4c.4.7.9 1.3 1.3 2a4.07 4.07 0 0 1-.9 5.5c-.6.5-1.3 1-1.9 1.5-2.2 1.8-4.4 3.7-6.5 5.8a1.514 1.514 0 0 0-.2 1.7 1.4 1.4 0 0 0 1.9.4 68.69 68.69 0 0 0 7.4-4.4c.6-.4 1.2-.8 1.7-1.1a4.512 4.512 0 0 1 6 .9c.4.5.9 1.1 1.3 1.6 1.8 2.2 3.7 4.4 5.8 6.5a1.514 1.514 0 0 0 1.7.2 1.4 1.4 0 0 0 .4-1.9 68.673 68.673 0 0 0-4.4-7.4c-.5-.7-.9-1.4-1.4-2.1a3.876 3.876 0 0 1 .8-5.2c.7-.5 1.3-1.1 2-1.6a65.548 65.548 0 0 0 6.7-5.9z" class="prefix__cls-2" data-name="패스 1141"/>
        </g>
        <g id="prefix__그룹_1160" class="prefix__cls-3" data-name="그룹 1160">
            <g id="prefix__그룹_1159" data-name="그룹 1159">
                <path id="prefix__패스_1142" d="M585.7 89.2a4.9 4.9 0 0 0 2.9-5.4 5.084 5.084 0 0 0-5.5-4 298.448 298.448 0 0 0-30.1 4.1c-3.1.6-6.3 1.2-9.4 1.8a13.237 13.237 0 0 1-15.4-9.4c-.8-3.1-1.7-6.1-2.6-9.2A286.489 286.489 0 0 0 515.5 38a4.784 4.784 0 0 0-5.4-2.9 5.15 5.15 0 0 0-4 5.5 298.556 298.556 0 0 0 4.2 30.1c.5 2.8 1 5.6 1.6 8.4a14.365 14.365 0 0 1-10.3 16.7c-2.7.8-5.5 1.6-8.2 2.4a286.485 286.485 0 0 0-29.1 10.1 4.784 4.784 0 0 0-2.9 5.4 5.15 5.15 0 0 0 5.5 4 298.566 298.566 0 0 0 30.1-4.2c2.4-.4 4.8-.9 7.2-1.4a15.588 15.588 0 0 1 18.1 11.1c.7 2.4 1.4 4.7 2.1 7.1a276.564 276.564 0 0 0 10.1 29 4.9 4.9 0 0 0 5.4 2.9 5.084 5.084 0 0 0 4-5.5 298.448 298.448 0 0 0-4.1-30.1c-.5-3-1.1-6-1.7-8.9a13.623 13.623 0 0 1 9.8-15.9c2.9-.8 5.8-1.7 8.7-2.5a286.49 286.49 0 0 0 29.1-10.1z" class="prefix__cls-2" data-name="패스 1142"/>
            </g>
        </g>
        <g id="prefix__그룹_1161" data-name="그룹 1161">
            <path id="prefix__패스_1143" d="M108.9 217.5a1.927 1.927 0 0 1-1.9-1.5l-4.2-18.1-4.4 4a1.913 1.913 0 0 1-1.9.4 2.118 2.118 0 0 1-1.4-1.5l-4.2-18.1-4.4 4a1.866 1.866 0 0 1-1.9.4 1.98 1.98 0 0 1-1.4-1.4l-5.4-20.9a1.965 1.965 0 0 1 3.8-1l4.6 17.7 4.5-4.1a1.913 1.913 0 0 1 1.9-.4 2.118 2.118 0 0 1 1.4 1.5l4.2 18.1 4.4-4a1.913 1.913 0 0 1 1.9-.4 2.118 2.118 0 0 1 1.4 1.5l5 21.5a1.986 1.986 0 0 1-1.5 2.4.507.507 0 0 0-.5-.1z" class="prefix__cls-2" data-name="패스 1143"/>
        </g>
        <g id="prefix__그룹_1162" data-name="그룹 1162">
            <path id="prefix__패스_1144" d="M87.4 210.3a2.088 2.088 0 0 1-1.6-.8l-9.4-11.9-2.2 4.8a1.878 1.878 0 0 1-1.6 1.1 2.055 2.055 0 0 1-1.8-.8l-8.9-12.6-2.2 4.6a1.878 1.878 0 0 1-1.6 1.1 2.055 2.055 0 0 1-1.8-.8l-10.8-15.5a2.011 2.011 0 1 1 3.3-2.3l8.9 12.6 2.2-4.6a1.878 1.878 0 0 1 1.6-1.1 2.055 2.055 0 0 1 1.8.8l8.9 12.6 2.2-4.6a1.878 1.878 0 0 1 1.6-1.1 1.986 1.986 0 0 1 1.8.7l11.4 14.4a2.031 2.031 0 0 1-.3 2.8 2.086 2.086 0 0 1-1.5.6z" class="prefix__cls-2" data-name="패스 1144"/>
        </g>
        <g id="prefix__그룹_1163" data-name="그룹 1163">
            <circle id="prefix__타원_23" cx="3.5" cy="3.5" r="3.5" class="prefix__cls-2" data-name="타원 23" transform="translate(183.2 176)"/>
        </g>
        <g id="prefix__그룹_1165" class="prefix__cls-3" data-name="그룹 1165">
            <g id="prefix__그룹_1164" data-name="그룹 1164">
                <path id="prefix__패스_1145" d="M229.7 118.4a1.513 1.513 0 0 0 .2-1.9 1.685 1.685 0 0 0-2.1-.5 86.082 86.082 0 0 0-8.3 4.9c-.8.5-1.7 1.1-2.5 1.7a4.1 4.1 0 0 1-5.6-.9 21.1 21.1 0 0 0-1.9-2.3 87.99 87.99 0 0 0-6.5-7.2 1.513 1.513 0 0 0-1.9-.2 1.685 1.685 0 0 0-.5 2.1 74.006 74.006 0 0 0 4.9 8.2c.5.7 1 1.5 1.5 2.2a4.625 4.625 0 0 1-.9 6.1c-.7.6-1.4 1.1-2.1 1.7a87.991 87.991 0 0 0-7.2 6.5 1.513 1.513 0 0 0-.2 1.9 1.685 1.685 0 0 0 2.1.5 74.006 74.006 0 0 0 8.2-4.9 21.411 21.411 0 0 0 1.9-1.3 4.967 4.967 0 0 1 6.6 1l1.5 1.8a87.991 87.991 0 0 0 6.5 7.2 1.513 1.513 0 0 0 1.9.2 1.685 1.685 0 0 0 .5-2.1 86.085 86.085 0 0 0-4.9-8.3c-.5-.8-1-1.6-1.6-2.4a4.246 4.246 0 0 1 .9-5.8c.7-.6 1.5-1.2 2.2-1.8a87.955 87.955 0 0 0 7.3-6.4z" class="prefix__cls-2" data-name="패스 1145"/>
            </g>
        </g>
        <g id="prefix__그룹_1167" class="prefix__cls-3" data-name="그룹 1167">
            <g id="prefix__그룹_1166" data-name="그룹 1166">
                <path id="prefix__패스_1146" d="M56.1 246a2.159 2.159 0 0 0 1.6-2.1 2.258 2.258 0 0 0-2.1-2.1 116.347 116.347 0 0 0-13.2-.3c-1.4 0-2.8.1-4.1.1a5.7 5.7 0 0 1-5.9-5.1c-.1-1.4-.3-2.7-.5-4.1-.6-4.4-1.3-8.8-2.3-13.1a2.159 2.159 0 0 0-2.1-1.6 2.258 2.258 0 0 0-2.1 2.1 116.344 116.344 0 0 0-.3 13.2c0 1.2.1 2.5.1 3.7a6.16 6.16 0 0 1-5.5 6.4c-1.2.1-2.4.3-3.7.4-4.4.6-8.8 1.3-13.1 2.3a2.159 2.159 0 0 0-1.6 2.1 2.258 2.258 0 0 0 2.1 2.1 116.347 116.347 0 0 0 13.2.3c1.1 0 2.1 0 3.2-.1a6.855 6.855 0 0 1 7 6c.1 1.1.3 2.1.4 3.2.6 4.4 1.3 8.8 2.3 13.1a2.159 2.159 0 0 0 2.1 1.6 2.258 2.258 0 0 0 2.1-2.1 116.343 116.343 0 0 0 .3-13.2c0-1.3-.1-2.6-.1-3.9a5.916 5.916 0 0 1 5.3-6.1c1.3-.1 2.6-.3 3.9-.5 4.3-.6 8.7-1.3 13-2.3z" class="prefix__cls-2" data-name="패스 1146"/>
            </g>
        </g>
        <g id="prefix__그룹_1168" data-name="그룹 1168">
            <path id="prefix__패스_1147" d="M102.8 270.2a1.02 1.02 0 0 0 1.2-.6 1.15 1.15 0 0 0-.5-1.4c-2-1.1-4-2.1-6.1-3-.6-.3-1.3-.6-2-.9a2.881 2.881 0 0 1-1.6-3.7c.2-.7.5-1.3.7-2q1.05-3.3 1.8-6.6a1.02 1.02 0 0 0-.6-1.2 1.15 1.15 0 0 0-1.4.5c-1.1 2-2.1 4-3 6.1-.3.6-.5 1.2-.8 1.7a3.236 3.236 0 0 1-4 1.8l-1.8-.6q-3.3-1.05-6.6-1.8a1.02 1.02 0 0 0-1.2.6 1.15 1.15 0 0 0 .5 1.4c2 1.1 4 2.1 6.1 3a10.092 10.092 0 0 1 1.5.7 3.408 3.408 0 0 1 1.9 4.3c-.2.5-.3 1-.5 1.6q-1.05 3.3-1.8 6.6a1.02 1.02 0 0 0 .6 1.2 1.15 1.15 0 0 0 1.4-.5c1.1-2 2.1-4 3-6.1.3-.6.5-1.2.8-1.9a3.045 3.045 0 0 1 3.8-1.7c.6.2 1.3.4 1.9.6a39.31 39.31 0 0 0 6.7 1.9z" class="prefix__cls-2" data-name="패스 1147"/>
        </g>
        <g id="prefix__그룹_1169" data-name="그룹 1169">
            <path id="prefix__패스_1148" d="M189.2 94.3a.666.666 0 0 0 .5-.7c0-.4-.3-.6-.7-.7a29.438 29.438 0 0 0-4.2 0 5.7 5.7 0 0 0-1.3.1 1.714 1.714 0 0 1-1.9-1.6c-.1-.4-.1-.9-.2-1.3a31.048 31.048 0 0 0-.8-4.2.666.666 0 0 0-.7-.5c-.4 0-.6.3-.7.7a29.436 29.436 0 0 0 0 4.2v1.2a1.925 1.925 0 0 1-1.8 2.1 5.019 5.019 0 0 0-1.2.2 31.049 31.049 0 0 0-4.2.8.666.666 0 0 0-.5.7c0 .4.3.6.7.7a29.438 29.438 0 0 0 4.2 0h1a2.26 2.26 0 0 1 2.3 1.9c0 .3.1.7.1 1a31.048 31.048 0 0 0 .8 4.2.666.666 0 0 0 .7.5c.4 0 .6-.3.7-.7a29.436 29.436 0 0 0 0-4.2 6.151 6.151 0 0 0-.1-1.3 1.883 1.883 0 0 1 1.7-2c.4-.1.8-.1 1.3-.2 1.6-.3 3-.6 4.3-.9z" class="prefix__cls-2" data-name="패스 1148"/>
        </g>
        <g id="prefix__그룹_1170" data-name="그룹 1170">
            <path id="prefix__패스_1149" d="M280.9 37.9a.569.569 0 0 0 .7-.4.63.63 0 0 0-.3-.8c-1.2-.6-2.4-1.2-3.6-1.7-.4-.2-.8-.3-1.2-.5a1.632 1.632 0 0 1-1-2.1 5.639 5.639 0 0 1 .4-1.2c.4-1.3.7-2.6 1-3.9a.569.569 0 0 0-.4-.7.63.63 0 0 0-.8.3c-.6 1.2-1.2 2.4-1.7 3.6-.1.3-.3.7-.4 1a1.912 1.912 0 0 1-2.3 1.1c-.4-.1-.7-.2-1.1-.3-1.3-.4-2.6-.7-3.9-1a.569.569 0 0 0-.7.4.63.63 0 0 0 .3.8c1.2.6 2.4 1.2 3.6 1.7a3.552 3.552 0 0 1 .9.4 2.059 2.059 0 0 1 1.2 2.5l-.3.9a27.435 27.435 0 0 0-.9 3.9.569.569 0 0 0 .4.7.63.63 0 0 0 .8-.3c.6-1.2 1.2-2.4 1.7-3.6a4.874 4.874 0 0 0 .4-1.1 1.845 1.845 0 0 1 2.2-1.1c.4.1.8.2 1.1.3a17.387 17.387 0 0 0 3.9 1.1z" class="prefix__cls-2" data-name="패스 1149"/>
        </g>
        <g id="prefix__그룹_1172" data-name="그룹 1172">
            <g id="prefix__그룹_1171" data-name="그룹 1171">
                <path id="prefix__패스_1150" d="M126.6 102a17.669 17.669 0 0 0-17.7 17.7 23.278 23.278 0 0 0 .6 5.3 122.957 122.957 0 0 0 13.6 32.8 4.124 4.124 0 0 0 7.1 0 122.957 122.957 0 0 0 13.6-32.8 50.094 50.094 0 0 0 .6-5.3 17.819 17.819 0 0 0-17.8-17.7zm0 26.6a8.8 8.8 0 1 1 8.8-8.8 8.749 8.749 0 0 1-8.8 8.8z" class="prefix__cls-2" data-name="패스 1150"/>
            </g>
        </g>
        <g id="prefix__그룹_1176" data-name="그룹 1176">
            <g id="prefix__그룹_1174" data-name="그룹 1174">
                <g id="prefix__그룹_1173" data-name="그룹 1173">
                    <path id="prefix__패스_1151" d="M302.6 179.6l-38.2-9.4a3.406 3.406 0 0 1-2.5-4.1l5.8-23.4a3.406 3.406 0 0 1 4.1-2.5l38.2 9.4a3.406 3.406 0 0 1 2.5 4.1l-5.8 23.4a3.288 3.288 0 0 1-4.1 2.5z" class="prefix__cls-2" data-name="패스 1151"/>
                </g>
            </g>
            <g id="prefix__그룹_1175" data-name="그룹 1175">
                <path id="prefix__패스_1152" d="M310 149.6l-38.2-9.4a3.36 3.36 0 0 0-4.1 2.5l-5.8 23.4a3.618 3.618 0 0 0 .6 2.9l10.8-7.7a2.89 2.89 0 0 1 4.2.9l3.2 5.4 13.2-9.4a2.319 2.319 0 0 1 3.5.7l10 15.2 5-20.2a3.348 3.348 0 0 0-2.4-4.3zm-3.2 6.4a2.413 2.413 0 1 1-1.8-2.9 2.493 2.493 0 0 1 1.8 2.9z" class="prefix__cls-6" data-name="패스 1152"/>
                <path id="prefix__패스_1153" d="M307.5 174l-.8 3.2a3.406 3.406 0 0 1-4.1 2.5l-38.2-9.4a3.63 3.63 0 0 1-1.9-1.3l10.8-7.7a2.89 2.89 0 0 1 4.2.9l3.2 5.4 13.2-9.4a2.319 2.319 0 0 1 3.5.7z" class="prefix__cls-5" data-name="패스 1153"/>
                <path id="prefix__패스_1154" d="M305 153a2.414 2.414 0 1 0 1.8 2.9 2.606 2.606 0 0 0-1.8-2.9z" class="prefix__cls-5" data-name="패스 1154"/>
                <path id="prefix__패스_1155" d="M315.1 144.3l-45.4-11.1a6.107 6.107 0 0 0-7.4 4.5l-7.5 30.6a6.107 6.107 0 0 0 4.5 7.4l45.4 11.2a6.107 6.107 0 0 0 7.4-4.5l7.5-30.5a6.221 6.221 0 0 0-4.5-7.6zm-2.6 9.4l-5 20.2-.8 3.2a3.406 3.406 0 0 1-4.1 2.5l-38.2-9.4a3.63 3.63 0 0 1-1.9-1.3 3.277 3.277 0 0 1-.6-2.9l5.8-23.4a3.406 3.406 0 0 1 4.1-2.5l38.2 9.4a3.51 3.51 0 0 1 2.5 4.2z" data-name="패스 1155" style="fill:#ff908a"/>
            </g>
        </g>
        <g id="prefix__그룹_1178" class="prefix__cls-3" data-name="그룹 1178">
            <g id="prefix__그룹_1177" data-name="그룹 1177">
                <circle id="prefix__타원_24" cx="4.4" cy="4.4" r="4.4" class="prefix__cls-2" data-name="타원 24" transform="translate(53.9 302.1)"/>
            </g>
        </g>
        <g id="prefix__그룹_1210" data-name="그룹 1210">
            <g id="prefix__그룹_1179" data-name="그룹 1179">
                <path id="prefix__패스_1156" d="M367.2 76.3c-1.3 2.1-2.8 7.5-3.6 10.5-.2 0-.3.1-.5.1a72.526 72.526 0 0 0-22.3 12c-.1.1-.2.1-.2.2-3.6-2-7.1-6.5-6-11.7 1.5-6.6 7-9.4 11.4-10.5a7.5 7.5 0 0 1 2-.2c.8 0 1.5 0 2-.7.5-.8.1-1.9-1.1-4.2-2.6-5.3-2.6-8.8-1.2-9.6a1.689 1.689 0 0 1 1-.3 1.268 1.268 0 0 1 .6.1c1.3.4 2.9 2.1 4.3 4.7.5.9.8 1.6 1.2 2.2a54.508 54.508 0 0 0 3.4 5.8 2.654 2.654 0 0 0 1.9 1.1 2.7 2.7 0 0 0 2.1-.7 8.745 8.745 0 0 0 .8-1 5.492 5.492 0 0 1 1.7-1.7c1.2-.6 2.3-.6 2.9.1.5.8.6 2.1-.4 3.8z" class="prefix__cls-8" data-name="패스 1156"/>
            </g>
            <g id="prefix__그룹_1180" data-name="그룹 1180">
                <path id="prefix__패스_1157" d="M369 77.3c-1 1.6-2.2 5.6-3 8.8-.4.1-.7.2-1.1.3a4.874 4.874 0 0 0-1.1.4c.8-3 2.3-8.4 3.6-10.5 1-1.6.9-3 .3-3.7s-1.7-.7-2.9-.1a3.984 3.984 0 0 0-1.7 1.7 7.008 7.008 0 0 1-.8 1 2.582 2.582 0 0 1-2.1.7 2.865 2.865 0 0 1-1.9-1.1 54.507 54.507 0 0 1-3.4-5.8 16.367 16.367 0 0 0-1.2-2.2c-1.4-2.6-3-4.3-4.3-4.7-.2 0-.4-.1-.6-.1a2.236 2.236 0 0 0-1 .3c-1.4.8-1.4 4.3 1.2 9.6 1.1 2.3 1.6 3.4 1.1 4.2-.4.7-1.2.7-2 .7a7.5 7.5 0 0 0-2 .2c-4.4 1.2-10 3.9-11.4 10.5-1.1 5.2 2.4 9.7 6 11.7a43125233379415.66 43125233379415.66 0 0 0-1.6 1.4c-4-2.5-7.6-7.6-6.3-13.4 1.7-7.6 7.9-10.7 12.9-12a8.354 8.354 0 0 1 2.5-.3h.1c-.2-.4-.5-1.1-.9-2-3-6-3.1-10.7-.5-12.2a4.191 4.191 0 0 1 3.1-.4c1.9.5 3.8 2.5 5.5 5.7.5.9.8 1.6 1.2 2.3a43.392 43.392 0 0 0 3.3 5.6c.1.2.3.2.4.3a.646.646 0 0 0 .5-.2 4.233 4.233 0 0 0 .5-.7 7.087 7.087 0 0 1 2.5-2.3 4.437 4.437 0 0 1 5.3.5c1.2 1.2 1 3.6-.2 5.8z" class="prefix__cls-9" data-name="패스 1157"/>
            </g>
            <g id="prefix__그룹_1181" data-name="그룹 1181">
                <path id="prefix__패스_1158" d="M439.1 304.3l-.1.1c-.2.2-.6.5-1.1 1a4.264 4.264 0 0 1 1.2-1.1z" class="prefix__cls-5" data-name="패스 1158"/>
            </g>
            <g id="prefix__그룹_1182" data-name="그룹 1182">
                <path id="prefix__패스_1159" d="M405.6 142.9c-1.1 1.8-3.5 1.1-4.6.5-1-.6-3.4-2.2-2.6-4.3.6-1.6 2.5-2.4 4.8-1.2a3.978 3.978 0 0 1 1.6 1.2l1.1 1.9a2.588 2.588 0 0 1-.3 1.9z" class="prefix__cls-2" data-name="패스 1159"/>
                <path id="prefix__패스_1160" d="M423.2 201.4a1.924 1.924 0 1 1-1.6-2.2 1.982 1.982 0 0 1 1.6 2.2z" class="prefix__cls-2" data-name="패스 1160"/>
            </g>
            <g id="prefix__그룹_1183" data-name="그룹 1183">
                <path id="prefix__패스_1161" d="M444.8 167.3a1 1 0 0 0-1.4 1.1v6.6c-1.4 3.9-5 11.3-11.9 12.8a12.823 12.823 0 0 1-4.8.1c-7.6-1.2-6.1-6.9-4.4-10.2a.9.9 0 0 0 .1-.5s-.2-1.5-.5-3a8.718 8.718 0 0 0 2.5.4c7.1.3 10-3.4 10.2-3.5a.783.783 0 0 0 .1-.8.806.806 0 0 0-.9-.3 49.576 49.576 0 0 1-12-.1 15.692 15.692 0 0 1-1.6-.3.6.6 0 0 0-.4-.1c-9.3-1.8-20.7-9.1-22.3-23.7a28.047 28.047 0 0 1 1.1-12.5c.5-.9 1.1-1.8 1.7-2.7 4.3-6.5 10.3-12.4 18.7-15.4a15.144 15.144 0 0 0-3.1 6.5 1.157 1.157 0 0 0 1.9 1.1 20.262 20.262 0 0 1 5.9-2.9c.6-.2.8.4.6.6a10.123 10.123 0 0 0-2.5 5.2 1.478 1.478 0 0 0 2.6 1.1 15.559 15.559 0 0 1 5.5-3.9.509.509 0 0 1 .7.6 20.238 20.238 0 0 0-1.3 6.5c.1 1.1 1.2 1.5 2.1.5a57.214 57.214 0 0 1 4.7-4.3 70.545 70.545 0 0 0 7.7 18.4 1.381 1.381 0 0 0 .3.4l.6.9a79.6 79.6 0 0 0 4.5 6.8 3.33 3.33 0 0 0 2.9 1.3 5.9 5.9 0 0 1 5.7 3.8c1.7 5.1-5.2 14.2-13 9.5z" class="prefix__cls-8" data-name="패스 1161"/>
            </g>
            <g id="prefix__그룹_1184" data-name="그룹 1184">
                <path id="prefix__패스_1162" d="M453 162.7a4 4 0 0 1-5.3 1.2.519.519 0 0 1-.1-.9 5.3 5.3 0 0 0 2.7-3.4 1.681 1.681 0 0 1 3.1-.7 3.239 3.239 0 0 1-.4 3.8z" class="prefix__cls-9" data-name="패스 1162"/>
            </g>
            <g id="prefix__그룹_1185" data-name="그룹 1185">
                <path id="prefix__패스_1163" d="M418.4 144c-.4.9-1.6.7-2.1.5s-1.7-.8-1.5-1.9c.2-.8 1-1.3 2.2-.9 1.1.5 1.8 1.4 1.4 2.3z" class="prefix__cls-10" data-name="패스 1163"/>
            </g>
            <g id="prefix__그룹_1186" data-name="그룹 1186">
                <path id="prefix__패스_1164" d="M435.4 157.6c-.9 2-3.5 1.6-4.6 1.1s-3.7-1.8-3.2-4c.4-1.7 2.2-2.8 4.7-1.9 2.7.9 3.9 2.8 3.1 4.8z" class="prefix__cls-11" data-name="패스 1164"/>
            </g>
            <g id="prefix__그룹_1187" data-name="그룹 1187">
                <path id="prefix__패스_1165" d="M405.6 142.9c-1.1 1.8-3.5 1.1-4.6.5-1-.6-3.4-2.2-2.6-4.3.6-1.6 2.5-2.4 4.8-1.2a3.978 3.978 0 0 1 1.6 1.2 3.768 3.768 0 0 1 1.1 1.9 2.588 2.588 0 0 1-.3 1.9z" class="prefix__cls-11" data-name="패스 1165"/>
            </g>
            <g id="prefix__그룹_1188" data-name="그룹 1188">
                <path id="prefix__패스_1166" d="M412.1 136.5c-1 2.3-2.8 3.5-4.6 2.6s-1.3-3.3-.8-4.3 1.8-3.4 3.9-2.8c1.5.4 2.5 2.1 1.5 4.5z" data-name="패스 1166"/>
            </g>
            <g id="prefix__그룹_1189" data-name="그룹 1189">
                <path id="prefix__패스_1167" d="M432 147.3c-1 2.3-2.8 3.5-4.6 2.6s-1.3-3.3-.8-4.3 1.8-3.4 3.9-2.8c1.5.5 2.5 2.2 1.5 4.5z" data-name="패스 1167"/>
            </g>
            <g id="prefix__그룹_1190" data-name="그룹 1190">
                <path id="prefix__패스_1168" d="M423.2 201.4a1.924 1.924 0 1 1-1.6-2.2 1.982 1.982 0 0 1 1.6 2.2z" class="prefix__cls-2" data-name="패스 1168"/>
                <path id="prefix__패스_1169" d="M417.6 222.8a1.924 1.924 0 1 1-1.6-2.2 2.168 2.168 0 0 1 1.6 2.2z" class="prefix__cls-2" data-name="패스 1169"/>
                <path id="prefix__패스_1170" d="M420.4 212.1a1.924 1.924 0 0 1-3.8-.6 1.812 1.812 0 0 1 2.2-1.6 1.9 1.9 0 0 1 1.6 2.2z" class="prefix__cls-2" data-name="패스 1170"/>
                <path id="prefix__패스_1171" d="M458.4 296.9a.1.1 0 0 1-.1-.1z" class="prefix__cls-2" data-name="패스 1171"/>
                <path id="prefix__패스_1172" d="M473.2 248.8c-.1.5-.2 1.1-.3 1.6l-24 18.3a1.077 1.077 0 0 1-.8.2 1.231 1.231 0 0 1-1-.5 1.388 1.388 0 0 1 .2-1.8l24-18.3a1.377 1.377 0 0 1 1.8.2c.1.2.1.2.1.3z" class="prefix__cls-2" data-name="패스 1172"/>
            </g>
            <g id="prefix__그룹_1191" data-name="그룹 1191">
                <path id="prefix__패스_1173" d="M434.5 171.1c-.1.2-3 3.8-10.2 3.5a9.348 9.348 0 0 1-2.5-.4c-.2-1.4-.5-2.7-.5-3a2.2 2.2 0 0 0-1.2-1.7 15.692 15.692 0 0 0 1.6.3 49.4 49.4 0 0 0 12 .1c.4 0 .7 0 .9.3.2.4 0 .6-.1.9z" class="prefix__cls-9" data-name="패스 1173"/>
            </g>
            <g id="prefix__그룹_1192" data-name="그룹 1192">
                <path id="prefix__패스_1174" d="M422.4 177.2a.721.721 0 0 0-1.1-.4 5.5 5.5 0 0 0-.9.7c-.1-.6-.9-5.4-1-5.9a.349.349 0 0 0-.1-.2c-9.9-1.9-22.2-9.7-23.9-25.4a29.878 29.878 0 0 1 1.1-12.9c0 .2.1.3.1.4a.961.961 0 0 0 .9.6 1.02 1.02 0 0 0 .8-.5c.1-.1.1-.2.2-.3a26.549 26.549 0 0 0-1.1 12.5c1.6 14.6 13 21.9 22.3 23.7.1 0 .3.1.4.1a2.2 2.2 0 0 1 1.2 1.7c0 .3.3 1.6.5 3 .3 1.4.6 2.9.6 2.9z" class="prefix__cls-11" data-name="패스 1174"/>
            </g>
            <g id="prefix__그룹_1193" data-name="그룹 1193">
                <path id="prefix__패스_1175" d="M481.9 143.6a28.675 28.675 0 0 1-11.3 14.9 53.055 53.055 0 0 1-14.7 6.7c1.8-2.2 2.5-5.1 1.7-7.3a5.986 5.986 0 0 0-5.7-3.8 3.185 3.185 0 0 1-2.9-1.4c-1.7-2.4-3.2-4.6-4.6-6.8l-.6-.9c-.1-.1-.2-.3-.3-.4a67.232 67.232 0 0 1-7.7-18.4 57.213 57.213 0 0 0-4.7 4.3c-.9 1-2.1.6-2.1-.5a17.869 17.869 0 0 1 1.3-6.5.509.509 0 0 0-.7-.6 15.559 15.559 0 0 0-5.5 3.9 1.485 1.485 0 0 1-2.6-1.1 10.123 10.123 0 0 1 2.5-5.2c.2-.2 0-.8-.6-.6a18.036 18.036 0 0 0-5.9 2.9 1.173 1.173 0 0 1-1.9-1.1 17.858 17.858 0 0 1 3.1-6.5c-8.3 3.1-14.3 9-18.7 15.4-.6.9-1.2 1.8-1.7 2.7-.1.1-.1.2-.2.3a1.02 1.02 0 0 1-.8.5.875.875 0 0 1-.9-.6c0-.1-.1-.3-.1-.4a25.262 25.262 0 0 1-.3-9.9 46.749 46.749 0 0 1 5.2-15.9c4.1-7.6 11-13.8 18.8-16.3 23.3-7.5 34.5 3.9 34.5 3.9a42.282 42.282 0 0 1 4.8.6c10.9 1.9 19.8 12.4 23 23.9 2.2 6.4 2.5 15.5-.4 24.2z" data-name="패스 1175"/>
            </g>
            <g id="prefix__그룹_1198" data-name="그룹 1198">
                <g id="prefix__그룹_1194" data-name="그룹 1194">
                    <path id="prefix__패스_1176" d="M445.9 185.7a28.766 28.766 0 0 1-1.9 7.8 26.248 26.248 0 0 1-5.2 8.1 2.892 2.892 0 0 1-3.8.1l-.6-.6-1.7-1.7-7.8-8-9.9 2.5-4.4 1.1a1.567 1.567 0 0 1-1.7-2.1 33.793 33.793 0 0 1 2.5-5.4 36.2 36.2 0 0 1 9-10c.3-.2.6-.5.9-.7a.743.743 0 0 1 1.1.4.9.9 0 0 1-.1.5c-1.7 3.4-3.2 9 4.4 10.2a12.7 12.7 0 0 0 4.8-.1c6.9-1.5 10.5-8.9 11.9-12.8 0-.1.1-.1.1-.2l.1-.1a.713.713 0 0 1 1.1.1c.1.1.1.2.2.3a30.264 30.264 0 0 1 1 10.6z" class="prefix__cls-12" data-name="패스 1176"/>
                </g>
                <g id="prefix__그룹_1195" data-name="그룹 1195">
                    <path id="prefix__패스_1177" d="M423.2 201.4a1.924 1.924 0 1 1-1.6-2.2 1.982 1.982 0 0 1 1.6 2.2z" class="prefix__cls-12" data-name="패스 1177"/>
                </g>
                <g id="prefix__그룹_1196" data-name="그룹 1196">
                    <path id="prefix__패스_1178" d="M420.4 212.1a1.924 1.924 0 0 1-3.8-.6 1.812 1.812 0 0 1 2.2-1.6 1.9 1.9 0 0 1 1.6 2.2z" class="prefix__cls-12" data-name="패스 1178"/>
                </g>
                <g id="prefix__그룹_1197" data-name="그룹 1197">
                    <path id="prefix__패스_1179" d="M417.6 222.8a1.924 1.924 0 1 1-1.6-2.2 2.168 2.168 0 0 1 1.6 2.2z" class="prefix__cls-12" data-name="패스 1179"/>
                </g>
            </g>
            <g id="prefix__그룹_1200" data-name="그룹 1200">
                <g id="prefix__그룹_1199" data-name="그룹 1199">
                    <path id="prefix__패스_1180" d="M450 317.8a40.886 40.886 0 0 0 13.3-14.3 20.154 20.154 0 0 1-2.5-1.6 68.921 68.921 0 0 1-10 10.7 11.318 11.318 0 0 1-1.3 1 7.608 7.608 0 0 1-1.9 1.2c-2.8 1.6-5.2 2.4-7 2.4a3.677 3.677 0 0 1-3.1-1.4 3.87 3.87 0 0 1-.3-3.3c-.3 0-.5.1-.8.1h-.4a3.717 3.717 0 0 1-2.6-1.5 3.121 3.121 0 0 1-.5-2.5 1.421 1.421 0 0 1 .2-.6 1.7 1.7 0 0 1-.7.1h-.5a3.289 3.289 0 0 1-2.4-1.6c-1.6-2.6.9-5.7 3.6-8.2.2-.2.5-.4.7-.6a.367.367 0 0 1-.3-.1 3.238 3.238 0 0 1-2-1.8c-1.5-3.1 1.2-5.8 4.4-8.2 1-.7 2-1.4 2.9-2l.3-.2a25.292 25.292 0 0 1 2.2-1.3c-9.6-7.6-18.9-15.5-24-20.4-14.1-13.6-26.5-28.8-38.8-37.1a48.562 48.562 0 0 0-5.3-3.1c-12.8-6.5-27.1-3.3-34.5 4-15.6 15.3-27.5 40.7-38.6 67.4 0 0 20.1 20.5 45.1 24.8l12.4-27.3c1.1-2.3 3.7-2.6 5.7-.5 3.1 3.3 12.6 15.5 25.6 24.3l15.8 106.6 58.7-1zm-16.1 7.7a43.777 43.777 0 0 1-14.1 2.1 44.889 44.889 0 0 1-24.4-7 1.8 1.8 0 0 1-.6-.9 1.077 1.077 0 0 1 .2-.8 1.188 1.188 0 0 1 1.7-.4c17.4 11.1 36.1 4.7 36.3 4.6a1.268 1.268 0 0 1 1.6.8c0 .2.1.3.1.5-.1.5-.3 1-.8 1.1z" class="prefix__cls-5" data-name="패스 1180"/>
                    <path id="prefix__패스_1181" d="M458.4 296.9a.1.1 0 0 1-.1-.1z" class="prefix__cls-5" data-name="패스 1181"/>
                </g>
            </g>
            <g id="prefix__그룹_1201" data-name="그룹 1201">
                <path id="prefix__패스_1182" d="M434.8 324.4a1.084 1.084 0 0 1-.8 1.1 43.777 43.777 0 0 1-14.1 2.1 44.889 44.889 0 0 1-24.4-7 1.8 1.8 0 0 1-.6-.9 1.077 1.077 0 0 1 .2-.8 1.188 1.188 0 0 1 1.7-.4c17.4 11.1 36.1 4.7 36.3 4.6a1.268 1.268 0 0 1 1.6.8c-.1.2.1.3.1.5z" class="prefix__cls-13" data-name="패스 1182"/>
            </g>
            <g id="prefix__그룹_1205" data-name="그룹 1205">
                <g id="prefix__그룹_1202" data-name="그룹 1202">
                    <path id="prefix__패스_1183" d="M458.2 296.8l.1.1z" class="prefix__cls-8" data-name="패스 1183"/>
                    <path id="prefix__패스_1184" d="M458.6 300.4a66.451 66.451 0 0 1-9.6 10.2l-.1.1a17.259 17.259 0 0 1-2.8 1.9c-3.4 1.9-6.2 2.6-6.8 1.7a.56.56 0 0 1-.1-.6c.3-1.9 3.8-4.9 5.9-6.3a1.374 1.374 0 0 0 .5-.8 1.232 1.232 0 0 0-.2-1 1.178 1.178 0 0 0-1.7-.3c-.3.2-1.3.9-2.5 1.9-.1 0-.2.1-.3.2-1 .9-3.4 2.7-4.8 2.6a1.02 1.02 0 0 1-.8-.5.56.56 0 0 1-.1-.6c.2-1 1.3-2.3 2.6-3.6.4-.4.8-.7 1.2-1.1l1.5-1.2c.3-.2.7-.5 1-.7a1.221 1.221 0 1 0-1.4-2 19.415 19.415 0 0 0-1.8 1.3 26.136 26.136 0 0 0-2 1.7c-1.4 1.1-3.2 2.2-4.3 2.1a.723.723 0 0 1-.6-.4c-.6-1 1.1-3.2 3.7-5.4a32.526 32.526 0 0 1 4.2-3.1 3.1 3.1 0 0 1 1.1-.5 1.253 1.253 0 1 0-1.2-2.2c-.3.2-.6.3-.9.5-1.4.6-3.1 1.1-4 .8a1 1 0 0 1-.5-.4c-.8-1.8 2.2-4.1 5.1-6.2a14.627 14.627 0 0 0 1.3-.9l.3-.2a29.1 29.1 0 0 1 3-1.7c.7-.3 1.3-.6 1.9-.8a27.544 27.544 0 0 0 2.4 4.1 47.233 47.233 0 0 0 9.5 10.2 7.686 7.686 0 0 0 1.3 1.2z" class="prefix__cls-8" data-name="패스 1184"/>
                </g>
                <g id="prefix__그룹_1204" data-name="그룹 1204">
                    <g id="prefix__그룹_1203" data-name="그룹 1203">
                        <path id="prefix__패스_1185" d="M460.8 301.8a68.921 68.921 0 0 1-10 10.7 11.318 11.318 0 0 1-1.3 1 7.608 7.608 0 0 1-1.9 1.2c-2.8 1.6-5.2 2.4-7 2.4a3.677 3.677 0 0 1-3.1-1.4 3.87 3.87 0 0 1-.3-3.3c-.3 0-.5.1-.8.1h-.4a3.717 3.717 0 0 1-2.6-1.5 3.121 3.121 0 0 1-.5-2.5 1.421 1.421 0 0 1 .2-.6 1.7 1.7 0 0 1-.7.1h-.5a3.289 3.289 0 0 1-2.4-1.6c-1.6-2.6.9-5.7 3.6-8.2.2-.2.5-.4.7-.6a.367.367 0 0 1-.3-.1 3.238 3.238 0 0 1-2-1.8c-1.5-3.1 1.2-5.8 4.4-8.2 1-.7 2-1.4 2.9-2l.3-.2a25.292 25.292 0 0 1 2.2-1.3c1.1-.5 2.1-1 3-1.4a10.374 10.374 0 0 1 .4 1c.2.4.4.9.6 1.3-.6.2-1.2.5-1.9.8a17.789 17.789 0 0 0-3 1.7l-.3.2c-.4.3-.9.6-1.3.9-3 2-6 4.4-5.1 6.2a.664.664 0 0 0 .5.4c.9.3 2.6-.2 4-.8a7.255 7.255 0 0 0 .9-.5 1.253 1.253 0 1 1 1.2 2.2 3.828 3.828 0 0 1-1.1.5 32.529 32.529 0 0 0-4.2 3.1c-2.6 2.2-4.3 4.4-3.7 5.4a.723.723 0 0 0 .6.4c1 .1 2.9-1 4.3-2.1a26.136 26.136 0 0 1 2-1.7 19.407 19.407 0 0 1 1.8-1.3 1.232 1.232 0 0 1 1.7.3 1.251 1.251 0 0 1-.3 1.7c-.3.2-.6.4-1 .7l-1.5 1.2a11.988 11.988 0 0 0-1.2 1.1 8.479 8.479 0 0 0-2.6 3.6c0 .3 0 .5.1.6a1.126 1.126 0 0 0 .8.5c1.5.1 3.9-1.7 4.8-2.6.1-.1.2-.2.3-.2 1.2-1 2.2-1.7 2.5-1.9a1.232 1.232 0 0 1 1.7.3 1.163 1.163 0 0 1 .2 1 1.374 1.374 0 0 1-.5.8c-2.1 1.4-5.5 4.4-5.9 6.3a.56.56 0 0 0 .1.6c.7.9 3.4.3 6.8-1.7a17.261 17.261 0 0 0 2.8-1.9l.1-.1a71.846 71.846 0 0 0 9.6-10.2c.3.2.7.5 1 .7a7.621 7.621 0 0 1 1.3.7z" class="prefix__cls-9" data-name="패스 1185"/>
                    </g>
                </g>
            </g>
            <g id="prefix__그룹_1206" data-name="그룹 1206">
                <path id="prefix__패스_1186" d="M466 179.7a.1.1 0 0 1-.1-.1 84.744 84.744 0 0 0-8.9-3.3c-.1 0-.2 0-.2-.1-.1 0-.1 0-.2-.1h-.2a58.477 58.477 0 0 0-11.7-1.5c.1.1.1.2.2.3a29.2 29.2 0 0 1-1 18.5 26.248 26.248 0 0 1-5.2 8.1 2.892 2.892 0 0 1-3.8.1l-.6-.6-1.7-1.7-7.8-8-9.9 2.5-4.4 1.1a1.567 1.567 0 0 1-1.7-2.1 33.793 33.793 0 0 1 2.5-5.4 36.2 36.2 0 0 1 9-10c-.1-.6-.9-5.4-1-5.9a.349.349 0 0 0-.1-.2c-9.9-1.9-22.2-9.7-23.9-25.4a29.878 29.878 0 0 1 1.1-12.9 25.262 25.262 0 0 1-.3-9.9l-19.3-35.2a5.715 5.715 0 0 0-6.4-2.9c-1.2.3-2.7.6-4.3 1.1-.1 0-.2.1-.3.1-.4.1-.7.2-1.1.3a4.874 4.874 0 0 0-1.1.4c-.2 0-.3.1-.5.1a72.526 72.526 0 0 0-22.3 12c-.1.1-.2.1-.2.2a5.008 5.008 0 0 0-.8.7 5.008 5.008 0 0 0-.8.7c-.1 0-.1.1-.2.2-.7.6-1.4 1.2-2.1 1.9a6.014 6.014 0 0 0-1.4 6.8l48.1 96.2-5 20.9c12.3 8.4 24.7 23.5 38.8 37.1 5.1 4.9 14.4 12.8 24 20.4 1.1-.5 2.1-1 3-1.4a35.324 35.324 0 0 1-1.5-4.6 1.184 1.184 0 0 1 .9-1.5h.4a1.441 1.441 0 0 1 1.1.9 43.413 43.413 0 0 0 1.4 4.3 4.872 4.872 0 0 1 .3.7 11.941 11.941 0 0 0 .8 1.6 41.7 41.7 0 0 0 10.5 12.8l.1.1a21.968 21.968 0 0 0 1.8 1.4 5.5 5.5 0 0 1 .9.7c.4.3.7.5 1.1.8.8.6 1.6 1 2.2 1.4 1.2.7 2 1.1 2 1.1a1.344 1.344 0 0 1 .6.7c6.7-2.8 40.6-18.3 43.8-48.3 5.2-47.1-27.7-67.7-44.6-75.1zm-48.4 43.1a1.924 1.924 0 1 1-1.6-2.2 2.168 2.168 0 0 1 1.6 2.2zm2.8-10.7a1.924 1.924 0 0 1-3.8-.6 1.812 1.812 0 0 1 2.2-1.6 1.9 1.9 0 0 1 1.6 2.2zm2.8-10.7a1.924 1.924 0 1 1-1.6-2.2 1.982 1.982 0 0 1 1.6 2.2zm49.8 48.9l-24 18.4a1.077 1.077 0 0 1-.8.2 1.231 1.231 0 0 1-1-.5 1.388 1.388 0 0 1 .2-1.8l24-18.3a1.377 1.377 0 0 1 1.8.2c0 .1.1.1.1.2a1.2 1.2 0 0 1-.3 1.6z" class="prefix__cls-2" data-name="패스 1186"/>
                <path id="prefix__패스_1187" d="M458.4 296.9a.1.1 0 0 1-.1-.1z" class="prefix__cls-2" data-name="패스 1187"/>
                <path id="prefix__패스_1188" d="M473 250.3l-24 18.4a1.077 1.077 0 0 1-.8.2 1.231 1.231 0 0 1-1-.5 1.388 1.388 0 0 1 .2-1.8l24-18.3a1.377 1.377 0 0 1 1.8.2c0 .1.1.1.1.2a1.2 1.2 0 0 1-.3 1.6z" class="prefix__cls-2" data-name="패스 1188"/>
            </g>
            <g id="prefix__그룹_1207" data-name="그룹 1207">
                <path id="prefix__패스_1189" d="M473 250.3l-24 18.4a1.077 1.077 0 0 1-.8.2 1.231 1.231 0 0 1-1-.5 1.388 1.388 0 0 1 .2-1.8l24-18.3a1.377 1.377 0 0 1 1.8.2c0 .1.1.1.1.2a1.2 1.2 0 0 1-.3 1.6z" class="prefix__cls-14" data-name="패스 1189"/>
            </g>
            <g id="prefix__그룹_1208" data-name="그룹 1208">
                <path id="prefix__패스_1190" d="M467.4 302.8l-1.8.8a2.443 2.443 0 0 1-2.2-.1.1.1 0 0 1-.1-.1 20.154 20.154 0 0 1-2.5-1.6 10.54 10.54 0 0 0-1.1-.7c-.3-.2-.7-.5-1-.7a15.756 15.756 0 0 1-1.5-1.2 47.233 47.233 0 0 1-9.5-10.2c-.9-1.3-1.6-2.7-2.4-4.1-.2-.4-.4-.9-.6-1.3a2.994 2.994 0 0 1-.4-1 35.324 35.324 0 0 1-1.5-4.6 1.184 1.184 0 0 1 .9-1.5h.4a1.441 1.441 0 0 1 1.1.9 43.413 43.413 0 0 0 1.4 4.3 4.872 4.872 0 0 1 .3.7 11.941 11.941 0 0 0 .8 1.6 41.7 41.7 0 0 0 10.5 12.8l.1.1a21.968 21.968 0 0 0 1.8 1.4 5.5 5.5 0 0 1 .9.7c.4.3.7.5 1.1.8a29.022 29.022 0 0 0 3.1 1.9 18.538 18.538 0 0 0 2.2 1.1z" class="prefix__cls-14" data-name="패스 1190"/>
                <path id="prefix__선_63" d="M2.9 0L0 1.3" class="prefix__cls-6" data-name="선 63" transform="translate(464.5 302.8)"/>
            </g>
            <g id="prefix__그룹_1209" data-name="그룹 1209">
                <path id="prefix__패스_1191" d="M420.6 151.1a5.852 5.852 0 0 1-4.1 1.5 8.314 8.314 0 0 1-3.6-.9 9.062 9.062 0 0 1-1.6-1.1 7.237 7.237 0 0 1-2-3.6 9.735 9.735 0 0 1-.1-1.6 1.259 1.259 0 0 1 2.5.3 4 4 0 0 0 2.2 3.7c2.2 1.1 4.2.6 4.9-.1a1.267 1.267 0 0 1 1.8 0 1.5 1.5 0 0 1 0 1.8z" class="prefix__cls-5" data-name="패스 1191"/>
            </g>
        </g>
        <g id="prefix__그룹_1211" data-name="그룹 1211">
            <path id="prefix__패스_1192" d="M454 404.3a75.69 75.69 0 0 0-75.5-70.7 81 81 0 0 0-14 1.3 137.551 137.551 0 0 0-129.6-91.4c-53.1 0-99.2 36.2-122.1 80.2-60 4-102.2 42.1-102.2 98.9 0 60.8 53.3 102.2 114.1 102.2h313.2A61.314 61.314 0 0 0 454 404.3z" class="prefix__cls-2" data-name="패스 1192"/>
        </g>
        <g id="prefix__그룹_1245" data-name="그룹 1245">
            <g id="prefix__그룹_1212" data-name="그룹 1212">
                <path id="prefix__패스_1193" d="M162.5 209c-.9 2.6-1.1 9-1.2 11.4a63.523 63.523 0 0 0-16.6 14.2c-3.2-.6-8.3-3.6-8.3-9.1 0-6 4.3-9.5 7.9-11.4a5.818 5.818 0 0 1 1.6-.5 2.646 2.646 0 0 0 1.9-1.2c.4-1.1-.4-2.1-1.8-3.9-3.6-4.5-3.8-7.2-3.1-7.9a1.284 1.284 0 0 1 1-.4h.1c1.2.1 2.8 1.2 4.6 3.2.6.7 1 1.2 1.5 1.8a38.6 38.6 0 0 0 4.2 4.5 2.928 2.928 0 0 0 2.2.7 2.47 2.47 0 0 0 1.9-1.2 3.7 3.7 0 0 0 .5-1.1 4.517 4.517 0 0 1 1.1-1.7c.8-.7 1.7-.9 2.2-.5a3.1 3.1 0 0 1 .3 3.1z" class="prefix__cls-8" data-name="패스 1193"/>
            </g>
            <g id="prefix__그룹_1213" data-name="그룹 1213">
                <path id="prefix__패스_1194" d="M164.9 209.8c-.6 1.7-.9 6.1-1 9.1-.4.2-.8.5-1.3.7-.4.2-.8.5-1.3.7.1-2.4.3-8.8 1.2-11.4.5-1.5.2-2.5-.4-2.9-.5-.4-1.4-.2-2.2.5a4.517 4.517 0 0 0-1.1 1.7c-.2.4-.3.7-.5 1.1a2.646 2.646 0 0 1-1.9 1.2 2.928 2.928 0 0 1-2.2-.7 31.4 31.4 0 0 1-4.2-4.5q-.6-.75-1.5-1.8c-1.7-2-3.4-3.1-4.6-3.2h-.1a1.284 1.284 0 0 0-1 .4c-.7.7-.5 3.4 3.1 7.9 1.5 1.8 2.2 2.8 1.8 3.9a2.057 2.057 0 0 1-1.9 1.2 5.818 5.818 0 0 0-1.6.5c-3.6 1.9-7.9 5.4-7.9 11.4 0 5.5 5.1 8.5 8.3 9.1-.3.4-.6.7-.9 1.1a7.631 7.631 0 0 0-.8 1.1c-4.3-1.3-9.1-5.3-9.1-11.2 0-5.8 3.2-10.5 9.3-13.6.7-.3 1.3-.5 1.8-.7q-.3-.45-.9-1.2c-4-5-5.1-9.2-2.8-11.3a3.833 3.833 0 0 1 2.9-1c1.9.1 4.1 1.5 6.3 4.1q.9 1.05 1.5 1.8a45.151 45.151 0 0 0 4 4.3c.1 0 .1.1.2 0 .1 0 .1 0 .1-.1a2.389 2.389 0 0 0 .3-.7 6.112 6.112 0 0 1 1.9-2.7c2.1-1.7 4-1.4 5.2-.6 1.6 1.2 2.1 3.5 1.3 5.8z" class="prefix__cls-9" data-name="패스 1194"/>
            </g>
            <g id="prefix__그룹_1214" data-name="그룹 1214">
                <path id="prefix__패스_1195" d="M169.8 418.9c-.6-.4-1.3-.7-2-1.1.7.4 1.3.7 2 1.1z" class="prefix__cls-12" data-name="패스 1195"/>
                <path id="prefix__패스_1196" d="M188.9 341.6a40.489 40.489 0 0 0-11.6 1.1 1.09 1.09 0 0 0-1.1-.2c-9.7 2.6-16.6 6.3-22.3 12-11.3 11.2-17 21.5-24.3 34.5l-.1.2a1.388 1.388 0 0 0 .4 1.7c-1 2.3-1.8 4.4-2.5 6.3l-.3-.3-.9-.9-.6-.6-.6-.6-3.9-3.9-1.2-1.2c-.8-.8-1.5-1.5-2.3-2.2-.9-.8-1.8-1.7-2.7-2.4-12.4-10.7-22.5-13.9-24.2-12.1 0 0 8-23.6 41.3-40.4 17-8.6 41.6-6.2 56.9 9z" class="prefix__cls-12" data-name="패스 1196"/>
            </g>
            <g id="prefix__그룹_1215" data-name="그룹 1215">
                <path id="prefix__패스_1197" d="M115 385.2l-3.4 6-2.6 4.5c-9.1-8.1-20.8-20.2-18.3-22.7 1.7-1.8 11.8 1.4 24.3 12.2z" class="prefix__cls-15" data-name="패스 1197"/>
                <path id="prefix__패스_1198" d="M125 406.8a.1.1 0 0 1-.1-.1l.1-.1c-.1.2 0 .2 0 .2z" class="prefix__cls-15" data-name="패스 1198"/>
            </g>
            <g id="prefix__그룹_1216" data-name="그룹 1216">
                <path id="prefix__패스_1199" d="M125.5 403.3a21.064 21.064 0 0 0-.6 2.9v.4l-.1.1-3.8 6.7a53.5 53.5 0 0 1-17.1-8.9l5.1-9 2.6-4.5 3.4-6 2.7 2.4c.8.7 1.5 1.5 2.3 2.2l1.2 1.2 3.9 3.9.6.6.6.6.9.9.3.3c-1 2.7-1.6 4.7-2 6.2z" class="prefix__cls-8" data-name="패스 1199"/>
                <path id="prefix__패스_1200" d="M117.7 387.6c.8.7 1.5 1.4 2.3 2.2-.8-.8-1.6-1.5-2.3-2.2z" class="prefix__cls-8" data-name="패스 1200"/>
                <path id="prefix__패스_1201" d="M127.4 397.2l-.3-.3z" class="prefix__cls-8" data-name="패스 1201"/>
            </g>
            <path id="prefix__패스_1202" d="M161.7 447.1c.6-1.4-16.6-6.9-22.2-8.8-7-2.4-25.6-9.3-26.3-6.9.2-.6.5-1.2.7-1.8a4.671 4.671 0 0 1 .5-1c.1-.3.3-.6.4-.9-5-2.6-14.6-6.4-18.4-8.1-6.7-2.9-24.3-10.8-25.7-8.8 10.4-22.8 31.5-7.2 33.2-6.2a54.781 54.781 0 0 0 17.1 8.9h.1a31.291 31.291 0 0 1 .1 6.8c10.2-6.9 23.9 1.5 26.1 3.1a28.455 28.455 0 0 0 3.7 2.3 38.41 38.41 0 0 0 4.5 2.3 50.215 50.215 0 0 0 9.5 3.3c.7 11-3.3 15.8-3.3 15.8z" class="prefix__cls-5" data-name="패스 1202"/>
            <g id="prefix__그룹_1217" data-name="그룹 1217">
                <path id="prefix__패스_1203" d="M114.9 427.8a3.552 3.552 0 0 0-.4.9 9.251 9.251 0 0 1-.5 1c-5-1.3-13.7-4.6-19.6-6.8-8-3.1-24.9-8.8-23.7-11.8a.1.1 0 0 1 .1-.1c1.4-2 19 5.9 25.7 8.8 3.7 1.6 13.4 5.4 18.4 8z" class="prefix__cls-16" data-name="패스 1203"/>
            </g>
            <g id="prefix__그룹_1218" data-name="그룹 1218">
                <path id="prefix__패스_1204" d="M216.2 255.8c-.4 2-2.9 2.1-4 1.9s-3.8-.9-3.8-3.1c0-1.7 1.5-3 4-2.7 2.7.4 4.2 1.9 3.8 3.9z" data-name="패스 1204"/>
                <path id="prefix__패스_1205" d="M221.9 249.6c-.5 2.4-1.9 3.9-3.8 3.4s-1.9-2.9-1.6-3.9c.3-1.1 1.1-3.6 3.1-3.4 1.5.1 2.8 1.5 2.3 3.9z" data-name="패스 1205"/>
                <path id="prefix__패스_1206" d="M229.1 256c-.2 1-1.4 1-1.9.9s-1.8-.5-1.8-1.5c0-.8.7-1.5 1.9-1.3s1.9.9 1.8 1.9z" data-name="패스 1206"/>
                <path id="prefix__패스_1207" d="M243 256c-.5 2.4-1.9 3.9-3.8 3.4s-1.9-2.9-1.6-3.9c.2-1.1 1.1-3.6 3.1-3.4 1.5.1 2.7 1.5 2.3 3.9z" data-name="패스 1207"/>
                <path id="prefix__패스_1208" d="M248.2 265c-.4 2.1-3 2.2-4.1 2-1.2-.2-3.9-1-3.8-3.2 0-1.7 1.5-3.1 4.1-2.7 2.7.4 4.3 1.9 3.8 3.9z" data-name="패스 1208"/>
                <path id="prefix__패스_1209" d="M264.6 269.8a5.587 5.587 0 0 1-7.1 2.7.726.726 0 0 1-.3-1.2c1.2-1.1 3-2.7 3.1-5.3a2.323 2.323 0 0 1 4.1-1.6c.8.8 1.4 3 .2 5.4z" data-name="패스 1209"/>
            </g>
            <g id="prefix__그룹_1219" data-name="그룹 1219">
                <path id="prefix__패스_1210" d="M248.7 404.9c0 .4.1.8.1 1.2 0 5.2-2.9 10.9-9.7 14.2l-2.7 1.2c15.8 9.6 33 3.2 38.7-1.4 4.1-3.2 13.8-9.8 23.3-18.6a120.6 120.6 0 0 0-49.7 3.4z" class="prefix__cls-5" data-name="패스 1210"/>
                <path id="prefix__패스_1211" d="M302.1 329.2c-3.6-7-7.6-15.9-13.7-22.5a30.3 30.3 0 0 0-10.7-7.6 27.444 27.444 0 0 0-12.7-2l-2-6.5a3.785 3.785 0 0 0-4.6-2.6l-2.2.6-4.5 1.2-12.2 3.3-7.3 2-2-7-.9-3.1c0-.1-.1-.3-.1-.4-.1-.2-.1-.3-.2-.5 0-.1-.1-.2-.2-.3s-.2-.2-.2-.3l-.3-.3c-.1-.1-.2-.2-.3-.2-.1-.1-.2-.1-.3-.2a.1.1 0 0 1-.1-.1c-.1 0-.2-.1-.3-.1-6.9-1.6-18.5-9-21-22.8v-.1a24.22 24.22 0 0 1-.4-4.5l-5.8-6.5-26.9-30.2a5.36 5.36 0 0 0-6.1-1.3q-1.35.6-3 1.5c-.4.2-.8.5-1.3.7-.4.2-.8.5-1.3.7a63.523 63.523 0 0 0-16.6 14.2c-.3.4-.6.7-.9 1.1a7.631 7.631 0 0 0-.8 1.1c-.6.8-1.2 1.7-1.8 2.6a5.254 5.254 0 0 0 .2 6.2L206 328l-12.1 13.8a44.7 44.7 0 0 1 14.7 4.9c15.8 8.3 27.4 27.8 31 35.5l-4.4 3.8s-8 5.6-10.4 13.5a17.486 17.486 0 0 1 2.7-1.6 22.244 22.244 0 0 1 10.2-2.7 15.251 15.251 0 0 1 4.9.8 8.48 8.48 0 0 1 5.3 4.8c.1.2.1.4.2.6 0 .1.1.2.1.3s.1.2.1.3v.1c.1.3.2.7.3 1v.1c0 .2.1.3.1.5a.6.6 0 0 0 .1.4v.6a119.12 119.12 0 0 1 49.8-3.3 92.456 92.456 0 0 0 15.6-17.9c11.4-17.5-6.8-43.7-12.1-54.3zM257 291.8a1.146 1.146 0 0 1 1.5.9l1.2 4.2.4 1.4.1.2a1.184 1.184 0 0 1-.9 1.5c-.1 0-.2.1-.3.1a1.3 1.3 0 0 1-1.2-.8v-.1l-1.2-4.2-.2-.6-.2-.8a1.269 1.269 0 0 1 .8-1.8zm-5.6 1.7a1.146 1.146 0 0 1 1.5.9l.4 1.4 1.2 4.3v.3a1.291 1.291 0 0 1-.9 1.3h-.3a1.255 1.255 0 0 1-1.1-.6.367.367 0 0 1-.1-.3l-1.2-4.3-.4-1.4a1.425 1.425 0 0 1 .9-1.6zM237 306.8c-.1 0-.2.1-.3.1a1.23 1.23 0 0 1-1.1-.7c0-.1-.1-.1-.1-.2l-1.3-4.5-.3-1.2a1.184 1.184 0 0 1 .9-1.5 1.146 1.146 0 0 1 1.5.9l.4 1.2 1.3 4.5v.2a1.477 1.477 0 0 1-1 1.2zm5.6-1.7c-.1 0-.2.1-.3.1a1.23 1.23 0 0 1-1.1-.7c0-.1-.1-.1-.1-.2l-1.3-4.4-.4-1.3a1.184 1.184 0 0 1 .9-1.5 1.146 1.146 0 0 1 1.5.9l.4 1.3 1.3 4.4v.2a1.146 1.146 0 0 1-.9 1.2zm2.8-6.9l-.4-1.4a1.237 1.237 0 1 1 2.4-.6l.4 1.3 1.2 4.4v.2a1.187 1.187 0 0 1-.9 1.3h-.3a1.167 1.167 0 0 1-1.1-.7.367.367 0 0 1-.1-.3zm32.8 56.7a203.89 203.89 0 0 0-30.1 22.1 1.135 1.135 0 0 1-.8.3.975.975 0 0 1-.9-.4c0-.1-.1-.1-.1-.2a1.358 1.358 0 0 1 .2-1.6 220.7 220.7 0 0 1 20.5-16c6-4.2 10-6.4 10-6.4a1.282 1.282 0 0 1 1.7.5 1.22 1.22 0 0 1-.5 1.7z" class="prefix__cls-5" data-name="패스 1211"/>
            </g>
            <g id="prefix__그룹_1220" data-name="그룹 1220">
                <path id="prefix__패스_1212" d="M262.5 258c-7.3-2.3-18.8-16.9-22.8-26.3a1.9 1.9 0 0 0-2.7-.9c-10.2 5.4-23.9 9.3-27.5 10.3a27.122 27.122 0 0 0-3.8 14.3 23.508 23.508 0 0 0 .4 4.5v.1c2.5 13.8 14.1 21.2 21 22.8.1 0 .2.1.3.1a.1.1 0 0 1 .1.1c.1 0 .2.1.3.2s.2.1.3.2l.3.3a2.384 2.384 0 0 1 .6 1.1c0 .1.1.3.1.4l.9 3.1 2 7 7.3-2 12.2-3.3 4.5-1.2-2.2-8.3a1.519 1.519 0 0 1 1.4-1.9 16.755 16.755 0 0 0 9.9-3.5c6.9-5.5 5.4-18.2-2.6-17.1zm-25-2.5c.2-1.1 1.1-3.6 3.1-3.4 1.6.1 2.8 1.5 2.3 4-.5 2.4-1.9 3.9-3.8 3.4-1.9-.6-1.9-3-1.6-4zm-10.3-1.4c1.2.2 2 .9 1.8 1.8-.2 1-1.4 1-1.9.9s-1.8-.5-1.8-1.5a1.483 1.483 0 0 1 1.9-1.2zm-11 1.7c-.4 2-2.9 2.1-4 1.9s-3.8-.9-3.8-3.1c0-1.7 1.5-3 4-2.7 2.7.4 4.2 1.9 3.8 3.9zm1.9-2.8c-1.9-.5-1.9-2.9-1.6-3.9.3-1.1 1.1-3.6 3.1-3.4 1.6.1 2.8 1.5 2.3 4-.5 2.4-1.9 3.8-3.8 3.3zm1.3 7.9a18.139 18.139 0 0 1-.3-1.9.861.861 0 0 1 1.1-.9l13.3 3.7a.9.9 0 0 1 .5 1.4 7.471 7.471 0 0 1-1.2 1.4 8.466 8.466 0 0 1-8.2 1.7 7.021 7.021 0 0 1-5.2-5.4zm28.8 4.1c-.4 2.1-3 2.2-4.1 2-1.2-.2-3.9-1-3.8-3.2 0-1.7 1.5-3.1 4.1-2.7 2.7.4 4.3 1.9 3.8 3.9zm16.4 4.8a5.587 5.587 0 0 1-7.1 2.7.726.726 0 0 1-.3-1.2c1.2-1.1 3-2.7 3.1-5.3a2.323 2.323 0 0 1 4.1-1.6c.8.8 1.4 3 .2 5.4z" class="prefix__cls-8" data-name="패스 1212"/>
                <path id="prefix__패스_1213" d="M216.2 255.8c-.4 2-2.9 2.1-4 1.9s-3.8-.9-3.8-3.1c0-1.7 1.5-3 4-2.7 2.7.4 4.2 1.9 3.8 3.9z" class="prefix__cls-8" data-name="패스 1213"/>
                <path id="prefix__패스_1214" d="M221.9 249.6c-.5 2.4-1.9 3.9-3.8 3.4s-1.9-2.9-1.6-3.9c.3-1.1 1.1-3.6 3.1-3.4 1.5.1 2.8 1.5 2.3 3.9z" class="prefix__cls-8" data-name="패스 1214"/>
                <path id="prefix__패스_1215" d="M229.1 256c-.2 1-1.4 1-1.9.9s-1.8-.5-1.8-1.5c0-.8.7-1.5 1.9-1.3s1.9.9 1.8 1.9z" class="prefix__cls-8" data-name="패스 1215"/>
                <path id="prefix__패스_1216" d="M243 256c-.5 2.4-1.9 3.9-3.8 3.4s-1.9-2.9-1.6-3.9c.2-1.1 1.1-3.6 3.1-3.4 1.5.1 2.7 1.5 2.3 3.9z" class="prefix__cls-8" data-name="패스 1216"/>
                <path id="prefix__패스_1217" d="M248.2 265c-.4 2.1-3 2.2-4.1 2-1.2-.2-3.9-1-3.8-3.2 0-1.7 1.5-3.1 4.1-2.7 2.7.4 4.3 1.9 3.8 3.9z" class="prefix__cls-8" data-name="패스 1217"/>
                <path id="prefix__패스_1218" d="M264.6 269.8a5.587 5.587 0 0 1-7.1 2.7.726.726 0 0 1-.3-1.2c1.2-1.1 3-2.7 3.1-5.3a2.323 2.323 0 0 1 4.1-1.6c.8.8 1.4 3 .2 5.4z" class="prefix__cls-8" data-name="패스 1218"/>
            </g>
            <g id="prefix__그룹_1221" data-name="그룹 1221">
                <path id="prefix__패스_1219" d="M234 263.2a7.471 7.471 0 0 1-1.2 1.4 8.466 8.466 0 0 1-8.2 1.7 6.889 6.889 0 0 1-5.2-5.4 18.139 18.139 0 0 1-.3-1.9.861.861 0 0 1 1.1-.9l13.3 3.7a.87.87 0 0 1 .5 1.4z" data-name="패스 1219" style="fill:#e5423e"/>
            </g>
            <g id="prefix__그룹_1222" data-name="그룹 1222">
                <path id="prefix__패스_1220" d="M264.6 269.8a5.587 5.587 0 0 1-7.1 2.7.726.726 0 0 1-.3-1.2c1.2-1.1 3-2.7 3.1-5.3a2.323 2.323 0 0 1 4.1-1.6c.8.8 1.4 3 .2 5.4z" class="prefix__cls-9" data-name="패스 1220"/>
            </g>
            <g id="prefix__그룹_1223" data-name="그룹 1223">
                <path id="prefix__패스_1221" d="M237.9 305.4a1.3 1.3 0 0 1-.9 1.4c-.1 0-.2.1-.3.1a1.23 1.23 0 0 1-1.1-.7c0-.1-.1-.1-.1-.2l-1.3-4.5-.3-1.2a1.184 1.184 0 0 1 .9-1.5 1.146 1.146 0 0 1 1.5.9l.4 1.2 1.2 4.5z" class="prefix__cls-13" data-name="패스 1221"/>
            </g>
            <g id="prefix__그룹_1224" data-name="그룹 1224">
                <path id="prefix__패스_1222" d="M243.5 303.8a1.3 1.3 0 0 1-.9 1.4c-.1 0-.2.1-.3.1a1.23 1.23 0 0 1-1.1-.7c0-.1-.1-.1-.1-.2l-1.3-4.4-.4-1.3a1.184 1.184 0 0 1 .9-1.5 1.146 1.146 0 0 1 1.5.9l.4 1.3 1.3 4.4z" class="prefix__cls-13" data-name="패스 1222"/>
            </g>
            <g id="prefix__그룹_1225" data-name="그룹 1225">
                <path id="prefix__패스_1223" d="M249 302.1a1.187 1.187 0 0 1-.9 1.3h-.3a1.167 1.167 0 0 1-1.1-.7.367.367 0 0 1-.1-.3l-1.2-4.4-.4-1.4a1.237 1.237 0 1 1 2.4-.6l.4 1.3 1.2 4.4v.4z" class="prefix__cls-13" data-name="패스 1223"/>
            </g>
            <g id="prefix__그룹_1226" data-name="그룹 1226">
                <path id="prefix__패스_1224" d="M254.6 300.4a1.291 1.291 0 0 1-.9 1.3h-.3a1.255 1.255 0 0 1-1.1-.6.367.367 0 0 1-.1-.3l-1.2-4.3-.4-1.4a1.237 1.237 0 1 1 2.4-.6l.4 1.4 1.2 4.3v.2z" class="prefix__cls-13" data-name="패스 1224"/>
            </g>
            <g id="prefix__그룹_1227" data-name="그룹 1227">
                <path id="prefix__패스_1225" d="M259.2 299.9c-.1 0-.2.1-.3.1a1.3 1.3 0 0 1-1.2-.8v-.1l-1.2-4.2-.2-.6-.2-.8a1.284 1.284 0 0 1 .9-1.6 1.225 1.225 0 0 1 1.5.9l1.2 4.2.4 1.4.1.2a1.27 1.27 0 0 1-1 1.3z" class="prefix__cls-13" data-name="패스 1225"/>
            </g>
            <g id="prefix__그룹_1228" data-name="그룹 1228">
                <path id="prefix__패스_1226" d="M208.5 347a44.7 44.7 0 0 0-14.7-4.9 42.341 42.341 0 0 0-16.5.6 2.092 2.092 0 0 1 .4.6 1.146 1.146 0 0 1-.9 1.5c-9.3 2.5-15.8 6-21.2 11.4-11 10.9-16.7 21.1-23.9 34l-.1.2a1.255 1.255 0 0 1-1.1.6c-.2 0-.4-.1-.6-.1a.1.1 0 0 1-.1-.1c-1 2.3-1.8 4.4-2.5 6.3a42.162 42.162 0 0 0-1.8 6.2 21.064 21.064 0 0 0-.6 2.9.9.9 0 0 1 .1-.5 2.591 2.591 0 0 1 1-1.1 4.872 4.872 0 0 1 .7-.3c1.5-.6 4-.7 7.2-.2a63.337 63.337 0 0 1 7.7 1.8 94.693 94.693 0 0 1 10.1 3.8c.8.4 1.7.8 2.6 1.2.7.3 1.3.6 2 .9a25.579 25.579 0 0 0 2.4 1.1c.3.2.7.3 1 .5l1.8.9c1.3.7 2.5 1.3 3.7 1.9l1.2.6c.5.3 1 .5 1.5.8a19.836 19.836 0 0 0 2 1.1 16.178 16.178 0 0 0 1.8 1l1.5.9c7.6 4.8 8.5 7.2 8.6 9.2a.367.367 0 0 1-.1.3l6-9.5s5 7.4 12.8 17.9a88.839 88.839 0 0 1 18.5-19.2 9.063 9.063 0 0 1-1.1-1.6 9.362 9.362 0 0 1-1.6.4c-6.3.8-7.7-2.5-8-3.5a4.082 4.082 0 0 1 1.9-4.8 40.377 40.377 0 0 1 3.9-1.5c1.1-.4 2.2-.8 3.1-1.1a1.421 1.421 0 0 1 .6-.2 18.177 18.177 0 0 1 7-7.4c2.5-7.9 10.4-13.5 10.4-13.5l4.4-3.8c-3.7-7.5-15.4-27-31.1-35.3zm-2.7 44.6l-1.9 3.6-10.6 19.4a1.357 1.357 0 0 1-1.1.7 1.421 1.421 0 0 1-.6-.2 1.282 1.282 0 0 1-.5-1.7l5.1-9.4 7.4-13.6a1.282 1.282 0 0 1 1.7-.5 1.31 1.31 0 0 1 .5 1.7z" class="prefix__cls-12" data-name="패스 1226"/>
                <path id="prefix__패스_1227" d="M169.8 418.9c-.6-.4-1.3-.7-2-1.1.7.4 1.3.7 2 1.1z" class="prefix__cls-12" data-name="패스 1227"/>
                <path id="prefix__패스_1228" d="M222.1 422c-10.4 12.4-20.8 18-20.8 18-.3-.4-.7-.9-1-1.3a88.839 88.839 0 0 1 18.5-19.2 9.046 9.046 0 0 0 3.3 2.5z" class="prefix__cls-12" data-name="패스 1228"/>
            </g>
            <g id="prefix__그룹_1229" data-name="그룹 1229">
                <path id="prefix__패스_1229" d="M154.2 411l-2.3 4.2-1.1 2.1-2.4 4.4c-10.3-4.4-22.7-10.7-23.4-14.8v-.6a.9.9 0 0 1 .1-.5 2.591 2.591 0 0 1 1-1.1 4.872 4.872 0 0 1 .7-.3c1.5-.6 4-.7 7.2-.2a63.337 63.337 0 0 1 7.7 1.8 94.693 94.693 0 0 1 10.1 3.8c.7.4 1.6.8 2.4 1.2z" class="prefix__cls-15" data-name="패스 1229"/>
                <path id="prefix__패스_1230" d="M169.8 418.9c-.6-.4-1.3-.7-2-1.1.7.4 1.3.7 2 1.1z" class="prefix__cls-15" data-name="패스 1230"/>
                <path id="prefix__패스_1231" d="M171.5 419.9l-1.3 2.3-1.5 2.6-2 3.5-1.7 3a47.791 47.791 0 0 1-9.5-3.3 38.415 38.415 0 0 1-4.5-2.3c-1.2-.7-2.4-1.5-3.7-2.3l1-1.8 2.4-4.4 1.1-2.1 2.3-4.2c.7.3 1.3.6 2 .9a25.579 25.579 0 0 0 2.4 1.1c.3.2.7.3 1 .5l1.8.9c1.3.7 2.5 1.3 3.7 1.9l1.2.6c.5.3 1 .5 1.5.8a19.836 19.836 0 0 0 2 1.1q1.05.75 1.8 1.2z" class="prefix__cls-8" data-name="패스 1231"/>
                <path id="prefix__패스_1232" d="M181.6 430a.367.367 0 0 1-.1.3c-.6 1.6-7.6.2-14.8-2l2-3.5 1.5-2.6 1.3-2.3 1.5.9c7.6 4.8 8.5 7.3 8.6 9.2z" class="prefix__cls-15" data-name="패스 1232"/>
            </g>
            <g id="prefix__그룹_1230" data-name="그룹 1230">
                <path id="prefix__패스_1233" d="M229.1 256c-.2 1-1.4 1-1.9.9s-1.8-.5-1.8-1.5c0-.8.7-1.5 1.9-1.3s1.9.9 1.8 1.9z" class="prefix__cls-10" data-name="패스 1233"/>
            </g>
            <g id="prefix__그룹_1231" data-name="그룹 1231">
                <path id="prefix__패스_1234" d="M248.2 265c-.4 2.1-3 2.2-4.1 2-1.2-.2-3.9-1-3.8-3.2 0-1.7 1.5-3.1 4.1-2.7 2.7.4 4.3 1.9 3.8 3.9z" class="prefix__cls-11" data-name="패스 1234"/>
            </g>
            <g id="prefix__그룹_1232" data-name="그룹 1232">
                <path id="prefix__패스_1235" d="M216.2 255.8c-.4 2-2.9 2.1-4 1.9s-3.8-.9-3.8-3.1c0-1.7 1.5-3 4-2.7 2.7.4 4.2 1.9 3.8 3.9z" class="prefix__cls-11" data-name="패스 1235"/>
            </g>
            <g id="prefix__그룹_1233" data-name="그룹 1233">
                <path id="prefix__패스_1236" d="M219.6 245.5h-.2c-2 0-2.8 2.5-3.1 3.6-.2 1-.4 3.6 1.8 4.1a2.2 2.2 0 0 0 .8.1c1.6 0 2.8-1.3 3.3-3.6a3.769 3.769 0 0 0-.5-3.1 3.9 3.9 0 0 0-2.1-1.1z" data-name="패스 1236"/>
                <path id="prefix__패스_1237" d="M242.6 252.9a2.61 2.61 0 0 0-2-1h-.2c-2.1 0-2.9 2.7-3.1 3.6-.2 1-.4 3.6 1.7 4.1a2.2 2.2 0 0 0 .8.1c1.6 0 2.8-1.4 3.3-3.6a4.029 4.029 0 0 0-.5-3.2z" data-name="패스 1237"/>
            </g>
            <g id="prefix__그룹_1234" data-name="그룹 1234">
                <path id="prefix__패스_1238" d="M176.9 344.9c-9.3 2.5-15.8 6-21.2 11.4-11 10.9-16.7 21.1-23.9 34l-.1.2a1.255 1.255 0 0 1-1.1.6c-.2 0-.4-.1-.6-.1a.1.1 0 0 1-.1-.1 1.388 1.388 0 0 1-.4-1.7l.1-.2c7.3-13 13-23.3 24.3-34.5 5.7-5.7 12.6-9.4 22.3-12a1.389 1.389 0 0 1 1.1.2 2.092 2.092 0 0 1 .4.6 1.264 1.264 0 0 1-.8 1.6z" data-name="패스 1238" style="fill:#99d3ff"/>
            </g>
            <g id="prefix__그룹_1235" data-name="그룹 1235">
                <path id="prefix__패스_1239" d="M329.1 411.2l-138 44.4a77.181 77.181 0 0 1 9.2-16.8 88.839 88.839 0 0 1 18.5-19.2 8.2 8.2 0 0 0 3.2 2.4 14.613 14.613 0 0 0 6 1.2 25.458 25.458 0 0 0 8.4-1.6 15.949 15.949 0 0 0 2.7-1.2c6.7-3.4 9.7-9 9.7-14.2a4.869 4.869 0 0 0-.1-1.2 119.12 119.12 0 0 1 49.8-3.3c19.1 2.8 30.6 9.5 30.6 9.5z" class="prefix__cls-2" data-name="패스 1239"/>
            </g>
            <g id="prefix__그룹_1236" data-name="그룹 1236">
                <path id="prefix__패스_1240" d="M248.7 404.9v-.4a1.268 1.268 0 0 0-.1-.6c0-.2-.1-.3-.1-.5v-.1c-.1-.4-.2-.7-.3-1v-.1a.764.764 0 0 0-.2-.5c-.1-.2-.1-.4-.2-.6a8.738 8.738 0 0 0-5.3-4.8 12.937 12.937 0 0 0-4.9-.8 21.631 21.631 0 0 0-10.2 2.7 17.486 17.486 0 0 0-2.7 1.6 20.293 20.293 0 0 0-7 7.4c-.2.1-.4.1-.6.2-.9.3-2 .7-3.1 1.1a40.377 40.377 0 0 0-3.9 1.5 3.984 3.984 0 0 0-1.9 4.8c.3 1 1.7 4.3 8 3.5a9.365 9.365 0 0 0 1.6-.4 9.062 9.062 0 0 0 1.1 1.6 8.2 8.2 0 0 0 3.2 2.4 14.613 14.613 0 0 0 6 1.2 25.458 25.458 0 0 0 8.4-1.6 15.949 15.949 0 0 0 2.7-1.2c6.7-3.4 9.7-9 9.7-14.2-.1-.3-.1-.8-.2-1.2zm-10.5 13.7a27.8 27.8 0 0 1-4 1.6c-3.9 1.2-7.9 1.3-10.9.2a8.373 8.373 0 0 1-2.9-2 7.1 7.1 0 0 1-1-1.4c-.1-.2-.2-.3-.2-.5l-.1-.2-.4-.9-.9.4a7.62 7.62 0 0 1-2 .6c-3.2.4-5.4-.3-5.9-2.1a2.1 2.1 0 0 1 .8-2.4c1-.4 2.4-.9 3.8-1.4 1.1-.4 2.2-.8 3.2-1.2h.1a6.372 6.372 0 0 1 .7-.2l.5-.1.2-.5c.1-.2.1-.3.2-.5a15.755 15.755 0 0 1 4.5-5.3 21.658 21.658 0 0 1 4.2-2.7 22.105 22.105 0 0 1 8.6-2.5 11.69 11.69 0 0 1 5 .7 6.779 6.779 0 0 1 4.2 3.7 11.076 11.076 0 0 1 .8 3.6c.3 4.7-2.2 10-8.5 13.1z" class="prefix__cls-9" data-name="패스 1240"/>
            </g>
            <g id="prefix__그룹_1237" data-name="그룹 1237">
                <path id="prefix__패스_1241" d="M278.2 354.9a203.89 203.89 0 0 0-30.1 22.1 1.135 1.135 0 0 1-.8.3.975.975 0 0 1-.9-.4c0-.1-.1-.1-.1-.2a1.358 1.358 0 0 1 .2-1.6 220.7 220.7 0 0 1 20.5-16c6-4.2 10-6.4 10-6.4a1.282 1.282 0 0 1 1.7.5 1.22 1.22 0 0 1-.5 1.7z" class="prefix__cls-13" data-name="패스 1241"/>
            </g>
            <g id="prefix__그룹_1238" data-name="그룹 1238">
                <path id="prefix__패스_1242" d="M205.8 391.6l-1.9 3.6-10.6 19.4a1.357 1.357 0 0 1-1.1.7 1.421 1.421 0 0 1-.6-.2 1.282 1.282 0 0 1-.5-1.7l5.1-9.4 7.4-13.6a1.282 1.282 0 0 1 1.7-.5 1.31 1.31 0 0 1 .5 1.7z" class="prefix__cls-15" data-name="패스 1242"/>
            </g>
            <g id="prefix__그룹_1239" data-name="그룹 1239">
                <path id="prefix__패스_1243" d="M307.8 245.1c-3.5.8-9.3 1.3-14.6-1.9a101.2 101.2 0 0 1-.5 15.2c-2.5 23.9.2 30.6 9 38.6 2.1 1.9 1.1 5.4-1.7 6.7-4.1 1.9-6.5 3.1-11.6 3.2a30.3 30.3 0 0 0-10.7-7.6 27.444 27.444 0 0 0-12.7-2l-2-6.5a3.785 3.785 0 0 0-4.6-2.6l-2.2.6-2.2-8.3a1.519 1.519 0 0 1 1.4-1.9 16.755 16.755 0 0 0 9.9-3.5c6.6-5.4 5.1-18.1-2.9-17-7.3-2.3-18.8-16.9-22.8-26.3a1.9 1.9 0 0 0-2.7-.9c-10.2 5.4-23.9 9.3-27.5 10.3a27.122 27.122 0 0 0-3.8 14.3l-5.8-6.5a53 53 0 0 1 1.4-18.4c3.5-13.9 10.2-22.9 21.6-27.9a31.427 31.427 0 0 1 27.8 1.1s15-3.7 29.2 8.2a4.79 4.79 0 0 0-1.2 3.3 4.875 4.875 0 0 0 2 3.9 5.234 5.234 0 0 0 2.7 1 4.962 4.962 0 0 0-1.1 3.2 4.908 4.908 0 0 0 4.9 4.9 5.389 5.389 0 0 0 3-1 4.875 4.875 0 0 0 2-3.9 4.937 4.937 0 0 0-4.7-4.9 5.044 5.044 0 0 0-1.4-7.5 12.909 12.909 0 0 1 4.9-1.4c8.9-.9 16.3 6 14 21.1-1 6.3 2.4 9.8 3.9 11.6a1.8 1.8 0 0 1-1 2.8z" data-name="패스 1243"/>
            </g>
            <g id="prefix__그룹_1240" data-name="그룹 1240">
                <path id="prefix__패스_1244" d="M288.6 215.2a5.167 5.167 0 0 1-1.1 3.2h-.3a5.853 5.853 0 0 0-1.3.2 5.148 5.148 0 0 0-2.5 1.6 4.268 4.268 0 0 1-2.7-1 4.875 4.875 0 0 1-2-3.9 5.547 5.547 0 0 1 1.2-3.3 4.983 4.983 0 0 1 3.7-1.7 4.967 4.967 0 0 1 5 4.9z" class="prefix__cls-2" data-name="패스 1244"/>
            </g>
            <g id="prefix__그룹_1241" data-name="그룹 1241">
                <path id="prefix__패스_1245" d="M292.1 223.2a4.875 4.875 0 0 1-2 3.9 5.141 5.141 0 0 1-3 1 4.908 4.908 0 0 1-4.9-4.9 5.167 5.167 0 0 1 1.1-3.2 4.73 4.73 0 0 1 2.5-1.6 5.852 5.852 0 0 1 1.3-.2h.3a5.094 5.094 0 0 1 4.7 5z" class="prefix__cls-5" data-name="패스 1245"/>
            </g>
            <g id="prefix__그룹_1242" data-name="그룹 1242">
                <path id="prefix__패스_1246" d="M161.7 447.1c-.6 1.3-15.2-2.9-24-5.6-8.2-2.5-25.5-7-24.5-10.1.7-2.4 19.3 4.5 26.3 6.9 5.6 1.9 22.9 7.5 22.2 8.8z" class="prefix__cls-16" data-name="패스 1246"/>
            </g>
            <g id="prefix__그룹_1243" data-name="그룹 1243">
                <path id="prefix__패스_1247" d="M238.2 418.6a27.8 27.8 0 0 1-4 1.6c-3.9 1.2-7.9 1.3-10.9.2a8.373 8.373 0 0 1-2.9-2 7.1 7.1 0 0 1-1-1.4c-.1-.2-.2-.3-.2-.5l-.1-.2-.4-.9-.9.4a7.62 7.62 0 0 1-2 .6c-3.2.4-5.4-.3-5.9-2.1a2.1 2.1 0 0 1 .8-2.4c1-.4 2.4-.9 3.8-1.4 1.1-.4 2.2-.8 3.2-1.2h.1a6.372 6.372 0 0 1 .7-.2l.5-.1.2-.5c.1-.2.1-.3.2-.5a15.755 15.755 0 0 1 4.5-5.3 21.658 21.658 0 0 1 4.2-2.7 22.105 22.105 0 0 1 8.6-2.5 11.69 11.69 0 0 1 5 .7 6.779 6.779 0 0 1 4.2 3.7 11.076 11.076 0 0 1 .8 3.6c.3 4.7-2.2 10-8.5 13.1z" class="prefix__cls-8" data-name="패스 1247"/>
            </g>
            <g id="prefix__그룹_1244" data-name="그룹 1244">
                <path id="prefix__패스_1248" d="M244.4 282.9c-.1.2-3.3 5-12.1 5.4a14.768 14.768 0 0 1-2.1-.1l-.9-3.1a3.455 3.455 0 0 0-2.1-2.3 1.445 1.445 0 0 0-.7-.2c2.1.3 7.8.7 16.7-1a1.068 1.068 0 0 1 1.1.3.9.9 0 0 1 .1 1z" class="prefix__cls-9" data-name="패스 1248"/>
            </g>
        </g>
        <g id="prefix__그룹_1249" data-name="그룹 1249">
            <g id="prefix__그룹_1246" data-name="그룹 1246">
                <path id="prefix__패스_1249" d="M326.1 48.7a4.041 4.041 0 0 1-2.2-.7l-7.4-4.8c-2-1.3-2.4-2.3-2.1-4.6l1.2-8.7a3.836 3.836 0 0 1 2.6-3.4l2.3-1.1a3.258 3.258 0 0 1 1.3-.4 1.421 1.421 0 0 1 .6.2c.4.3.5.8.3 1.7l-1.3 10c-.2 1.3-.1 1.5 1 2.2l8.5 5.5c.8.5 1.1.9 1.1 1.4s-.5.9-1.4 1.3l-2.3 1.1a12.129 12.129 0 0 1-1.4.5 1.718 1.718 0 0 0-.8-.2z" class="prefix__cls-2" data-name="패스 1249"/>
            </g>
            <g id="prefix__그룹_1247" data-name="그룹 1247">
                <path id="prefix__패스_1250" d="M334.8 43.9a1.445 1.445 0 0 1-.7-.2 1.755 1.755 0 0 1-.6-1.5l.2-20.2c0-1.7.6-2.5 2.3-3.3l2.6-1.2a4.6 4.6 0 0 1 1.3-.4.845.845 0 0 1 .6.2 1.755 1.755 0 0 1 .6 1.5l-.3 20.2c0 1.7-.6 2.5-2.3 3.3l-2.6 1.2a1.613 1.613 0 0 1-.9.3c.1.1-.1.1-.2.1z" class="prefix__cls-2" data-name="패스 1250"/>
            </g>
            <g id="prefix__그룹_1248" data-name="그룹 1248">
                <path id="prefix__패스_1251" d="M352.6 36.2a1.421 1.421 0 0 1-.6-.2c-.4-.3-.5-.8-.3-1.7l1.3-10c.2-1.3.1-1.5-1-2.2l-8.5-5.5c-.8-.5-1.1-.9-1.1-1.4s.5-.9 1.4-1.3l2.3-1.1a4.19 4.19 0 0 1 2-.5 3.518 3.518 0 0 1 2.2.8l7.4 4.8c2 1.3 2.4 2.3 2.1 4.6l-1.2 8.7a3.836 3.836 0 0 1-2.6 3.4l-2.3 1.1c-.3.1-.7.3-1 .4.1.1-.1.1-.1.1z" class="prefix__cls-2" data-name="패스 1251"/>
            </g>
        </g>
        <g id="prefix__그룹_1257" data-name="그룹 1257">
            <g id="prefix__그룹_1250" data-name="그룹 1250">
                <path id="prefix__패스_1252" d="M209.6 60.6a1.6 1.6 0 0 1-.8-.3l-2-1.1a1.212 1.212 0 0 1-.6-1.9l5-9.2-1-.7a1.1 1.1 0 0 1-.3-1.7l.8-1.5c.4-.8.9-.8 1-.8a1.6 1.6 0 0 1 .8.3l4.1 2.2c.9.5 1 1 .5 1.9l-6.6 12.1c-.4.7-.8.7-.9.7z" class="prefix__cls-2" data-name="패스 1252"/>
            </g>
            <g id="prefix__그룹_1251" data-name="그룹 1251">
                <path id="prefix__패스_1253" d="M225 68.6a8.935 8.935 0 0 1-3.7-1l-.6-.3a6.928 6.928 0 0 1-3.6-4.5 9.289 9.289 0 0 1 1.2-6.3l.1-.5c1.7-3.1 4.1-4.8 6.7-4.8a7.016 7.016 0 0 1 3.6 1l.6.3a7.171 7.171 0 0 1 3.7 4.4 9.289 9.289 0 0 1-1.2 6.3l-.2.3c-1.7 3.3-4 5.1-6.6 5.1zm.7-12.8c-1.1 0-2 .8-2.8 2.3l-.5.9a3.775 3.775 0 0 0-.6 3.1 2.03 2.03 0 0 0 1.1 1.3l.6.3a1.78 1.78 0 0 0 1.1.3c1.1 0 2-.8 2.8-2.3l.4-.8a4.334 4.334 0 0 0 .7-3.1 2.03 2.03 0 0 0-1.1-1.3l-.6-.3a1.6 1.6 0 0 0-1.1-.4z" class="prefix__cls-2" data-name="패스 1253"/>
            </g>
            <g id="prefix__그룹_1252" data-name="그룹 1252">
                <path id="prefix__패스_1254" d="M237.4 75.8a1.6 1.6 0 0 1-.8-.3l-2-1.1a1.212 1.212 0 0 1-.6-1.9l5-9.2-1-.7a1.1 1.1 0 0 1-.3-1.7l.8-1.5c.4-.8.9-.8 1-.8a1.6 1.6 0 0 1 .8.3l4.1 2.2a1.212 1.212 0 0 1 .6 1.9l-6.6 12c-.4.8-.9.8-1 .8z" class="prefix__cls-2" data-name="패스 1254"/>
            </g>
            <g id="prefix__그룹_1253" data-name="그룹 1253">
                <path id="prefix__패스_1255" d="M252.8 83.7a8.935 8.935 0 0 1-3.7-1l-.6-.3c-4-2.2-4.9-6.2-2.4-10.8l.2-.3c1.7-3.1 4.1-4.8 6.7-4.8a7.016 7.016 0 0 1 3.6 1l.6.3a6.866 6.866 0 0 1 3.7 4.4 9.2 9.2 0 0 1-1.3 6.4l-.2.3c-1.6 3.1-4 4.8-6.6 4.8zm.7-12.7c-1.1 0-2 .8-2.8 2.3l-.4.8a4.334 4.334 0 0 0-.7 3.1 2.03 2.03 0 0 0 1.1 1.3l.6.3a1.78 1.78 0 0 0 1.1.3c1.1 0 2-.8 2.8-2.3l.4-.8a4.334 4.334 0 0 0 .7-3.1 2.03 2.03 0 0 0-1.1-1.3l-.6-.3a2.431 2.431 0 0 0-1.1-.3z" class="prefix__cls-2" data-name="패스 1255"/>
            </g>
            <g id="prefix__그룹_1254" data-name="그룹 1254">
                <path id="prefix__패스_1256" d="M270.1 93.2a8.935 8.935 0 0 1-3.7-1l-.6-.3a7 7 0 0 1-3.6-4.4 9.655 9.655 0 0 1 1.2-6.4l.2-.4c1.7-3.1 4.1-4.8 6.7-4.8a7.016 7.016 0 0 1 3.6 1l.6.3a6.866 6.866 0 0 1 3.7 4.4 9.2 9.2 0 0 1-1.3 6.4l-.2.3c-1.6 3.2-4.1 4.9-6.6 4.9zm.7-12.8c-1.1 0-2 .8-2.8 2.3l-.4.8a4.334 4.334 0 0 0-.7 3.1 2.03 2.03 0 0 0 1.1 1.3l.6.3a1.78 1.78 0 0 0 1.1.3c1.1 0 2-.8 2.8-2.3l.5-.8c1.5-2.8.4-3.9-.4-4.4l-.6-.3c-.4 0-.8-.3-1.2-.3z" class="prefix__cls-2" data-name="패스 1256"/>
            </g>
            <g id="prefix__그룹_1255" data-name="그룹 1255">
                <path id="prefix__패스_1257" d="M282.5 100.4a1.6 1.6 0 0 1-.8-.3l-2-1.1a1.212 1.212 0 0 1-.6-1.9l5-9.2-1-.7a1.1 1.1 0 0 1-.3-1.7l.8-1.5c.4-.8.9-.8 1-.8a1.6 1.6 0 0 1 .8.3l4.1 2.2c.9.5 1 1 .5 1.9l-6.6 12.1a.964.964 0 0 1-.9.7z" class="prefix__cls-2" data-name="패스 1257"/>
            </g>
            <g id="prefix__그룹_1256" data-name="그룹 1256">
                <path id="prefix__패스_1258" d="M292.9 106.1a1.6 1.6 0 0 1-.8-.3l-2-1.1a1.212 1.212 0 0 1-.6-1.9l5-9.2-1-.7a1.1 1.1 0 0 1-.3-1.7l.8-1.5c.4-.8.9-.8 1-.8a1.6 1.6 0 0 1 .8.3l4.1 2.2a1.212 1.212 0 0 1 .6 1.9l-6.6 12.1a1.143 1.143 0 0 1-1 .7z" class="prefix__cls-2" data-name="패스 1258"/>
            </g>
        </g>
    </g>
</svg>
