<svg xmlns="http://www.w3.org/2000/svg" id="prefix__signup-illustration" width="330" height="483.5" viewBox="0 0 330 483.5">
    <defs>
        <clipPath id="prefix__clip-path">
            <path id="prefix__사각형_315" d="M0 0H330V483.5H0z" data-name="사각형 315"/>
        </clipPath>
        <style>
            .prefix__cls-2{fill:#ffeae6}.prefix__cls-3{fill:#ffb4ae}.prefix__cls-4{fill:#f5503d}.prefix__cls-5{fill:#fff}.prefix__cls-7{fill:#ffc3c0}.prefix__cls-8{fill:#45a4f6}.prefix__cls-10{fill:#dcdcdc}
        </style>
    </defs>
    <g id="prefix__그룹_1704" data-name="그룹 1704">
        <g id="prefix__그룹_1703" data-name="그룹 1703">
            <g id="prefix__그룹_1702" data-name="그룹 1702">
                <g id="prefix__그룹_1700" data-name="그룹 1700">
                    <g id="prefix__그룹_1669" data-name="그룹 1669">
                        <path id="prefix__패스_1748" d="M154.9 17.9c-1.4 2.2-3 8-3.8 11.2-.2 0-.3.1-.5.1a78.172 78.172 0 0 0-23.7 12.7c-.1.1-.2.1-.2.2-3.8-2.1-7.6-6.9-6.4-12.4 1.5-7 7.5-10 12.2-11.2a8.219 8.219 0 0 1 2.1-.2c.8 0 1.6 0 2.1-.8.5-.9.1-2-1.1-4.5-2.8-5.6-2.8-9.4-1.3-10.3a1.929 1.929 0 0 1 1-.3 1.268 1.268 0 0 1 .6.1c1.4.4 3.1 2.2 4.6 5a26.7 26.7 0 0 1 1.2 2.4 46.348 46.348 0 0 0 3.6 6.2 2.836 2.836 0 0 0 2 1.2 2.928 2.928 0 0 0 2.2-.7 7.006 7.006 0 0 0 .8-1 5.162 5.162 0 0 1 1.8-1.8c1.3-.6 2.5-.6 3.1.1.7.8.8 2.3-.3 4z" class="prefix__cls-2" data-name="패스 1748"/>
                    </g>
                    <g id="prefix__그룹_1670" data-name="그룹 1670">
                        <path id="prefix__패스_1749" d="M156.8 19.1a49.743 49.743 0 0 0-3.3 9.4 5.638 5.638 0 0 0-1.2.4 5.638 5.638 0 0 0-1.2.4c.8-3.2 2.4-9 3.8-11.2 1.1-1.7.9-3.2.3-3.9s-1.8-.7-3.1-.1a3.918 3.918 0 0 0-1.8 1.8 8.744 8.744 0 0 1-.8 1 2.578 2.578 0 0 1-2.2.7 2.836 2.836 0 0 1-2-1.2 37.4 37.4 0 0 1-3.6-6.2c-.4-.7-.7-1.5-1.2-2.4-1.5-2.8-3.2-4.6-4.6-5a1.268 1.268 0 0 0-.6-.1 1.689 1.689 0 0 0-1 .3c-1.4.8-1.5 4.6 1.3 10.3 1.2 2.5 1.7 3.6 1.1 4.5-.5.8-1.3.8-2.1.8a8.219 8.219 0 0 0-2.1.2C127.8 20 121.9 23 120.3 30c-1.2 5.5 2.5 10.3 6.4 12.4-.3.2-.6.5-.9.7s-.6.5-.9.7c-4.2-2.7-8.1-8.1-6.7-14.3 1.8-8.1 8.4-11.4 13.7-12.8a9.313 9.313 0 0 1 2.6-.3h.1c-.2-.5-.5-1.2-1-2.2-3.2-6.4-3.3-11.4-.5-13.1a4.185 4.185 0 0 1 3.3-.4c2 .6 4.1 2.7 5.9 6 .5.9.9 1.7 1.3 2.4a38.529 38.529 0 0 0 3.5 6 .536.536 0 0 0 .4.3.646.646 0 0 0 .5-.2 4.35 4.35 0 0 0 .6-.7 6.138 6.138 0 0 1 2.6-2.4c2.2-1.1 4.3-.8 5.6.6 1.4 1.5 1.4 4 0 6.4z" class="prefix__cls-3" data-name="패스 1749"/>
                    </g>
                    <g id="prefix__그룹_1671" data-name="그룹 1671">
                        <path id="prefix__패스_1750" d="M231.5 261.1l-.1.1a7.614 7.614 0 0 1-1.2 1c.6-.4.9-.8 1.3-1.1z" class="prefix__cls-4" data-name="패스 1750"/>
                    </g>
                    <g id="prefix__그룹_1672" data-name="그룹 1672">
                        <path id="prefix__패스_1751" d="M195.8 89c-1.2 1.9-3.8 1.1-4.9.5s-3.6-2.4-2.7-4.6c.7-1.7 2.6-2.6 5.1-1.3a8.32 8.32 0 0 1 1.8 1.3l1.1 2.1a3.02 3.02 0 0 1-.4 2z" class="prefix__cls-5" data-name="패스 1751"/>
                        <path id="prefix__패스_1752" d="M214.8 151.4a2.021 2.021 0 0 1-2.3 1.7 2.022 2.022 0 1 1 .6-4 2.4 2.4 0 0 1 1.7 2.3z" class="prefix__cls-5" data-name="패스 1752"/>
                    </g>
                    <g id="prefix__그룹_1673" data-name="그룹 1673">
                        <path id="prefix__패스_1753" d="M237.6 115.1a1.07 1.07 0 0 0-1.5 1.1v7c-1.5 4.1-5.3 12-12.7 13.6a12.889 12.889 0 0 1-5.2.1c-8.1-1.3-6.5-7.3-4.7-10.9a1.087 1.087 0 0 0 .1-.5s-.3-1.6-.5-3.2a10.133 10.133 0 0 0 2.6.4c7.6.3 10.7-3.6 10.9-3.8a.761.761 0 0 0 .1-.9 1.159 1.159 0 0 0-1-.4 50.982 50.982 0 0 1-12.8-.1c-.7-.1-1.3-.2-1.7-.3a.6.6 0 0 0-.4-.1c-9.9-1.9-22-9.6-23.8-25.2a28.477 28.477 0 0 1 1.2-13.3c.6-1 1.2-1.9 1.8-2.9 4.6-6.9 11-13.2 19.9-16.5a17.052 17.052 0 0 0-3.3 6.9 1.244 1.244 0 0 0 2 1.2 22.369 22.369 0 0 1 6.2-3.1c.6-.2.9.4.6.7a10.153 10.153 0 0 0-2.7 5.5 1.594 1.594 0 0 0 2.8 1.2 16 16 0 0 1 5.9-4.2c.4-.2.9.2.7.6a19.619 19.619 0 0 0-1.4 6.9c.1 1.2 1.3 1.6 2.3.6a64.343 64.343 0 0 1 5-4.6 72.918 72.918 0 0 0 8.2 19.6c.1.2.2.3.3.5.2.3.4.7.6 1 1.4 2.3 3 4.8 4.8 7.3a3.418 3.418 0 0 0 3.1 1.4 6.409 6.409 0 0 1 6.1 4.1c2.2 5.6-5 15.2-13.5 10.3z" class="prefix__cls-2" data-name="패스 1753"/>
                    </g>
                    <g id="prefix__그룹_1674" data-name="그룹 1674">
                        <path id="prefix__패스_1754" d="M246.4 110.1a4.2 4.2 0 0 1-5.6 1.3.523.523 0 0 1-.1-.9 6.023 6.023 0 0 0 2.9-3.6 1.8 1.8 0 0 1 3.3-.8 3.806 3.806 0 0 1-.5 4z" class="prefix__cls-3" data-name="패스 1754"/>
                    </g>
                    <g id="prefix__그룹_1675" data-name="그룹 1675">
                        <path id="prefix__패스_1755" d="M209.5 90.2c-.4 1-1.7.8-2.3.5-.6-.2-1.9-.9-1.6-2 .2-.9 1.1-1.4 2.4-.9 1.2.5 1.9 1.4 1.5 2.4z" data-name="패스 1755" style="fill:#ff9b99"/>
                    </g>
                    <g id="prefix__그룹_1676" data-name="그룹 1676">
                        <path id="prefix__패스_1756" d="M227.6 104.6c-.9 2.1-3.7 1.7-4.9 1.2s-4-1.9-3.4-4.3c.4-1.8 2.3-3 5-2 2.8 1 4.2 3 3.3 5.1z" class="prefix__cls-7" data-name="패스 1756"/>
                    </g>
                    <g id="prefix__그룹_1677" data-name="그룹 1677">
                        <path id="prefix__패스_1757" d="M195.8 89c-1.2 1.9-3.8 1.1-4.9.5s-3.6-2.4-2.7-4.6c.7-1.7 2.6-2.6 5.1-1.3a8.32 8.32 0 0 1 1.8 1.3 3.6 3.6 0 0 1 1.1 2.1 3.02 3.02 0 0 1-.4 2z" class="prefix__cls-7" data-name="패스 1757"/>
                    </g>
                    <g id="prefix__그룹_1678" data-name="그룹 1678">
                        <path id="prefix__패스_1758" d="M202.8 82.1c-1 2.5-2.9 3.7-4.9 2.8-1.9-.9-1.4-3.5-.9-4.6s2-3.6 4.1-3c1.8.5 2.7 2.3 1.7 4.8z" data-name="패스 1758"/>
                    </g>
                    <g id="prefix__그룹_1679" data-name="그룹 1679">
                        <path id="prefix__패스_1759" d="M223.9 93.7c-1.1 2.5-2.9 3.7-4.9 2.8-1.9-.9-1.4-3.5-.9-4.6s2-3.6 4.1-3c1.8.5 2.8 2.3 1.7 4.8z" data-name="패스 1759"/>
                    </g>
                    <g id="prefix__그룹_1680" data-name="그룹 1680">
                        <path id="prefix__패스_1760" d="M214.8 151.4a2.021 2.021 0 0 1-2.3 1.7 2.022 2.022 0 1 1 .6-4 2.4 2.4 0 0 1 1.7 2.3z" class="prefix__cls-5" data-name="패스 1760"/>
                        <path id="prefix__패스_1761" d="M208.6 174.2a2.021 2.021 0 0 1-2.3 1.7 2.022 2.022 0 1 1 .6-4 2.021 2.021 0 0 1 1.7 2.3z" class="prefix__cls-5" data-name="패스 1761"/>
                        <path id="prefix__패스_1762" d="M211.6 162.8a2.022 2.022 0 0 1-4-.6 1.97 1.97 0 0 1 2.3-1.7 2.021 2.021 0 0 1 1.7 2.3z" class="prefix__cls-5" data-name="패스 1762"/>
                        <path id="prefix__패스_1763" d="M252.1 253.2a.1.1 0 0 1-.1-.1z" class="prefix__cls-5" data-name="패스 1763"/>
                        <path id="prefix__패스_1764" d="M268 201.9c-.1.6-.2 1.1-.3 1.7L242 223.1a1.136 1.136 0 0 1-.8.3 1.606 1.606 0 0 1-1.1-.5 1.417 1.417 0 0 1 .3-1.9l25.6-19.6a1.417 1.417 0 0 1 1.9.3c0 .1.1.1.1.2z" class="prefix__cls-5" data-name="패스 1764"/>
                    </g>
                    <g id="prefix__그룹_1681" data-name="그룹 1681">
                        <path id="prefix__패스_1765" d="M226.8 119c-.1.2-3.2 4.1-10.9 3.8a9.473 9.473 0 0 1-2.6-.4c-.2-1.5-.5-2.9-.5-3.2a2.255 2.255 0 0 0-1.3-1.8c.4.1 1 .2 1.7.3a50.812 50.812 0 0 0 12.8.1c.4 0 .8 0 1 .4-.1.3-.1.5-.2.8z" class="prefix__cls-3" data-name="패스 1765"/>
                    </g>
                    <g id="prefix__그룹_1682" data-name="그룹 1682">
                        <path id="prefix__패스_1766" d="M213.8 125.6a.727.727 0 0 0-1.2-.4 5.5 5.5 0 0 0-.9.7c-.1-.7-1-5.8-1.1-6.3a.349.349 0 0 0-.1-.2c-10.6-2-23.6-10.4-25.5-27.1a30.811 30.811 0 0 1 1.2-13.8c0 .2.1.3.1.4a.95.95 0 0 0 1 .6.891.891 0 0 0 .8-.5c.1-.1.1-.2.2-.4a28.477 28.477 0 0 0-1.2 13.3c1.7 15.6 13.9 23.3 23.8 25.2.1 0 .3.1.4.1a2.115 2.115 0 0 1 1.3 1.8c0 .3.3 1.7.5 3.2.3 1.8.7 3.4.7 3.4z" class="prefix__cls-7" data-name="패스 1766"/>
                    </g>
                    <g id="prefix__그룹_1683" data-name="그룹 1683">
                        <path id="prefix__패스_1767" d="M277.1 89.7a30.771 30.771 0 0 1-12.1 15.9 57.921 57.921 0 0 1-15.6 7.1c1.9-2.4 2.7-5.5 1.8-7.7a6.409 6.409 0 0 0-6.1-4.1 3.661 3.661 0 0 1-3.1-1.4c-1.8-2.5-3.5-4.9-4.9-7.3-.2-.3-.4-.7-.6-1-.1-.2-.2-.3-.3-.5a71 71 0 0 1-8.2-19.6c-2.2 2-3.8 3.3-5 4.6-1 1.1-2.2.6-2.3-.6a19.62 19.62 0 0 1 1.4-6.9c.2-.4-.3-.8-.7-.6a16.9 16.9 0 0 0-5.9 4.2 1.608 1.608 0 0 1-2.8-1.2 9.8 9.8 0 0 1 2.7-5.5.478.478 0 0 0-.6-.7 18.868 18.868 0 0 0-6.2 3.1 1.244 1.244 0 0 1-2-1.2 17.739 17.739 0 0 1 3.3-6.9C201 62.7 194.6 69 190 75.9a22.873 22.873 0 0 0-1.8 2.9c-.1.1-.1.2-.2.4a1.02 1.02 0 0 1-.8.5 1.1 1.1 0 0 1-1-.6.6.6 0 0 1-.1-.4c-.7-2.1-.9-5.9-.3-10.6a49.655 49.655 0 0 1 5.6-17c4.4-8.1 11.7-14.7 20.1-17.4 24.8-8 36.8 4.1 36.8 4.1a40.443 40.443 0 0 1 5.2.7c11.7 2 21.1 13.2 24.6 25.4a46.928 46.928 0 0 1-1 25.8z" data-name="패스 1767"/>
                    </g>
                    <g id="prefix__그룹_1688" data-name="그룹 1688">
                        <g id="prefix__그룹_1684" data-name="그룹 1684">
                            <path id="prefix__패스_1768" d="M238.8 134.6a28.838 28.838 0 0 1-2.1 8.3 26.024 26.024 0 0 1-5.6 8.7 2.936 2.936 0 0 1-4 .1l-.6-.6-1.8-1.8-8.3-8.5-10.5 2.7-4.7 1.2a1.68 1.68 0 0 1-1.8-2.3 34.294 34.294 0 0 1 2.7-5.8 36.85 36.85 0 0 1 9.6-10.7 5.5 5.5 0 0 1 .9-.7.844.844 0 0 1 1.2.4.9.9 0 0 1-.1.5c-1.8 3.6-3.4 9.6 4.7 10.9a14.975 14.975 0 0 0 5.2-.1c7.3-1.6 11.2-9.5 12.7-13.6v-.1c0-.1.1-.1.1-.2a.1.1 0 0 1 .1-.1.823.823 0 0 1 1.2.1c.1.1.1.2.2.3a34.279 34.279 0 0 1 .9 11.3z" class="prefix__cls-8" data-name="패스 1768"/>
                        </g>
                        <g id="prefix__그룹_1685" data-name="그룹 1685">
                            <path id="prefix__패스_1769" d="M214.8 151.4a2.021 2.021 0 0 1-2.3 1.7 2.022 2.022 0 1 1 .6-4 2.4 2.4 0 0 1 1.7 2.3z" class="prefix__cls-8" data-name="패스 1769"/>
                        </g>
                        <g id="prefix__그룹_1686" data-name="그룹 1686">
                            <path id="prefix__패스_1770" d="M211.6 162.8a2.022 2.022 0 0 1-4-.6 1.97 1.97 0 0 1 2.3-1.7 2.021 2.021 0 0 1 1.7 2.3z" class="prefix__cls-8" data-name="패스 1770"/>
                        </g>
                        <g id="prefix__그룹_1687" data-name="그룹 1687">
                            <path id="prefix__패스_1771" d="M208.6 174.2a2.021 2.021 0 0 1-2.3 1.7 2.022 2.022 0 1 1 .6-4 2.021 2.021 0 0 1 1.7 2.3z" class="prefix__cls-8" data-name="패스 1771"/>
                        </g>
                    </g>
                    <g id="prefix__그룹_1690" data-name="그룹 1690">
                        <g id="prefix__그룹_1689" data-name="그룹 1689">
                            <path id="prefix__패스_1772" d="M243.2 275.4a43.72 43.72 0 0 0 14.2-15.3 22.925 22.925 0 0 1-2.7-1.7 85.685 85.685 0 0 1-10.6 11.4 7.552 7.552 0 0 1-1.4 1.1 22.629 22.629 0 0 1-2 1.3c-3 1.7-5.5 2.6-7.4 2.6a3.748 3.748 0 0 1-3.3-1.5 3.248 3.248 0 0 1-.6-2.7 2.354 2.354 0 0 1 .2-.8 2.768 2.768 0 0 1-.9.1h-.4a3.383 3.383 0 0 1-2.7-1.6 4.17 4.17 0 0 1-.6-2.7 2.544 2.544 0 0 1 .2-.7 2.2 2.2 0 0 1-.8.1h-.5a3.02 3.02 0 0 1-2.5-1.7c-1.7-2.7.9-6.1 3.9-8.7.3-.2.5-.5.8-.7a.367.367 0 0 1-.3-.1 3.313 3.313 0 0 1-2.1-1.9c-1.6-3.3 1.3-6.2 4.7-8.8a28.241 28.241 0 0 1 3.1-2.1l.3-.2a18.839 18.839 0 0 1 2.4-1.4c-10.2-8.1-20.2-16.5-25.6-21.8-15.1-14.5-28.3-30.7-41.4-39.6a40.909 40.909 0 0 0-5.6-3.3c-13.7-7-28.9-3.5-36.8 4.2-16.6 16.3-29.3 43.4-41.2 71.9 0 0 21.5 21.8 48.1 26.4l13.2-29.1c1.1-2.5 4-2.7 6.1-.5 3.3 3.5 13.5 16.6 27.3 25.9l16.9 113.7 62.6-1zm-17.2 8.3a50.349 50.349 0 0 1-41-5.2 1.1 1.1 0 0 1-.6-1 1.077 1.077 0 0 1 .2-.8 1.3 1.3 0 0 1 1.8-.4c18.6 11.8 38.5 5 38.7 4.9a1.38 1.38 0 0 1 1.7.8.9.9 0 0 1 .1.5 1.4 1.4 0 0 1-.9 1.2z" class="prefix__cls-4" data-name="패스 1772"/>
                            <path id="prefix__패스_1773" d="M252.1 253.2a.1.1 0 0 1-.1-.1z" class="prefix__cls-4" data-name="패스 1773"/>
                        </g>
                    </g>
                    <g id="prefix__그룹_1691" data-name="그룹 1691">
                        <path id="prefix__패스_1774" d="M226.9 282.5a1.4 1.4 0 0 1-.9 1.2 50.349 50.349 0 0 1-41-5.2 1.1 1.1 0 0 1-.6-1 1.077 1.077 0 0 1 .2-.8 1.3 1.3 0 0 1 1.8-.4c18.6 11.8 38.5 5 38.7 4.9a1.38 1.38 0 0 1 1.7.8.9.9 0 0 1 .1.5z" data-name="패스 1774" style="fill:#ff928a"/>
                    </g>
                    <g id="prefix__그룹_1695" data-name="그룹 1695">
                        <g id="prefix__그룹_1692" data-name="그룹 1692">
                            <path id="prefix__패스_1775" d="M252 253.1l.1.1z" class="prefix__cls-2" data-name="패스 1775"/>
                            <path id="prefix__패스_1776" d="M252.5 256.9a71.652 71.652 0 0 1-10.2 10.9l-.1.1a19.409 19.409 0 0 1-2.9 2.1c-3.6 2.1-6.6 2.8-7.3 1.8-.1-.1-.2-.3-.1-.7.3-2 4-5.2 6.2-6.7a1.02 1.02 0 0 0 .5-.8 1.232 1.232 0 0 0-.2-1 1.3 1.3 0 0 0-1.9-.3 20.011 20.011 0 0 0-2.6 2c-.1.1-.3.1-.4.2-1 1-3.6 2.9-5.1 2.8a.891.891 0 0 1-.8-.5c-.1-.1-.2-.3-.1-.7a8.407 8.407 0 0 1 2.7-3.8 6.886 6.886 0 0 1 1.3-1.1 18.257 18.257 0 0 1 1.6-1.3c.4-.3.7-.5 1-.7a1.373 1.373 0 1 0-1.5-2.3c-.2.1-.9.7-1.9 1.4-.6.5-1.4 1.1-2.1 1.8-1.5 1.2-3.4 2.3-4.6 2.2a.723.723 0 0 1-.6-.4c-.7-1.1 1.2-3.4 3.9-5.8a30.7 30.7 0 0 1 4.5-3.3 7.371 7.371 0 0 0 1.1-.6 1.252 1.252 0 0 0 .5-1.8 1.334 1.334 0 0 0-1.8-.5 9.293 9.293 0 0 1-1 .5h-.1c-1.5.7-3.3 1.2-4.3.9a.642.642 0 0 1-.5-.5c-.9-1.9 2.3-4.4 5.5-6.6a16.964 16.964 0 0 0 1.4-1l.3-.2a20.161 20.161 0 0 1 3.2-1.8c.7-.3 1.4-.6 2-.9a31.352 31.352 0 0 0 2.5 4.4 48.809 48.809 0 0 0 10.1 10.9c.7.5 1.2.9 1.8 1.3z" class="prefix__cls-2" data-name="패스 1776"/>
                        </g>
                        <g id="prefix__그룹_1694" data-name="그룹 1694">
                            <g id="prefix__그룹_1693" data-name="그룹 1693">
                                <path id="prefix__패스_1777" d="M254.6 258.4a85.685 85.685 0 0 1-10.6 11.4 7.552 7.552 0 0 1-1.4 1.1 22.629 22.629 0 0 1-2 1.3c-3 1.7-5.5 2.6-7.4 2.6a3.748 3.748 0 0 1-3.3-1.5 3.248 3.248 0 0 1-.6-2.7 2.354 2.354 0 0 1 .2-.8 2.768 2.768 0 0 1-.9.1h-.4a3.383 3.383 0 0 1-2.7-1.6 4.17 4.17 0 0 1-.6-2.7 2.544 2.544 0 0 1 .2-.7 2.2 2.2 0 0 1-.8.1h-.5a3.02 3.02 0 0 1-2.5-1.7c-1.7-2.7.9-6.1 3.9-8.7.3-.2.5-.5.8-.7a.367.367 0 0 1-.3-.1 3.313 3.313 0 0 1-2.1-1.9c-1.6-3.3 1.3-6.2 4.7-8.8a28.241 28.241 0 0 1 3.1-2.1l.3-.2a18.839 18.839 0 0 1 2.4-1.4c1.1-.6 2.3-1.1 3.2-1.5a10.38 10.38 0 0 0 .4 1 9.143 9.143 0 0 0 .7 1.4c-.6.3-1.3.5-2 .9a20.16 20.16 0 0 0-3.2 1.8l-.3.2a12.134 12.134 0 0 0-1.4 1c-3.2 2.2-6.4 4.7-5.5 6.6a1.205 1.205 0 0 0 .5.5c1 .3 2.8-.2 4.3-.9h.1a9.293 9.293 0 0 0 1-.5 1.286 1.286 0 0 1 1.8.5 1.31 1.31 0 0 1-.5 1.8 7.371 7.371 0 0 1-1.1.6 52.208 52.208 0 0 0-4.5 3.3c-2.7 2.4-4.6 4.7-3.9 5.8a.723.723 0 0 0 .6.4c1.1.1 3.1-1 4.6-2.2.7-.7 1.5-1.3 2.1-1.8.9-.7 1.7-1.2 1.9-1.4a1.373 1.373 0 1 1 1.5 2.3c-.3.2-.7.5-1 .7-.5.4-1 .8-1.6 1.3-.4.4-.9.7-1.3 1.1a8.407 8.407 0 0 0-2.7 3.8.758.758 0 0 0 .1.7 1.374 1.374 0 0 0 .8.5c1.6.1 4.1-1.8 5.1-2.8a.52.52 0 0 1 .4-.2 31.373 31.373 0 0 1 2.6-2 1.417 1.417 0 0 1 1.9.3 1.232 1.232 0 0 1 .2 1 2.177 2.177 0 0 1-.5.8c-2.2 1.5-5.9 4.7-6.2 6.7-.1.4 0 .6.1.7.7 1 3.6.3 7.3-1.8a19.407 19.407 0 0 0 2.9-2.1l.1-.1a71.651 71.651 0 0 0 10.2-10.9c.4.3.7.5 1.1.8 0 .2.4.5.7.7z" class="prefix__cls-3" data-name="패스 1777"/>
                            </g>
                        </g>
                    </g>
                    <g id="prefix__그룹_1696" data-name="그룹 1696">
                        <path id="prefix__패스_1778" d="M260.4 128.3a.1.1 0 0 1-.1-.1 80.564 80.564 0 0 0-9.5-3.5c-.1 0-.2 0-.2-.1-.1 0-.1 0-.2-.1h-.2a60.085 60.085 0 0 0-12.5-1.6c.1.1.1.2.2.3a32.7 32.7 0 0 1 1 11.4 28.838 28.838 0 0 1-2.1 8.3 26.024 26.024 0 0 1-5.6 8.7 2.936 2.936 0 0 1-4 .1l-.6-.6-1.8-1.8-8.3-8.5-10.5 2.7-4.7 1.2a1.68 1.68 0 0 1-1.8-2.3 34.294 34.294 0 0 1 2.7-5.8 36.85 36.85 0 0 1 9.6-10.7c-.1-.7-1-5.8-1.1-6.3a.349.349 0 0 0-.1-.2c-10.6-2-23.6-10.4-25.5-27.1a30.811 30.811 0 0 1 1.2-13.8c-.7-2.1-.9-5.9-.3-10.6l-20.5-37.6a6.244 6.244 0 0 0-6.8-3.1c-1.3.3-2.9.7-4.6 1.2-.1 0-.2.1-.3.1a5.638 5.638 0 0 0-1.2.4 5.638 5.638 0 0 0-1.2.4c-.2 0-.3.1-.5.1a78.172 78.172 0 0 0-23.7 12.7c-.1.1-.2.1-.2.2-.3.2-.6.5-.9.7s-.6.5-.9.7l-.2.2c-.8.6-1.5 1.3-2.3 2a6.456 6.456 0 0 0-1.5 7.3l51.3 102.6-5.3 22.3c13.1 8.9 26.3 25 41.4 39.6 5.4 5.2 15.4 13.7 25.6 21.8 1.1-.6 2.3-1.1 3.2-1.5a40.088 40.088 0 0 1-1.6-4.9 1.347 1.347 0 0 1 1-1.6h.5a1.272 1.272 0 0 1 1.1 1 30.981 30.981 0 0 0 1.5 4.6c.1.2.2.5.3.7a8.864 8.864 0 0 0 .8 1.7 43.19 43.19 0 0 0 11.2 13.6l.1.1a13.033 13.033 0 0 0 2 1.5c.3.2.7.5 1 .7a8.338 8.338 0 0 0 1.2.8c.9.6 1.7 1.1 2.3 1.5a13.4 13.4 0 0 0 2.2 1.2 2.337 2.337 0 0 1 .7.7c7.2-3 43.3-19.5 46.7-51.5 5-50.1-30.2-72-48-79.8zm-51.8 45.9a2.021 2.021 0 0 1-2.3 1.7 2.022 2.022 0 1 1 .6-4 2.021 2.021 0 0 1 1.7 2.3zm3-11.4a2.022 2.022 0 0 1-4-.6 1.97 1.97 0 0 1 2.3-1.7 2.021 2.021 0 0 1 1.7 2.3zm3.2-11.4a2.021 2.021 0 0 1-2.3 1.7 2.022 2.022 0 1 1 .6-4 2.4 2.4 0 0 1 1.7 2.3zm53 52.1L242 223.1a1.136 1.136 0 0 1-.8.3 1.606 1.606 0 0 1-1.1-.5 1.417 1.417 0 0 1 .3-1.9l25.6-19.6a1.417 1.417 0 0 1 1.9.3c0 .1.1.1.1.2a1.226 1.226 0 0 1-.2 1.6z" class="prefix__cls-5" data-name="패스 1778"/>
                        <path id="prefix__패스_1779" d="M252.1 253.2a.1.1 0 0 1-.1-.1z" class="prefix__cls-5" data-name="패스 1779"/>
                        <path id="prefix__패스_1780" d="M267.8 203.5L242 223.1a1.136 1.136 0 0 1-.8.3 1.606 1.606 0 0 1-1.1-.5 1.417 1.417 0 0 1 .3-1.9l25.6-19.6a1.417 1.417 0 0 1 1.9.3c0 .1.1.1.1.2a1.226 1.226 0 0 1-.2 1.6z" class="prefix__cls-5" data-name="패스 1780"/>
                    </g>
                    <g id="prefix__그룹_1697" data-name="그룹 1697">
                        <path id="prefix__패스_1781" d="M267.8 203.5L242 223.1a1.136 1.136 0 0 1-.8.3 1.606 1.606 0 0 1-1.1-.5 1.417 1.417 0 0 1 .3-1.9l25.6-19.6a1.417 1.417 0 0 1 1.9.3c0 .1.1.1.1.2a1.226 1.226 0 0 1-.2 1.6z" class="prefix__cls-10" data-name="패스 1781"/>
                    </g>
                    <g id="prefix__그룹_1698" data-name="그룹 1698">
                        <path id="prefix__패스_1782" d="M261.8 259.5l-1.9.8a2.881 2.881 0 0 1-2.4-.1.1.1 0 0 1-.1-.1 22.925 22.925 0 0 1-2.7-1.7 7.635 7.635 0 0 1-1.1-.8c-.3-.2-.7-.5-1.1-.8-.5-.4-1.1-.8-1.6-1.2a48.81 48.81 0 0 1-10.1-10.9 31.353 31.353 0 0 1-2.5-4.4c-.2-.5-.5-.9-.7-1.4a4.179 4.179 0 0 1-.4-1 40.088 40.088 0 0 1-1.6-4.9 1.347 1.347 0 0 1 1-1.6h.5a1.272 1.272 0 0 1 1.1 1 30.981 30.981 0 0 0 1.5 4.6c.1.2.2.5.3.7a8.864 8.864 0 0 0 .8 1.7A43.19 43.19 0 0 0 252 253l.1.1a13.033 13.033 0 0 0 2 1.5c.3.2.7.5 1 .7a8.34 8.34 0 0 0 1.2.8c.9.6 2.7 1.7 3.3 2a22.8 22.8 0 0 0 2.2 1.4z" class="prefix__cls-10" data-name="패스 1782"/>
                        <path id="prefix__선_65" d="M3.2 0L0 1.3" data-name="선 65" transform="translate(258.6 259.5)" style="fill:none"/>
                    </g>
                    <g id="prefix__그룹_1699" data-name="그룹 1699">
                        <path id="prefix__패스_1783" d="M211.8 97.8a6.317 6.317 0 0 1-4.4 1.6 9.959 9.959 0 0 1-3.9-.9 5.229 5.229 0 0 1-1.7-1.2 6.946 6.946 0 0 1-2.1-3.8 10.283 10.283 0 0 1-.1-1.7 1.315 1.315 0 0 1 2.6.4 4.551 4.551 0 0 0 2.4 4c2.4 1.1 4.4.6 5.2-.1a1.391 1.391 0 0 1 1.9 0 1.077 1.077 0 0 1 .1 1.7z" class="prefix__cls-4" data-name="패스 1783"/>
                    </g>
                </g>
                <g id="prefix__그룹_1701" data-name="그룹 1701">
                    <path id="prefix__패스_1784" d="M255.1 375.4a67.751 67.751 0 0 0-67.7-63.3 63.855 63.855 0 0 0-12.5 1.2 123.219 123.219 0 0 0-116.1-81.9c-47.6 0-88.9 32.4-109.4 71.9-53.8 3.5-91.5 37.8-91.5 88.6 0 54.5 47.8 91.6 102.2 91.6h280.7a55 55 0 0 0 14.3-108.1z" class="prefix__cls-8" data-name="패스 1784"/>
                </g>
            </g>
        </g>
    </g>
</svg>
