<svg xmlns="http://www.w3.org/2000/svg" id="prefix__speaker-illustration" width="540" height="226.1" viewBox="0 0 540 226.1">
    <defs>
        <clipPath id="prefix__clip-path">
            <path id="prefix__사각형_316" d="M0 0H540V226.1H0z" data-name="사각형 316"/>
        </clipPath>
        <style>
            .prefix__cls-2{fill:#97dcff}.prefix__cls-3{fill:#fff}.prefix__cls-4{fill:#ffeae6}.prefix__cls-5{fill:#ffb4ae}.prefix__cls-6{fill:#45a4f6}.prefix__cls-7{fill:#f5503d}.prefix__cls-8{fill:#ff9088}.prefix__cls-10{fill:#ffc3c0}
        </style>
    </defs>
    <g id="prefix__그룹_1834" data-name="그룹 1834">
        <g id="prefix__그룹_1833" data-name="그룹 1833">
            <g id="prefix__그룹_1832" data-name="그룹 1832">
                <g id="prefix__그룹_1742" data-name="그룹 1742">
                    <g id="prefix__그룹_1741" data-name="그룹 1741">
                        <path id="prefix__패스_1849" d="M219.5 242.9l7.3-70.1c12.8 5.5 31.7 8.7 48.9 7.3s38.8-15.1 38.8-15.1c.3-.2-2.8 57.8-3.7 73.6a8.693 8.693 0 0 1-5.2 7.4c-5.3 2.2-15.9 4.4-36.5 2.1 0 0-9.8 17.2-43.3 5.4a9.785 9.785 0 0 1-6.3-10.6z" class="prefix__cls-2" data-name="패스 1849"/>
                    </g>
                </g>
                <g id="prefix__그룹_1744" data-name="그룹 1744">
                    <g id="prefix__그룹_1743" data-name="그룹 1743">
                        <path id="prefix__패스_1850" d="M271.3 249.6a1.085 1.085 0 0 0 .8-.8l5.5-44.6 5.3-4.6a.851.851 0 1 0-1.1-1.3l-5.6 4.9a.6.6 0 0 0-.3.6l-5.5 44.9a.9.9 0 0 0 .8 1c-.1-.1 0-.1.1-.1z" class="prefix__cls-3" data-name="패스 1850"/>
                    </g>
                </g>
                <g id="prefix__그룹_1745" data-name="그룹 1745">
                    <path id="prefix__패스_1851" d="M149.8 125.6c.6-1.6 3.1-1.5 5.4-1.1-1.8-.6-4.6-1.9-3.9-4.1.6-1.6 3.1-1.5 5.4-1.1-1.8-.6-4.6-1.9-3.9-4.1.8-2.4 6.8-.8 9.8.1-1.2-1-2.2-2.4-1.4-3.7 1-1.8 6.3-1 10.2.5.7.3 1.3.6 1.9.9l6.2 3.2-5.1 18-1.8-.4.8.5a47.389 47.389 0 0 1-16.9-2.4s-7.8-3.2-6.7-6.3z" class="prefix__cls-4" data-name="패스 1851"/>
                </g>
                <g id="prefix__그룹_1751" data-name="그룹 1751">
                    <g id="prefix__그룹_1746" data-name="그룹 1746">
                        <path id="prefix__패스_1852" d="M165 117.9a.749.749 0 0 1-.5-.1c-.4-.2-3.7-2.1-4.3-4.4a3.064 3.064 0 0 1 .3-2.3c1.7-2.9 8.8-1 11.4 0a32.671 32.671 0 0 1 6.7 3.9 1 1 0 0 1-1.2 1.6 27.648 27.648 0 0 0-6.2-3.6c-4.5-1.7-8.5-1.7-9-.9a1.063 1.063 0 0 0-.1.8c.3 1.2 2.2 2.6 3.4 3.2a1.012 1.012 0 0 1 .4 1.4 1.267 1.267 0 0 1-.9.4z" class="prefix__cls-5" data-name="패스 1852"/>
                    </g>
                    <g id="prefix__그룹_1747" data-name="그룹 1747">
                        <path id="prefix__패스_1853" d="M158.2 120.7h-.2c-.5-.1-4.5-1-5.8-3.2a3.135 3.135 0 0 1-.2-2.5 2.631 2.631 0 0 1 1.5-1.6c2.9-1.3 8.9.9 9.5 1.1a1.012 1.012 0 1 1-.7 1.9c-2.3-.9-6.4-1.9-8-1.2a.51.51 0 0 0-.4.5.972.972 0 0 0 .1.9c.6 1.1 3.1 2 4.4 2.2a1.037 1.037 0 0 1 .8 1.2 1.126 1.126 0 0 1-1 .7z" class="prefix__cls-5" data-name="패스 1853"/>
                    </g>
                    <g id="prefix__그룹_1748" data-name="그룹 1748">
                        <path id="prefix__패스_1854" d="M156.7 125.8h-.2c-.5-.1-4.5-1-5.8-3.2a3.135 3.135 0 0 1-.2-2.5 2.631 2.631 0 0 1 1.5-1.6c2.9-1.3 8.9.9 9.5 1.1a1.012 1.012 0 1 1-.7 1.9c-2.3-.9-6.4-1.9-8-1.2a.51.51 0 0 0-.4.5.972.972 0 0 0 .1.9c.6 1.1 3.1 2 4.4 2.2a1.037 1.037 0 0 1 .8 1.2 1.2 1.2 0 0 1-1 .7z" class="prefix__cls-5" data-name="패스 1854"/>
                    </g>
                    <g id="prefix__그룹_1749" data-name="그룹 1749">
                        <path id="prefix__패스_1855" d="M173.6 135.1a48.006 48.006 0 0 1-17.3-2.5c-1.5-.6-8.8-3.5-7.4-7.4a2.631 2.631 0 0 1 1.5-1.6c2.9-1.3 8.9.9 9.5 1.1a1.012 1.012 0 1 1-.7 1.9c-2.3-.9-6.4-1.9-8-1.2a.51.51 0 0 0-.4.5c-.5 1.5 3.3 3.8 6.3 4.9a46.863 46.863 0 0 0 16.5 2.4 1 1 0 0 1 1 1 .987.987 0 0 1-1 .9z" class="prefix__cls-5" data-name="패스 1855"/>
                    </g>
                    <g id="prefix__그룹_1750" data-name="그룹 1750">
                        <path id="prefix__패스_1856" d="M167.1 123.6a1.135 1.135 0 0 1-.8-.3 8.147 8.147 0 0 1-2.3-6.6 1.02 1.02 0 0 1 2 .4 5.972 5.972 0 0 0 1.8 4.8.967.967 0 0 1 0 1.4 1.329 1.329 0 0 1-.7.3z" class="prefix__cls-5" data-name="패스 1856"/>
                    </g>
                </g>
                <g id="prefix__그룹_1752" data-name="그룹 1752">
                    <path id="prefix__패스_1857" d="M381.5 92.2c-1.3-1.2-3.5.1-5.3 1.6 1.3-1.4 3.2-3.9 1.5-5.4-1.3-1.2-3.5.1-5.3 1.6 1.3-1.4 3.2-3.9 1.5-5.4-1.8-1.7-6.4 2.5-8.6 4.8.5-1.5.8-3.1-.5-3.9-1.7-1.1-6 2.1-8.8 5.3a13.279 13.279 0 0 0-1.2 1.6l-3.9 5.7 13.1 13.4 1.3-1.2-.5.8a46.614 46.614 0 0 0 13.7-10.2s5.5-6.5 3-8.7z" class="prefix__cls-4" data-name="패스 1857"/>
                </g>
                <g id="prefix__그룹_1758" data-name="그룹 1758">
                    <g id="prefix__그룹_1753" data-name="그룹 1753">
                        <path id="prefix__패스_1858" d="M354.6 94.1a1.421 1.421 0 0 1-.6-.2.965.965 0 0 1-.2-1.4c1.8-2.5 7.8-10.4 11.4-8.1a2.886 2.886 0 0 1 1.3 1.9c.5 2.4-1.5 5.6-1.7 5.9a1.012 1.012 0 1 1-1.7-1.1c.7-1.1 1.7-3.2 1.5-4.4a.918.918 0 0 0-.4-.6c-1.3-.8-5.7 3.3-8.8 7.6a.909.909 0 0 1-.8.4z" class="prefix__cls-5" data-name="패스 1858"/>
                    </g>
                    <g id="prefix__그룹_1754" data-name="그룹 1754">
                        <path id="prefix__패스_1859" d="M371.3 91.9a.909.909 0 0 1-.8-.4.966.966 0 0 1 .1-1.4c1.1-.9 2.8-2.8 2.9-4.1a.91.91 0 0 0-.4-.8.845.845 0 0 0-.6-.2c-1.7.1-4.9 3-6.5 4.8a.992.992 0 0 1-1.5-1.3c.5-.5 4.7-5.3 7.9-5.5a3.139 3.139 0 0 1 2.1.7 2.9 2.9 0 0 1 1 2.3c-.1 2.6-3.2 5.3-3.6 5.5a.723.723 0 0 1-.6.4z" class="prefix__cls-5" data-name="패스 1859"/>
                    </g>
                    <g id="prefix__그룹_1755" data-name="그룹 1755">
                        <path id="prefix__패스_1860" d="M375.1 95.7a.909.909 0 0 1-.8-.4.966.966 0 0 1 .1-1.4c1.1-.9 2.8-2.8 2.9-4.1a.91.91 0 0 0-.4-.8.845.845 0 0 0-.6-.2c-1.7.1-4.9 3-6.5 4.8a.992.992 0 0 1-1.5-1.3c.5-.5 4.7-5.3 7.9-5.5a2.7 2.7 0 0 1 2.1.7 2.9 2.9 0 0 1 1 2.3c-.1 2.6-3.2 5.3-3.6 5.5a.723.723 0 0 1-.6.4z" class="prefix__cls-5" data-name="패스 1860"/>
                    </g>
                    <g id="prefix__그룹_1756" data-name="그룹 1756">
                        <path id="prefix__패스_1861" d="M365.5 111.4a.875.875 0 0 1-.9-.6.992.992 0 0 1 .5-1.3 45.978 45.978 0 0 0 13.6-10c1.2-1.6 3.4-5.5 2.1-6.7a.845.845 0 0 0-.6-.2c-1.7.1-4.9 3-6.5 4.8a.992.992 0 0 1-1.5-1.3c.5-.5 4.7-5.3 7.9-5.5a3.139 3.139 0 0 1 2.1.7c3 2.8-1.4 8.8-1.9 9.5a50.029 50.029 0 0 1-14.3 10.5 1.088 1.088 0 0 1-.5.1z" class="prefix__cls-5" data-name="패스 1861"/>
                    </g>
                    <g id="prefix__그룹_1757" data-name="그룹 1757">
                        <path id="prefix__패스_1862" d="M364.9 98.6a.756.756 0 0 1-.4-.1 1 1 0 0 1-.6-1.3c1.1-3.3-.5-4.8-.6-4.9a.992.992 0 1 1 1.3-1.5c.1.1 2.7 2.4 1.2 7-.2.6-.5.8-.9.8z" class="prefix__cls-5" data-name="패스 1862"/>
                    </g>
                </g>
                <g id="prefix__그룹_1759" data-name="그룹 1759">
                    <path id="prefix__패스_1863" d="M218 106a12.472 12.472 0 0 1-12.6 5.3l-22.9-2a6.22 6.22 0 0 0-6.1 3.6 50.758 50.758 0 0 0-5 23c.2 3 1.7 5.6 4.6 6.4a362.991 362.991 0 0 0 36.7 7c4.2.5 9.9.3 13.8-3.8a1.278 1.278 0 0 1 2.2.9l-2.7 28.8a3.034 3.034 0 0 0 1.6 2.7c15.7 7.9 38.4 8.4 55.7 5.6 19.1-3 27.8-8 31.7-10.6a2.2 2.2 0 0 0 .9-2.1l-.7-33.2a1.359 1.359 0 0 1 1.7-1.6c3 .8 6.2 2.2 11.7 1.4 8.8-1.3 25.8-10.3 35.5-18.3a8.434 8.434 0 0 0 2.5-8.5 35.474 35.474 0 0 0-13.2-18.5 8.421 8.421 0 0 0-7.4-.9l-16.1 8.4c-4.3 2.2-9.2 4.3-12.7.9-20.8-20.2-46.9-22.2-57.9-21.1-12.2 1.3-30.8 11.4-41.3 26.6z" class="prefix__cls-6" data-name="패스 1863"/>
                </g>
                <g id="prefix__그룹_1760" data-name="그룹 1760">
                    <path id="prefix__패스_1864" d="M439.3 36.2a15.325 15.325 0 0 0-15-12.4c-5.9 0-11.1 4-13.6 8.9-6.7.4-11.4 4.7-11.4 11 0 6.8 5.9 11.4 12.7 11.4h26.6c5.6 0 9.9-3.6 9.9-9.3a9.455 9.455 0 0 0-9.2-9.6z" class="prefix__cls-6" data-name="패스 1864"/>
                </g>
                <g id="prefix__그룹_1761" data-name="그룹 1761">
                    <path id="prefix__패스_1865" d="M457.7 81.4a34.183 34.183 0 0 0 .4 3.6 84.87 84.87 0 0 0 9.3 22.5 2.819 2.819 0 0 0 4.9 0 84.87 84.87 0 0 0 9.3-22.5 14.2 14.2 0 0 0 .4-3.6 12.15 12.15 0 1 0-24.3 0zm6.2 0a6 6 0 1 1 6 6 6.018 6.018 0 0 1-6-6z" class="prefix__cls-7" data-name="패스 1865"/>
                </g>
                <g id="prefix__그룹_1768" data-name="그룹 1768">
                    <g id="prefix__그룹_1762" data-name="그룹 1762">
                        <path id="prefix__패스_1866" d="M164.7 40l20.9-10.2-2.7 17.1a2.319 2.319 0 0 1-1.4 1.8l-16.9 8.9a4.73 4.73 0 0 1-5.3-.8L146 43.2a2.313 2.313 0 0 1-.7-2.2l2.7-17.1z" class="prefix__cls-8" data-name="패스 1866"/>
                    </g>
                    <g id="prefix__그룹_1763" data-name="그룹 1763">
                        <path id="prefix__패스_1867" d="M147.9 23.9l20.9-10.2-7.6-7.4a2.755 2.755 0 0 0-2.9-.5l-16.8 8.3a1.846 1.846 0 0 0-.5 3.1z" class="prefix__cls-7" data-name="패스 1867"/>
                    </g>
                    <g id="prefix__그룹_1764" data-name="그룹 1764">
                        <path id="prefix__패스_1868" d="M185.5 29.9l-20.9 10.2 7.6 7.4a2.755 2.755 0 0 0 2.9.5l16.8-8.2a1.846 1.846 0 0 0 .5-3.1z" class="prefix__cls-7" data-name="패스 1868"/>
                    </g>
                    <g id="prefix__그룹_1765" data-name="그룹 1765">
                        <path id="prefix__패스_1869" d="M185.5 29.9l-16.7-16.1 9.5-4.6a2.465 2.465 0 0 1 2.9.5l13.5 13a1.846 1.846 0 0 1-.5 3.1z" class="prefix__cls-7" data-name="패스 1869"/>
                    </g>
                    <g id="prefix__그룹_1766" data-name="그룹 1766">
                        <path id="prefix__패스_1870" d="M147.9 23.9L164.6 40l-9.5 4.6a2.465 2.465 0 0 1-2.9-.5l-13.5-13a1.846 1.846 0 0 1 .5-3.1z" class="prefix__cls-7" data-name="패스 1870"/>
                    </g>
                    <g id="prefix__그룹_1767" data-name="그룹 1767">
                        <path id="prefix__패스_1871" d="M168.8 13.7l16.7 16.2L164.7 40l-16.8-16.1z" class="prefix__cls-3" data-name="패스 1871"/>
                    </g>
                </g>
                <g id="prefix__그룹_1774" data-name="그룹 1774">
                    <g id="prefix__그룹_1773" data-name="그룹 1773">
                        <g id="prefix__그룹_1769" data-name="그룹 1769">
                            <path id="prefix__패스_1872" d="M113 129.4l-8.2 15 17.3 8.2z" class="prefix__cls-6" data-name="패스 1872"/>
                        </g>
                        <g id="prefix__그룹_1770" data-name="그룹 1770">
                            <path id="prefix__패스_1873" d="M121.4 154.6l-17.6-8.3-3.8 6.9a.891.891 0 0 1-.8.5h-.5l-7.5-2.5-7.2 18.1z" class="prefix__cls-6" data-name="패스 1873"/>
                        </g>
                        <g id="prefix__그룹_1771" data-name="그룹 1771">
                            <path id="prefix__패스_1874" d="M110.8 128.9l-36.4 14.3 16.6 5.6h.1l7.5 2.5z" class="prefix__cls-6" data-name="패스 1874"/>
                        </g>
                        <g id="prefix__그룹_1772" data-name="그룹 1772">
                            <path id="prefix__패스_1875" d="M89.3 150.5L73.1 145l9.1 23.2z" class="prefix__cls-6" data-name="패스 1875"/>
                        </g>
                    </g>
                </g>
                <g id="prefix__그룹_1775" data-name="그룹 1775">
                    <path id="prefix__패스_1876" d="M69.6 67.3a2.413 2.413 0 0 1-1.3-2.6 2.517 2.517 0 0 1 2.7-1.8c4.8.6 9.5 1.5 14.1 2.5 1.5.3 2.9.7 4.4 1a6.143 6.143 0 0 0 7.4-4.2c.5-1.4.9-2.9 1.4-4.3 1.6-4.6 3.3-9.1 5.3-13.5a2.413 2.413 0 0 1 2.6-1.3 2.517 2.517 0 0 1 1.8 2.7c-.6 4.8-1.5 9.5-2.5 14.1l-.9 3.9a6.824 6.824 0 0 0 4.5 8.1c1.3.4 2.5.8 3.8 1.3 4.6 1.6 9.1 3.3 13.5 5.3a2.413 2.413 0 0 1 1.3 2.6 2.517 2.517 0 0 1-2.7 1.8c-4.8-.6-9.5-1.5-14.1-2.5-1.1-.3-2.3-.5-3.4-.8a7.391 7.391 0 0 0-8.8 4.9c-.4 1.1-.7 2.2-1.1 3.3-1.6 4.6-3.3 9.1-5.3 13.5a2.413 2.413 0 0 1-2.6 1.3 2.517 2.517 0 0 1-1.8-2.7c.6-4.8 1.5-9.5 2.5-14.1.3-1.4.6-2.8 1-4.2a6.484 6.484 0 0 0-4.3-7.7c-1.4-.4-2.7-.9-4.1-1.4a105.638 105.638 0 0 1-13.4-5.2z" class="prefix__cls-2" data-name="패스 1876"/>
                </g>
                <g id="prefix__그룹_1776" data-name="그룹 1776">
                    <circle id="prefix__타원_46" cx="3.9" cy="3.9" r="3.9" class="prefix__cls-2" data-name="타원 46" transform="translate(48.8 114)"/>
                </g>
                <g id="prefix__그룹_1777" data-name="그룹 1777">
                    <circle id="prefix__타원_47" cx="3.4" cy="3.4" r="3.4" class="prefix__cls-8" data-name="타원 47" transform="translate(207.2 66.5)"/>
                </g>
                <g id="prefix__그룹_1780" data-name="그룹 1780">
                    <g id="prefix__그룹_1778" data-name="그룹 1778">
                        <path id="prefix__패스_1877" d="M326.8 78.8h-.4a1.371 1.371 0 0 1-1-1.7l4.4-17a1.285 1.285 0 0 1 1-1 1.735 1.735 0 0 1 1.4.3l3.5 3.2 3.8-14.7a1.285 1.285 0 0 1 1-1 1.735 1.735 0 0 1 1.4.3l3.5 3.2 3.8-14.7a1.395 1.395 0 0 1 2.7.7l-4.4 17a1.285 1.285 0 0 1-1 1 1.735 1.735 0 0 1-1.4-.3l-3.5-3.2-3.8 14.7a1.285 1.285 0 0 1-1 1 1.735 1.735 0 0 1-1.4-.3l-3.5-3.2-3.8 14.7a1.521 1.521 0 0 1-1.3 1z" class="prefix__cls-2" data-name="패스 1877"/>
                    </g>
                    <g id="prefix__그룹_1779" data-name="그룹 1779">
                        <path id="prefix__패스_1878" d="M344.2 73a1.4 1.4 0 0 1-.9-.3 1.426 1.426 0 0 1-.2-2l9.2-11.7a1.3 1.3 0 0 1 1.3-.5 1.548 1.548 0 0 1 1.1.8l1.5 3.4 7.8-9.9a1.3 1.3 0 0 1 1.3-.5 1.548 1.548 0 0 1 1.1.8l1.5 3.4 7.8-9.9a1.421 1.421 0 0 1 2.2 1.8l-9.2 11.7a1.3 1.3 0 0 1-1.3.5 1.548 1.548 0 0 1-1.1-.8l-1.5-3.4-7.8 9.9a1.3 1.3 0 0 1-1.3.5 1.548 1.548 0 0 1-1.1-.8l-1.5-3.4-7.8 9.9a1.823 1.823 0 0 1-1.1.5z" class="prefix__cls-6" data-name="패스 1878"/>
                    </g>
                </g>
                <g id="prefix__그룹_1781" data-name="그룹 1781">
                    <circle id="prefix__타원_48" cx="3.1" cy="3.1" r="3.1" class="prefix__cls-2" data-name="타원 48" transform="translate(372.8 187.5)"/>
                </g>
                <g id="prefix__그룹_1782" data-name="그룹 1782">
                    <path id="prefix__패스_1879" d="M341.6 161.9a.91.91 0 0 1-.1-1.2 1.06 1.06 0 0 1 1.3-.3 52.353 52.353 0 0 1 5.1 3c.5.3 1 .7 1.5 1a2.5 2.5 0 0 0 3.4-.5c.4-.5.8-1 1.1-1.4a53.389 53.389 0 0 1 3.9-4.4.91.91 0 0 1 1.2-.1 1.06 1.06 0 0 1 .3 1.3 50.874 50.874 0 0 1-3 5c-.3.5-.6.9-.9 1.4a2.7 2.7 0 0 0 .6 3.7c.4.3.9.7 1.3 1a53.386 53.386 0 0 1 4.4 3.9.91.91 0 0 1 .1 1.2 1.06 1.06 0 0 1-1.3.3 50.872 50.872 0 0 1-5-3c-.4-.3-.8-.5-1.2-.8a2.953 2.953 0 0 0-4 .6c-.3.4-.6.7-.9 1.1a40.793 40.793 0 0 1-4 4.4.91.91 0 0 1-1.2.1 1.06 1.06 0 0 1-.3-1.3 41.349 41.349 0 0 1 3-5 13.028 13.028 0 0 1 1-1.5 2.685 2.685 0 0 0-.6-3.6c-.5-.4-.9-.7-1.4-1.1a48.832 48.832 0 0 1-4.3-3.8z" class="prefix__cls-7" data-name="패스 1879"/>
                </g>
                <g id="prefix__그룹_1783" data-name="그룹 1783">
                    <path id="prefix__패스_1880" d="M186.4 165a.91.91 0 0 1-.1-1.2 1.091 1.091 0 0 1 1.3-.3 54.823 54.823 0 0 1 5.2 3.1 15.257 15.257 0 0 1 1.6 1.1 2.772 2.772 0 0 0 3.6-.5l1.2-1.5a58.676 58.676 0 0 1 4.1-4.6.91.91 0 0 1 1.2-.1 1.091 1.091 0 0 1 .3 1.3 54.823 54.823 0 0 1-3.1 5.2c-.3.5-.6.9-.9 1.4a2.961 2.961 0 0 0 .6 3.9c.4.4.9.7 1.3 1.1a58.676 58.676 0 0 1 4.6 4.1.91.91 0 0 1 .1 1.2 1.091 1.091 0 0 1-1.3.3 54.823 54.823 0 0 1-5.2-3.1c-.4-.3-.8-.5-1.2-.8a3.122 3.122 0 0 0-4.2.7 10.63 10.63 0 0 1-.9 1.1 58.676 58.676 0 0 1-4.1 4.6.91.91 0 0 1-1.2.1 1.091 1.091 0 0 1-.3-1.3 54.823 54.823 0 0 1 3.1-5.2c.3-.5.7-1 1-1.5a2.7 2.7 0 0 0-.6-3.7 13.445 13.445 0 0 0-1.4-1.1c-1.7-1.5-3.2-2.8-4.7-4.3z" class="prefix__cls-8" data-name="패스 1880"/>
                </g>
                <g id="prefix__그룹_1784" data-name="그룹 1784">
                    <path id="prefix__패스_1881" d="M377.7 147.1a3.751 3.751 0 0 1-2.9-3.6 3.7 3.7 0 0 1 3.5-3.6c7.6-.7 15.3-.9 22.8-.9 2.4 0 4.8 0 7.2.1a10.035 10.035 0 0 0 10.2-9c.2-2.4.5-4.7.8-7.1a225.351 225.351 0 0 1 3.7-22.8 3.638 3.638 0 0 1 7.2.7 217.145 217.145 0 0 1 .8 22.8c0 2.1 0 4.3-.1 6.4a10.748 10.748 0 0 0 9.8 11c2.1.2 4.2.4 6.4.7a225.354 225.354 0 0 1 22.8 3.7 3.638 3.638 0 0 1-.7 7.2 217.153 217.153 0 0 1-22.8.8c-1.8 0-3.7 0-5.5-.1a11.865 11.865 0 0 0-12 10.6c-.2 1.8-.4 3.7-.6 5.5a225.351 225.351 0 0 1-3.7 22.8 3.751 3.751 0 0 1-3.6 2.9 3.7 3.7 0 0 1-3.6-3.5c-.7-7.6-.9-15.3-.9-22.8 0-2.3 0-4.6.1-6.8a10.284 10.284 0 0 0-9.3-10.5c-2.3-.2-4.5-.5-6.8-.7-7.6-1-15.2-2.1-22.8-3.8z" class="prefix__cls-2" data-name="패스 1881"/>
                </g>
                <g id="prefix__그룹_1785" data-name="그룹 1785">
                    <path id="prefix__패스_1882" d="M303.2 57.1c.5 1.9 2.9 1.8 3.9 1.5 1.1-.3 3.5-1.1 3.3-3.2-.2-1.6-1.6-2.8-4-2.2a7.589 7.589 0 0 0-1.8.6l-1.4 1.5a2.757 2.757 0 0 0 0 1.8z" class="prefix__cls-3" data-name="패스 1882"/>
                </g>
                <g id="prefix__그룹_1787" data-name="그룹 1787">
                    <g id="prefix__그룹_1786" data-name="그룹 1786">
                        <path id="prefix__패스_1883" d="M309.7 61.6c-5 12.6-16.9 16.2-25.6 15.6h-.4a8.636 8.636 0 0 1-1.5-.1 46.6 46.6 0 0 1-10.7-2.8.94.94 0 0 0-.9.1.605.605 0 0 0-.1.8c.1.2 1.8 4.2 8.2 5.6.8.2 2 .1 2.6 1.1 2 3.3 2.2 7.8-1.2 9.7-1.3.7-8.1 1.9-11.6.1a15.351 15.351 0 0 1-8.1-12.2l2.9-8.8a.919.919 0 0 0-1-1.3c-8.2 2.2-12-7.5-9-11.5a5.559 5.559 0 0 1 6-2 3.023 3.023 0 0 0 2.9-.5 72.637 72.637 0 0 0 5.7-5l.7-.7.3-.3a61.942 61.942 0 0 0 11.4-14.5 50.307 50.307 0 0 1 3.1 5c.6 1.1 1.7 1 2 0a16.421 16.421 0 0 0 .5-6.1.449.449 0 0 1 .7-.4 13.719 13.719 0 0 1 3.9 4.9 1.37 1.37 0 0 0 2.6-.4 8.8 8.8 0 0 0-1-5.2c-.1-.3.2-.7.7-.4a18.157 18.157 0 0 1 4.5 4 1.109 1.109 0 0 0 2-.5 15.087 15.087 0 0 0-1.2-6.5c6.7 4.8 10.5 11.5 12.8 18.3.3.9.6 1.9.9 2.8a24.011 24.011 0 0 1-2.1 11.2z" class="prefix__cls-4" data-name="패스 1883"/>
                    </g>
                </g>
                <g id="prefix__그룹_1789" data-name="그룹 1789">
                    <g id="prefix__그룹_1788" data-name="그룹 1788">
                        <path id="prefix__패스_1884" d="M256.2 63.1a3.744 3.744 0 0 0 4.4 2.4c.4-.1.5-.5.3-.7a5.126 5.126 0 0 1-1.6-3.7 1.506 1.506 0 0 0-2.5-1.4c-.8.4-1.2 1.8-.6 3.4z" class="prefix__cls-5" data-name="패스 1884"/>
                    </g>
                </g>
                <g id="prefix__그룹_1791" data-name="그룹 1791">
                    <g id="prefix__그룹_1790" data-name="그룹 1790">
                        <path id="prefix__패스_1885" d="M291.5 55c.1.9 1.3 1 1.8 1 .5-.1 1.8-.3 1.8-1.3 0-.8-.6-1.4-1.8-1.3-1.2 0-1.9.6-1.8 1.6z" data-name="패스 1885" style="fill:#ff9b99"/>
                    </g>
                </g>
                <g id="prefix__그룹_1793" data-name="그룹 1793">
                    <g id="prefix__그룹_1792" data-name="그룹 1792">
                        <path id="prefix__패스_1886" d="M273.1 62.8c.3 2 2.7 2.2 3.8 2.1s3.7-.7 3.8-2.8c.1-1.6-1.2-3-3.8-2.8-2.5.2-4.1 1.5-3.8 3.5z" class="prefix__cls-10" data-name="패스 1886"/>
                    </g>
                </g>
                <g id="prefix__그룹_1795" data-name="그룹 1795">
                    <g id="prefix__그룹_1794" data-name="그룹 1794">
                        <path id="prefix__패스_1887" d="M303.2 57.1c.5 1.9 2.9 1.8 3.9 1.5 1.1-.3 3.5-1.1 3.3-3.2-.2-1.6-1.6-2.8-4-2.2a7.589 7.589 0 0 0-1.8.6 2.876 2.876 0 0 0-1.4 1.5 2.757 2.757 0 0 0 0 1.8z" class="prefix__cls-10" data-name="패스 1887"/>
                    </g>
                </g>
                <g id="prefix__그룹_1797" data-name="그룹 1797">
                    <g id="prefix__그룹_1796" data-name="그룹 1796">
                        <path id="prefix__패스_1888" d="M298.9 49.8c.3 2.3 1.6 3.8 3.4 3.4 1.8-.3 1.9-2.6 1.8-3.6-.2-1-.8-3.4-2.8-3.4-1.5 0-2.7 1.2-2.4 3.6z" data-name="패스 1888"/>
                    </g>
                </g>
                <g id="prefix__그룹_1799" data-name="그룹 1799">
                    <g id="prefix__그룹_1798" data-name="그룹 1798">
                        <path id="prefix__패스_1889" d="M278.6 54.6c.3 2.3 1.6 3.8 3.4 3.4 1.8-.3 1.9-2.6 1.8-3.6-.2-1-.8-3.4-2.8-3.4-1.5 0-2.7 1.3-2.4 3.6z" data-name="패스 1889"/>
                    </g>
                </g>
                <g id="prefix__그룹_1803" data-name="그룹 1803">
                    <g id="prefix__그룹_1800" data-name="그룹 1800">
                        <path id="prefix__패스_1890" d="M283.7 77.2a1.993 1.993 0 0 0-1.5 1.2c-.1.2-.9 1.8-1.4 2.9a19.525 19.525 0 0 1-2.3-.2c-6.4-1.5-7.9-5.8-8-6a.783.783 0 0 1 .1-.8.94.94 0 0 1 .9-.1 41.793 41.793 0 0 0 10.7 2.8 5.049 5.049 0 0 0 1.5.2z" class="prefix__cls-10" data-name="패스 1890"/>
                    </g>
                    <g id="prefix__그룹_1801" data-name="그룹 1801">
                        <path id="prefix__패스_1891" d="M311.5 62.3c-5.2 13-17.2 17.1-26.4 16.8h-1a19.091 19.091 0 0 1-2-.2l.2-.4a1.993 1.993 0 0 1 1.5-1.2h.4c8.7.7 20.6-3 25.6-15.6a25.5 25.5 0 0 0 2-11.4c0 .1.1.2.1.3a.9.9 0 0 0 .6.6 1.015 1.015 0 0 0 1-.3c.1-.1.1-.2.2-.3a28.419 28.419 0 0 1-2.2 11.7z" class="prefix__cls-10" data-name="패스 1891"/>
                    </g>
                    <g id="prefix__그룹_1802" data-name="그룹 1802">
                        <path id="prefix__패스_1892" d="M282 78.8a15.03 15.03 0 0 0 2 .2h1" data-name="패스 1892" style="fill:none"/>
                    </g>
                </g>
                <g id="prefix__그룹_1805" data-name="그룹 1805">
                    <g id="prefix__그룹_1804" data-name="그룹 1804">
                        <path id="prefix__패스_1893" d="M235.2 39a27.012 27.012 0 0 0 6.4 16 49.19 49.19 0 0 0 11.4 9.5c-1-2.4-1-5.2.2-6.9a5.559 5.559 0 0 1 6-2 3.023 3.023 0 0 0 2.9-.5c2.1-1.7 4-3.3 5.7-4.9l.7-.7.3-.3a61.942 61.942 0 0 0 11.4-14.5 50.307 50.307 0 0 1 3.1 5c.6 1.1 1.7 1 2 0a16.421 16.421 0 0 0 .5-6.1.449.449 0 0 1 .7-.4 14.622 14.622 0 0 1 3.9 4.9 1.37 1.37 0 0 0 2.6-.4 8.632 8.632 0 0 0-1-5.2c-.1-.3.2-.7.7-.4a18.157 18.157 0 0 1 4.5 4 1.034 1.034 0 0 0 1.9-.5 15.087 15.087 0 0 0-1.2-6.5c6.7 4.8 10.5 11.5 12.8 18.3.3.9.6 1.9.9 2.8 0 .1.1.2.1.3a.9.9 0 0 0 .6.6 1.015 1.015 0 0 0 1-.3c.1-.1.1-.2.2-.3a24.67 24.67 0 0 0 2.7-8.8 43.3 43.3 0 0 0-.7-15.4c-1.8-7.8-6.4-15-12.7-19.1-18.9-12.4-31.6-5-31.6-5a34.725 34.725 0 0 0-4.5-.6c-10.2-1-20.6 6.1-26.3 15.6a40.485 40.485 0 0 0-5.2 21.8z" data-name="패스 1893"/>
                    </g>
                </g>
                <g id="prefix__그룹_1807" data-name="그룹 1807">
                    <g id="prefix__그룹_1806" data-name="그룹 1806">
                        <path id="prefix__패스_1894" d="M257.8 89.4a24.883 24.883 0 0 0 1.8 7.7 22.964 22.964 0 0 0 5 8 2.757 2.757 0 0 0 3.7.1l.6-.6 1.6-1.6 7.7-7.7 9.7 2.6 4.3 1.2a1.543 1.543 0 0 0 1.7-2.1 29.459 29.459 0 0 0-2.4-5.4 34.222 34.222 0 0 0-8.7-10c-.3-.2-1-.8-1-.8-.5-.4-1.5 0-1 .9 1.7 3.3 2.4 8.9-4.3 10.1a10.474 10.474 0 0 1-4.7-.2c-6.7-1.6-11.3-12.1-11.3-12.1-.2-.7-1.4-.6-1.6 0a25.128 25.128 0 0 0-1.1 9.9z" class="prefix__cls-2" data-name="패스 1894"/>
                    </g>
                </g>
                <g id="prefix__그룹_1809" data-name="그룹 1809">
                    <g id="prefix__그룹_1808" data-name="그룹 1808">
                        <path id="prefix__패스_1895" d="M278.9 105.7a1.851 1.851 0 1 0 1.8-1.9 1.95 1.95 0 0 0-1.8 1.9z" class="prefix__cls-3" data-name="패스 1895"/>
                    </g>
                </g>
                <g id="prefix__그룹_1811" data-name="그룹 1811">
                    <g id="prefix__그룹_1810" data-name="그룹 1810">
                        <path id="prefix__패스_1896" d="M279.2 116.2a1.851 1.851 0 1 0 1.8-1.9 1.88 1.88 0 0 0-1.8 1.9z" class="prefix__cls-3" data-name="패스 1896"/>
                    </g>
                </g>
                <g id="prefix__그룹_1813" data-name="그룹 1813">
                    <g id="prefix__그룹_1812" data-name="그룹 1812">
                        <path id="prefix__패스_1897" d="M279.5 126.6a1.851 1.851 0 1 0 1.8-1.9 1.95 1.95 0 0 0-1.8 1.9z" class="prefix__cls-3" data-name="패스 1897"/>
                    </g>
                </g>
                <g id="prefix__그룹_1816" data-name="그룹 1816">
                    <g id="prefix__그룹_1815" data-name="그룹 1815">
                        <g id="prefix__그룹_1814" data-name="그룹 1814">
                            <path id="prefix__패스_1898" d="M287.7 60.7a4.7 4.7 0 0 0 .9 1.2 6.607 6.607 0 0 0 6.4 1.8 5.514 5.514 0 0 0 4.4-4 4.935 4.935 0 0 0 .3-1.5.662.662 0 0 0-.8-.8l-10.7 2.2a.73.73 0 0 0-.5 1.1z" data-name="패스 1898" style="fill:#e5423e"/>
                        </g>
                    </g>
                </g>
                <g id="prefix__그룹_1831" data-name="그룹 1831">
                    <g id="prefix__그룹_1818" data-name="그룹 1818">
                        <g id="prefix__그룹_1817" data-name="그룹 1817">
                            <path id="prefix__패스_1899" d="M126.8 200.7a.749.749 0 0 1-.5.1l-1.3-.1a.845.845 0 0 1-.6-.2.56.56 0 0 1-.1-.6l.5-6.1-.7-.1a.707.707 0 0 1-.6-.8l.1-1a.763.763 0 0 1 .4-.7.749.749 0 0 1 .5-.1l2.7.2c.6 0 .8.3.7.9l-.7 8a1.082 1.082 0 0 1-.4.5z" class="prefix__cls-7" data-name="패스 1899"/>
                        </g>
                    </g>
                    <g id="prefix__그룹_1820" data-name="그룹 1820">
                        <g id="prefix__그룹_1819" data-name="그룹 1819">
                            <path id="prefix__패스_1900" d="M136.9 201.3a3.952 3.952 0 0 1-2.2.3h-.4a3.99 3.99 0 0 1-3-1.5 4.908 4.908 0 0 1-.8-3.7v-.2q.3-3.15 2.4-4.2a3.952 3.952 0 0 1 2.2-.3h.4a3.99 3.99 0 0 1 3 1.5 4.908 4.908 0 0 1 .8 3.7v.2q-.3 3.15-2.4 4.2zm-2.7-7a2.112 2.112 0 0 0-1 1.9v.5a2.431 2.431 0 0 0 .4 1.8.975.975 0 0 0 .9.4h.4a1.759 1.759 0 0 0 .6-.1c.6-.2.9-.9 1-1.9v-.5a2.431 2.431 0 0 0-.4-1.8.975.975 0 0 0-.9-.4h-.4a2.142 2.142 0 0 0-.6.1z" class="prefix__cls-7" data-name="패스 1900"/>
                        </g>
                    </g>
                    <g id="prefix__그룹_1822" data-name="그룹 1822">
                        <g id="prefix__그룹_1821" data-name="그룹 1821">
                            <path id="prefix__패스_1901" d="M145.2 202.2a.749.749 0 0 1-.5.1l-1.3-.1a.845.845 0 0 1-.6-.2.56.56 0 0 1-.1-.6l.5-6.1-.7-.1a.707.707 0 0 1-.6-.8l.1-1a.763.763 0 0 1 .4-.7.749.749 0 0 1 .5-.1l2.7.2a.845.845 0 0 1 .6.2.56.56 0 0 1 .1.6l-.7 8c-.1.5-.3.6-.4.6z" class="prefix__cls-7" data-name="패스 1901"/>
                        </g>
                    </g>
                    <g id="prefix__그룹_1824" data-name="그룹 1824">
                        <g id="prefix__그룹_1823" data-name="그룹 1823">
                            <path id="prefix__패스_1902" d="M155.3 202.8a3.952 3.952 0 0 1-2.2.3h-.4c-2.6-.2-4.1-2.2-3.8-5.2v-.2q.3-3.15 2.4-4.2a3.952 3.952 0 0 1 2.2-.3h.4a3.99 3.99 0 0 1 3 1.5 4.908 4.908 0 0 1 .8 3.7v.2c-.2 2.1-1.1 3.6-2.4 4.2zm-2.7-6.9a2.112 2.112 0 0 0-1 1.9v.5a2.431 2.431 0 0 0 .4 1.8.975.975 0 0 0 .9.4h.4a1.759 1.759 0 0 0 .6-.1 2.112 2.112 0 0 0 1-1.9v-.5a2.431 2.431 0 0 0-.4-1.8.975.975 0 0 0-.9-.4h-.4c0-.1-.3-.1-.6.1z" class="prefix__cls-7" data-name="패스 1902"/>
                        </g>
                    </g>
                    <g id="prefix__그룹_1826" data-name="그룹 1826">
                        <g id="prefix__그룹_1825" data-name="그룹 1825">
                            <path id="prefix__패스_1903" d="M166.7 203.7a3.952 3.952 0 0 1-2.2.3h-.4a3.99 3.99 0 0 1-3-1.5 4.908 4.908 0 0 1-.8-3.7v-.2c.2-2.1 1-3.5 2.5-4.2a3.952 3.952 0 0 1 2.2-.3h.4a3.99 3.99 0 0 1 3 1.5 4.908 4.908 0 0 1 .8 3.7v.2c-.3 2.2-1.1 3.6-2.5 4.2zm-2.7-6.9c-.6.2-.9.9-1 1.9v.5a2.431 2.431 0 0 0 .4 1.8.975.975 0 0 0 .9.4h.4a1.759 1.759 0 0 0 .6-.1 2.112 2.112 0 0 0 1-1.9v-.5c.2-1.8-.7-2.2-1.2-2.2h-.4a2.252 2.252 0 0 0-.7.1z" class="prefix__cls-7" data-name="패스 1903"/>
                        </g>
                    </g>
                    <g id="prefix__그룹_1828" data-name="그룹 1828">
                        <g id="prefix__그룹_1827" data-name="그룹 1827">
                            <path id="prefix__패스_1904" d="M175 204.7a.749.749 0 0 1-.5.1l-1.3-.1a.845.845 0 0 1-.6-.2.56.56 0 0 1-.1-.6l.5-6.1-.7-.1a.707.707 0 0 1-.6-.8l.1-1a.763.763 0 0 1 .4-.7.749.749 0 0 1 .5-.1l2.7.2c.6 0 .8.3.7.9l-.7 8c-.1.4-.3.5-.4.5z" class="prefix__cls-7" data-name="패스 1904"/>
                        </g>
                    </g>
                    <g id="prefix__그룹_1830" data-name="그룹 1830">
                        <g id="prefix__그룹_1829" data-name="그룹 1829">
                            <path id="prefix__패스_1905" d="M181.9 205.2a.749.749 0 0 1-.5.1l-1.3-.1a.845.845 0 0 1-.6-.2.56.56 0 0 1-.1-.6l.5-6.1-.7-.1a.707.707 0 0 1-.6-.8l.1-1a.763.763 0 0 1 .4-.7.749.749 0 0 1 .5-.1l2.7.2a.845.845 0 0 1 .6.2.56.56 0 0 1 .1.6l-.7 8c-.1.5-.4.6-.4.6z" class="prefix__cls-7" data-name="패스 1905"/>
                        </g>
                    </g>
                </g>
            </g>
        </g>
    </g>
</svg>
