<svg xmlns="http://www.w3.org/2000/svg" id="prefix__speaker-apply-illustration" width="380" height="380" viewBox="0 0 380 380">
    <defs>
        <clipPath id="prefix__clip-path">
            <path id="prefix__사각형_312" d="M0 0H380V380H0z" data-name="사각형 312"/>
        </clipPath>
        <style>
            .prefix__cls-2{fill:#45a4f6}.prefix__cls-3{fill:#ffeae6}.prefix__cls-4{fill:#ffb4ae}.prefix__cls-5{fill:#fff}.prefix__cls-6{fill:#99d3ff}.prefix__cls-7{fill:#f5503d}.prefix__cls-8{fill:#ce414b}.prefix__cls-10{fill:#ff928a}.prefix__cls-13{fill:#ffc3c0}
        </style>
    </defs>
    <g id="prefix__그룹_1594" data-name="그룹 1594">
        <g id="prefix__그룹_1593" data-name="그룹 1593">
            <g id="prefix__그룹_1558" data-name="그룹 1558">
                <path id="prefix__패스_1576" d="M-114 240.2a77.767 77.767 0 0 1 77.6-72.6 83.561 83.561 0 0 1 14.3 1.3A141.473 141.473 0 0 1 111.2 75c54.6 0 101.9 37.2 125.5 82.5 61.7 4.1 105 43.3 105 101.6 0 62.5-54.8 105.1-117.3 105.1h-322a63.1 63.1 0 0 1-63.1-63.1 63.119 63.119 0 0 1 46.7-60.9z" class="prefix__cls-2" data-name="패스 1576"/>
            </g>
            <g id="prefix__그룹_1592" data-name="그룹 1592">
                <g id="prefix__그룹_1559" data-name="그룹 1559">
                    <path id="prefix__패스_1577" d="M200.5 45.4c.9 2.6 1.2 9.3 1.2 11.7a66.881 66.881 0 0 1 17.1 14.6c3.3-.6 8.6-3.7 8.6-9.3 0-6.2-4.4-9.8-8.1-11.7a17.716 17.716 0 0 0-1.7-.6c-.7-.2-1.6-.4-1.9-1.3-.4-1.1.4-2.1 1.9-4 3.7-4.6 3.9-7.4 3.1-8.1a1.284 1.284 0 0 0-1-.4h-.1c-1.2.1-2.9 1.3-4.7 3.3q-.9 1.05-1.5 1.8A42.518 42.518 0 0 1 209 46a2.578 2.578 0 0 1-2.2.7 2.836 2.836 0 0 1-2-1.2 10.911 10.911 0 0 1-.6-1.1 4.517 4.517 0 0 0-1.1-1.7c-.9-.7-1.7-.9-2.3-.5a3.584 3.584 0 0 0-.3 3.2z" class="prefix__cls-3" data-name="패스 1577"/>
                </g>
                <g id="prefix__그룹_1560" data-name="그룹 1560">
                    <path id="prefix__패스_1578" d="M198.1 46.2c.6 1.7.9 6.2 1 9.4.4.2.9.5 1.3.7a9.13 9.13 0 0 1 1.3.8c-.1-2.4-.3-9.1-1.2-11.7-.5-1.5-.2-2.6.4-3 .5-.4 1.4-.2 2.3.5a3.568 3.568 0 0 1 1.1 1.7 3.88 3.88 0 0 0 .6 1.1 2.836 2.836 0 0 0 2 1.2 2.928 2.928 0 0 0 2.2-.7 42.517 42.517 0 0 0 4.4-4.6q.6-.75 1.5-1.8c1.8-2 3.5-3.2 4.7-3.3h.1a1.284 1.284 0 0 1 1 .4c.8.7.6 3.5-3.1 8.1-1.5 1.9-2.3 2.9-1.9 4 .3.9 1.2 1.1 1.9 1.3a4.359 4.359 0 0 1 1.7.6c3.7 1.9 8.2 5.5 8.1 11.7 0 5.6-5.3 8.7-8.6 9.3.3.4.6.7.9 1.1a7.632 7.632 0 0 1 .8 1.1c4.4-1.4 9.4-5.5 9.4-11.5 0-5.9-3.3-10.8-9.5-14-.7-.3-1.3-.5-1.9-.7a7.742 7.742 0 0 1 1-1.2c4.1-5.1 5.2-9.5 2.9-11.6a4.144 4.144 0 0 0-3-1.1c-2 .1-4.2 1.6-6.5 4.2-.6.7-1.1 1.3-1.6 1.8a47.555 47.555 0 0 1-4.1 4.4c-.1.1-.1.1-.2.1s-.1 0-.1-.1a2.389 2.389 0 0 1-.3-.7 6.112 6.112 0 0 0-1.9-2.7c-2.1-1.7-4.2-1.4-5.3-.6-1.7 1.1-2.2 3.4-1.4 5.8z" class="prefix__cls-4" data-name="패스 1578"/>
                </g>
                <g id="prefix__그룹_1561" data-name="그룹 1561">
                    <path id="prefix__패스_1579" d="M193.1 261.1a12.813 12.813 0 0 1 2-1.1c-.7.4-1.4.8-2 1.1z" class="prefix__cls-5" data-name="패스 1579"/>
                    <path id="prefix__패스_1580" d="M173.4 181.7a42.6 42.6 0 0 1 11.9 1.1 1.129 1.129 0 0 1 1.1-.3c10 2.7 17.1 6.5 23 12.4 11.6 11.5 17.5 22.1 25 35.5l.1.2a1.388 1.388 0 0 1-.4 1.7c1 2.4 1.9 4.6 2.5 6.5l.3-.3.9-.9.6-.6.6-.6 4-4 1.2-1.2c.8-.8 1.6-1.6 2.4-2.3.9-.9 1.9-1.7 2.8-2.5 12.8-11.1 23.2-14.3 24.9-12.6 0 0-8.2-24.3-42.5-41.6-17.3-8.6-42.6-6.1-58.4 9.5z" class="prefix__cls-5" data-name="패스 1580"/>
                </g>
                <g id="prefix__그룹_1562" data-name="그룹 1562">
                    <path id="prefix__패스_1581" d="M249.4 226.5l3.5 6.2 2.6 4.7c9.3-8.3 21.4-20.7 18.8-23.4-1.7-1.9-12.1 1.4-24.9 12.5z" class="prefix__cls-6" data-name="패스 1581"/>
                    <path id="prefix__패스_1582" d="M239.1 248.7a.1.1 0 0 0 .1-.1l-.1-.1c.1.1.1.2 0 .2z" class="prefix__cls-6" data-name="패스 1582"/>
                </g>
                <g id="prefix__그룹_1563" data-name="그룹 1563">
                    <path id="prefix__패스_1583" d="M238.6 245.1a20.422 20.422 0 0 1 .6 3v.4l.1.1 3.9 6.9a56.013 56.013 0 0 0 17.6-9.1l-5.2-9.2-2.6-4.7-3.5-6.2c-.9.8-1.8 1.6-2.8 2.5-.8.7-1.6 1.5-2.4 2.3l-1.2 1.2-4 4-.6.6-.6.6-.9.9-.3.3c.9 2.7 1.5 4.9 1.9 6.4z" class="prefix__cls-3" data-name="패스 1583"/>
                    <path id="prefix__패스_1584" d="M246.6 229c-.8.7-1.6 1.5-2.4 2.3.9-.8 1.6-1.6 2.4-2.3z" class="prefix__cls-3" data-name="패스 1584"/>
                    <path id="prefix__패스_1585" d="M236.7 238.8l.3-.3z" class="prefix__cls-3" data-name="패스 1585"/>
                </g>
                <path id="prefix__패스_1586" d="M201.3 290.1c-.7-1.5 17.1-7.1 22.8-9 7.2-2.5 26.3-9.5 27-7.1-.2-.6-.5-1.2-.7-1.8-.2-.3-.3-.7-.5-1-.1-.3-.3-.6-.4-.9 5.1-2.6 15-6.6 19-8.3 6.9-3 25-11.1 26.4-9.1-10.7-23.4-32.4-7.4-34.2-6.4a53.974 53.974 0 0 1-17.6 9.1h-.1a33.145 33.145 0 0 0-.1 7c-10.5-7.1-24.6 1.5-26.9 3.2a39.836 39.836 0 0 1-3.8 2.4c-1.6.9-3.1 1.7-4.6 2.4a56.761 56.761 0 0 1-9.8 3.4c-.6 11.2 3.5 16.1 3.5 16.1z" class="prefix__cls-7" data-name="패스 1586"/>
                <g id="prefix__그룹_1564" data-name="그룹 1564">
                    <path id="prefix__패스_1587" d="M249.5 270.3a3.552 3.552 0 0 1 .4.9c.2.3.3.7.5 1 5.1-1.4 14.1-4.7 20.1-7 8.3-3.2 25.6-9.1 24.4-12.1a.1.1 0 0 0-.1-.1c-1.4-2-19.5 6.1-26.4 9.1-3.8 1.6-13.8 5.6-18.9 8.2z" class="prefix__cls-8" data-name="패스 1587"/>
                </g>
                <g id="prefix__그룹_1565" data-name="그룹 1565">
                    <path id="prefix__패스_1588" d="M145.3 93.5c.4 2.1 3 2.2 4.1 2 1.2-.2 3.9-1 3.9-3.2 0-1.7-1.5-3.1-4.1-2.7-2.7.3-4.3 1.8-3.9 3.9z" data-name="패스 1588"/>
                    <path id="prefix__패스_1589" d="M139.5 87.1c.5 2.5 2 4 3.9 3.5 2-.5 1.9-2.9 1.7-4-.3-1.1-1.1-3.7-3.2-3.5-1.6.1-2.9 1.6-2.4 4z" data-name="패스 1589"/>
                    <path id="prefix__패스_1590" d="M132.1 93.7c.2 1 1.4 1 2 .9s1.9-.5 1.9-1.5c0-.8-.7-1.5-2-1.3-1.3.1-2.1.9-1.9 1.9z" data-name="패스 1590"/>
                    <path id="prefix__패스_1591" d="M117.8 93.7c.5 2.5 2 4 3.9 3.5 2-.5 1.9-2.9 1.7-4-.3-1.1-1.1-3.7-3.2-3.5-1.6 0-2.8 1.5-2.4 4z" data-name="패스 1591"/>
                    <path id="prefix__패스_1592" d="M112.3 103c.4 2.1 3.1 2.2 4.3 2s4-1 3.9-3.3c0-1.8-1.6-3.2-4.3-2.8-2.6.4-4.3 2-3.9 4.1z" data-name="패스 1592"/>
                    <path id="prefix__패스_1593" d="M95.6 107.7a5.735 5.735 0 0 0 7.3 2.8.726.726 0 0 0 .3-1.2c-1.2-1.2-3.1-2.7-3.2-5.5a2.392 2.392 0 0 0-4.2-1.7 5.2 5.2 0 0 0-.2 5.6z" data-name="패스 1593"/>
                </g>
                <g id="prefix__그룹_1566" data-name="그룹 1566">
                    <path id="prefix__패스_1594" d="M60.7 243.4c9.8 9.1 19.8 15.8 24 19.1 5.9 4.7 23.6 11.3 39.8 1.4-.9-.3-1.9-.8-2.8-1.2-6.9-3.5-9.9-9.3-9.9-14.6a5.7 5.7 0 0 1 .1-1.3 124.339 124.339 0 0 0-51.2-3.4z" class="prefix__cls-7" data-name="패스 1594"/>
                    <path id="prefix__패스_1595" d="M44.7 225a100.546 100.546 0 0 0 16 18.3 124.338 124.338 0 0 1 51.2 3.4v-.6a.6.6 0 0 1 .1-.4c0-.2.1-.3.1-.5v-.1c.1-.4.2-.7.3-1v-.1c0-.1.1-.2.1-.3s.1-.2.1-.3c.1-.2.1-.4.2-.6a8.867 8.867 0 0 1 5.5-5 13.465 13.465 0 0 1 5-.8 22.051 22.051 0 0 1 10.5 2.8c1 .5 1.9 1.1 2.8 1.6-2.5-8.1-10.7-13.9-10.7-13.9l-4.5-3.9c3.7-7.9 15.6-28 31.8-36.5a47.059 47.059 0 0 1 15.1-5L155.9 168l66.3-85a5.559 5.559 0 0 0 .2-6.4 24.762 24.762 0 0 0-1.9-2.6 7.632 7.632 0 0 1-.8-1.1 10.629 10.629 0 0 0-.9-1.1 65.253 65.253 0 0 0-17.1-14.6 14.8 14.8 0 0 1-1.3-.8c-.5-.3-.9-.5-1.3-.7-1.2-.6-2.2-1.2-3.1-1.6a5.384 5.384 0 0 0-6.3 1.3l-27.7 31-6 6.7a40.666 40.666 0 0 1-.4 4.7v.1c-2.6 14.2-14.5 21.8-21.6 23.4-.1 0-.2.1-.3.1a.1.1 0 0 0-.1.1c-.1 0-.2.1-.3.2s-.2.2-.3.2l-.3.3-.3.3c-.1.1-.1.2-.2.3-.1.2-.2.3-.2.5a.6.6 0 0 0-.1.4l-.9 3.2-2.1 7.1-7.5-2-12.5-3.4-4.6-1.3-2.2-.6a3.792 3.792 0 0 0-4.7 2.7l-2.1 6.7a27.742 27.742 0 0 0-13 2.1 30.692 30.692 0 0 0-11 7.8c-6.3 6.8-10.4 15.9-14.1 23.1-5.6 10.6-24.5 37.7-12.5 55.9zm59.6-92.9l-.2.9-.2.6-1.2 4.4a.1.1 0 0 1-.1.1 1.3 1.3 0 0 1-1.2.8.367.367 0 0 1-.3-.1 1.284 1.284 0 0 1-.9-1.6l.1-.2.4-1.4 1.2-4.3a1.225 1.225 0 0 1 1.5-.9 1.439 1.439 0 0 1 .9 1.7zm5.8 1.8l-.4 1.5-1.3 4.4c0 .1-.1.2-.1.3a1.149 1.149 0 0 1-1.1.6.367.367 0 0 1-.3-.1 1.187 1.187 0 0 1-.9-1.3.367.367 0 0 1 .1-.3l1.3-4.5.4-1.4a1.284 1.284 0 0 1 1.6-.9 1.94 1.94 0 0 1 .7 1.7zm12.9 10.6v-.2l1.3-4.6.4-1.3a1.3 1.3 0 0 1 2.5.7l-.4 1.3-1.3 4.6c0 .1 0 .1-.1.2a1.213 1.213 0 0 1-1.2.7.367.367 0 0 1-.3-.1 1.079 1.079 0 0 1-.9-1.3zm-5.7-1.7v-.2l1.3-4.6.4-1.3a1.3 1.3 0 0 1 2.5.7l-.4 1.3-1.3 4.5a.349.349 0 0 1-.1.2 1.387 1.387 0 0 1-1.2.7.367.367 0 0 1-.3-.1.987.987 0 0 1-.9-1.2zm-3.2-1.3c0 .1-.1.2-.1.3a1.23 1.23 0 0 1-1.1.7h-.3a1.187 1.187 0 0 1-.9-1.3v-.2l1.3-4.5.4-1.4a1.3 1.3 0 0 1 2.5.7l-.4 1.4zm-33 52.1a1.282 1.282 0 0 1 1.7-.5 119.877 119.877 0 0 1 10.3 6.6 215.211 215.211 0 0 1 21 16.4 1.236 1.236 0 0 1 .2 1.7c0 .1-.1.1-.1.2a1.284 1.284 0 0 1-1 .4 1.613 1.613 0 0 1-.9-.3 206.2 206.2 0 0 0-30.9-22.7 1.378 1.378 0 0 1-.3-1.8z" class="prefix__cls-7" data-name="패스 1595"/>
                </g>
                <g id="prefix__그룹_1567" data-name="그룹 1567">
                    <path id="prefix__패스_1596" d="M94.8 113.2a17.991 17.991 0 0 0 10.2 3.6 1.627 1.627 0 0 1 1.5 2l-2.2 8.5 4.6 1.3 12.5 3.4 7.5 2 2.1-7.1.9-3.2c0-.1.1-.3.1-.4a4.129 4.129 0 0 1 .7-1.1l.3-.3c.1-.1.2-.2.3-.2.1-.1.2-.1.3-.2a.1.1 0 0 0 .1-.1.367.367 0 0 1 .3-.1c7-1.6 19-9.2 21.6-23.4v-.1a25.58 25.58 0 0 0 .4-4.7 27.171 27.171 0 0 0-3.9-14.7c-3.7-1-17.8-5.1-28.2-10.6a1.938 1.938 0 0 0-2.7 1c-4.1 9.7-16 24.7-23.5 27-8.2-1.2-9.7 11.9-2.9 17.4zm27-16c-2 .5-3.5-1-3.9-3.5-.5-2.5.8-4 2.4-4.1 2.1-.2 2.9 2.4 3.2 3.5.2 1.2.2 3.6-1.7 4.1zm14.2-4.1c0 1.1-1.3 1.4-1.9 1.5s-1.8.1-2-.9.6-1.7 1.9-1.9c1.2-.2 1.9.4 2 1.3zm13.2-3.6c2.6-.4 4.1 1 4.1 2.7.1 2.2-2.7 3-3.9 3.2s-3.7.1-4.1-2c-.4-2 1.2-3.5 3.9-3.9zm-9.7-2.4c-.5-2.5.8-4 2.4-4.1 2.1-.2 3 2.4 3.2 3.5.3 1.1.3 3.6-1.7 4-1.9.6-3.4-.9-3.9-3.4zm-2.8 17.2a8.507 8.507 0 0 1-8.5-1.8 12.985 12.985 0 0 1-1.2-1.4.994.994 0 0 1 .5-1.5l13.7-3.8a.861.861 0 0 1 1.1 1 7.387 7.387 0 0 1-.3 1.9 7.216 7.216 0 0 1-5.3 5.6zM116.3 99c2.7-.4 4.2 1 4.3 2.8.1 2.3-2.8 3-3.9 3.3-1.2.2-3.8.1-4.3-2-.5-2.2 1.2-3.8 3.9-4.1zm-20.5 3.2a2.387 2.387 0 0 1 4.2 1.7c.2 2.7 2 4.3 3.2 5.5a.726.726 0 0 1-.3 1.2 5.735 5.735 0 0 1-7.3-2.8c-1.2-2.4-.7-4.6.2-5.6z" class="prefix__cls-3" data-name="패스 1596"/>
                    <path id="prefix__패스_1597" d="M145.3 93.5c.4 2.1 3 2.2 4.1 2 1.2-.2 3.9-1 3.9-3.2 0-1.7-1.5-3.1-4.1-2.7-2.7.3-4.3 1.8-3.9 3.9z" class="prefix__cls-3" data-name="패스 1597"/>
                    <path id="prefix__패스_1598" d="M139.5 87.1c.5 2.5 2 4 3.9 3.5 2-.5 1.9-2.9 1.7-4-.3-1.1-1.1-3.7-3.2-3.5-1.6.1-2.9 1.6-2.4 4z" class="prefix__cls-3" data-name="패스 1598"/>
                    <path id="prefix__패스_1599" d="M132.1 93.7c.2 1 1.4 1 2 .9s1.9-.5 1.9-1.5c0-.8-.7-1.5-2-1.3-1.3.1-2.1.9-1.9 1.9z" class="prefix__cls-3" data-name="패스 1599"/>
                    <path id="prefix__패스_1600" d="M117.8 93.7c.5 2.5 2 4 3.9 3.5 2-.5 1.9-2.9 1.7-4-.3-1.1-1.1-3.7-3.2-3.5-1.6 0-2.8 1.5-2.4 4z" class="prefix__cls-3" data-name="패스 1600"/>
                    <path id="prefix__패스_1601" d="M112.3 103c.4 2.1 3.1 2.2 4.3 2s4-1 3.9-3.3c0-1.8-1.6-3.2-4.3-2.8-2.6.4-4.3 2-3.9 4.1z" class="prefix__cls-3" data-name="패스 1601"/>
                    <path id="prefix__패스_1602" d="M95.6 107.7a5.735 5.735 0 0 0 7.3 2.8.726.726 0 0 0 .3-1.2c-1.2-1.2-3.1-2.7-3.2-5.5a2.392 2.392 0 0 0-4.2-1.7 5.2 5.2 0 0 0-.2 5.6z" class="prefix__cls-3" data-name="패스 1602"/>
                </g>
                <g id="prefix__그룹_1568" data-name="그룹 1568">
                    <path id="prefix__패스_1603" d="M127 101.1a5.263 5.263 0 0 0 1.2 1.4c1.7 1.6 4.5 2.8 8.5 1.8a6.981 6.981 0 0 0 5.3-5.5 18.138 18.138 0 0 0 .3-1.9.972.972 0 0 0-1.1-1l-13.7 3.8c-.6.1-.8.8-.5 1.4z" data-name="패스 1603" style="fill:#e5423e"/>
                </g>
                <g id="prefix__그룹_1569" data-name="그룹 1569">
                    <path id="prefix__패스_1604" d="M95.6 107.7a5.735 5.735 0 0 0 7.3 2.8.726.726 0 0 0 .3-1.2c-1.2-1.2-3.1-2.7-3.2-5.5a2.392 2.392 0 0 0-4.2-1.7 5.2 5.2 0 0 0-.2 5.6z" class="prefix__cls-4" data-name="패스 1604"/>
                </g>
                <g id="prefix__그룹_1570" data-name="그룹 1570">
                    <path id="prefix__패스_1605" d="M123 144.5a1.3 1.3 0 0 0 .9 1.4c.1 0 .2.1.3.1a1.525 1.525 0 0 0 1.2-.7c0-.1.1-.1.1-.2l1.3-4.6.4-1.3a1.3 1.3 0 0 0-2.5-.7l-.4 1.3-1.3 4.6z" class="prefix__cls-10" data-name="패스 1605"/>
                </g>
                <g id="prefix__그룹_1571" data-name="그룹 1571">
                    <path id="prefix__패스_1606" d="M117.3 142.8a1.3 1.3 0 0 0 .9 1.4c.1 0 .2.1.3.1a1.525 1.525 0 0 0 1.2-.7c0-.1.1-.1.1-.2l1.3-4.5.4-1.3a1.3 1.3 0 0 0-2.5-.7l-.4 1.3-1.3 4.6z" class="prefix__cls-10" data-name="패스 1606"/>
                </g>
                <g id="prefix__그룹_1572" data-name="그룹 1572">
                    <path id="prefix__패스_1607" d="M111.6 141.1a1.13 1.13 0 0 0 .9 1.3h.3a1.23 1.23 0 0 0 1.1-.7.367.367 0 0 0 .1-.3l1.3-4.5.4-1.4a1.3 1.3 0 0 0-2.5-.7l-.4 1.4-1.3 4.5a.756.756 0 0 1 .1.4z" class="prefix__cls-10" data-name="패스 1607"/>
                </g>
                <g id="prefix__그룹_1573" data-name="그룹 1573">
                    <path id="prefix__패스_1608" d="M105.9 139.3a1.291 1.291 0 0 0 .9 1.3c.1 0 .2.1.3.1a1.149 1.149 0 0 0 1.1-.6.367.367 0 0 0 .1-.3l1.3-4.4.4-1.5a1.3 1.3 0 0 0-2.5-.7l-.4 1.4-1.3 4.5c.1 0 .1.1.1.2z" class="prefix__cls-10" data-name="패스 1608"/>
                </g>
                <g id="prefix__그룹_1574" data-name="그룹 1574">
                    <path id="prefix__패스_1609" d="M101.1 138.9c.1 0 .2.1.3.1a1.3 1.3 0 0 0 1.2-.8.1.1 0 0 1 .1-.1l1.2-4.4.2-.6.2-.9a1.284 1.284 0 0 0-.9-1.6 1.184 1.184 0 0 0-1.5.9l-1.2 4.3-.4 1.4-.1.2a1.225 1.225 0 0 0 .9 1.5z" class="prefix__cls-10" data-name="패스 1609"/>
                </g>
                <g id="prefix__그룹_1575" data-name="그룹 1575">
                    <path id="prefix__패스_1610" d="M121.4 223.7l4.5 3.9s8.2 5.8 10.7 13.9a19.857 19.857 0 0 1 7.2 7.6c.2.1.4.1.6.2.9.4 2 .8 3.2 1.2 1.4.5 2.9 1 4 1.5 1.7.7 2.5 2.9 2 4.9-.3 1.1-1.8 4.5-8.3 3.6a7.493 7.493 0 0 1-1.6-.4 9.907 9.907 0 0 1-1.1 1.7 91.057 91.057 0 0 1 19 19.7c8-10.8 13.1-18.4 13.1-18.4l6.2 9.8c0-.1-.1-.2-.1-.3.1-2 1-4.5 8.8-9.4l1.5-.9a17.393 17.393 0 0 0 1.8-1.1 12.813 12.813 0 0 1 2-1.1c.5-.3 1-.5 1.5-.8l1.2-.6c1.2-.6 2.4-1.3 3.8-2 .6-.3 1.2-.6 1.9-.9.3-.2.7-.3 1-.5l2.4-1.2 2.1-.9 2.7-1.2c3.8-1.6 7.3-2.9 10.4-3.9a52.215 52.215 0 0 1 7.9-1.9c3.3-.5 5.8-.5 7.4.2.2.1.5.2.7.3a2.132 2.132 0 0 1 1 1.1.9.9 0 0 1 .1.5 20.422 20.422 0 0 0-.6-3c-.4-1.6-1-3.7-1.9-6.3-.7-1.9-1.5-4.1-2.5-6.5a.1.1 0 0 0-.1.1 1.421 1.421 0 0 1-.6.2 1.167 1.167 0 0 1-1.1-.7l-.1-.2c-7.4-13.2-13.2-23.7-24.6-34.9-5.6-5.5-12.3-9.1-21.8-11.7a1.284 1.284 0 0 1-.9-1.6.918.918 0 0 1 .4-.6 43.308 43.308 0 0 0-11.9-1.1 40.314 40.314 0 0 0-5 .5 49.641 49.641 0 0 0-15.1 5c-16.2 8.2-28.1 28.3-31.8 36.2zm35.2 7.7a1.282 1.282 0 0 1 1.7.5l7.6 13.9 5.3 9.7a1.282 1.282 0 0 1-.5 1.7 1.421 1.421 0 0 1-.6.2 1.081 1.081 0 0 1-1.1-.7l-10.9-19.9-2-3.7a1.2 1.2 0 0 1 .5-1.7z" class="prefix__cls-5" data-name="패스 1610"/>
                    <path id="prefix__패스_1611" d="M193.1 261.1a12.813 12.813 0 0 1 2-1.1c-.7.4-1.4.8-2 1.1z" class="prefix__cls-5" data-name="패스 1611"/>
                    <path id="prefix__패스_1612" d="M139.3 264.3c10.7 12.7 21.3 18.5 21.3 18.5.3-.5.7-.9 1-1.4a88.862 88.862 0 0 0-19-19.7 8.318 8.318 0 0 1-3.3 2.6z" class="prefix__cls-5" data-name="패스 1612"/>
                </g>
                <g id="prefix__그룹_1576" data-name="그룹 1576">
                    <path id="prefix__패스_1613" d="M209 253l2.4 4.3 1.2 2.1 2.5 4.5c10.6-4.5 23.4-10.9 24-15.2v-.6a4.331 4.331 0 0 0-.1-.5 2.591 2.591 0 0 0-1-1.1 4.875 4.875 0 0 0-.7-.3c-1.6-.6-4.1-.7-7.4-.2a52.216 52.216 0 0 0-7.9 1.9c-3.1 1-6.6 2.3-10.4 3.9-.8.4-1.7.8-2.6 1.2z" class="prefix__cls-6" data-name="패스 1613"/>
                    <path id="prefix__패스_1614" d="M193.1 261.1a12.813 12.813 0 0 1 2-1.1c-.7.4-1.4.8-2 1.1z" data-name="패스 1614" style="fill:#2489d3"/>
                    <path id="prefix__패스_1615" d="M191.3 262.2l1.4 2.4 1.5 2.7 2 3.6 1.7 3.1a56.761 56.761 0 0 0 9.8-3.4 40.84 40.84 0 0 0 4.6-2.4c1.2-.7 2.5-1.5 3.8-2.4l-1-1.8-2.5-4.5-1.2-2.1-2.4-4.4-2.1.9-2.4 1.2a9.293 9.293 0 0 0-1 .5c-.6.3-1.3.6-1.9.9-1.3.7-2.6 1.3-3.8 2l-1.2.6a10.929 10.929 0 0 1-1.5.8c-.7.4-1.4.8-2 1.1a14.022 14.022 0 0 1-1.8 1.2z" class="prefix__cls-3" data-name="패스 1615"/>
                    <path id="prefix__패스_1616" d="M180.9 272.6a.367.367 0 0 0 .1.3c.7 1.6 7.8.2 15.2-2l-2-3.6-1.5-2.7-1.4-2.4-1.5.9c-7.9 5-8.8 7.5-8.9 9.5z" class="prefix__cls-6" data-name="패스 1616"/>
                </g>
                <g id="prefix__그룹_1577" data-name="그룹 1577">
                    <path id="prefix__패스_1617" d="M132.1 93.7c.2 1 1.4 1 2 .9s1.9-.5 1.9-1.5c0-.8-.7-1.5-2-1.3-1.3.1-2.1.9-1.9 1.9z" data-name="패스 1617" style="fill:#ff9b99"/>
                </g>
                <g id="prefix__그룹_1578" data-name="그룹 1578">
                    <path id="prefix__패스_1618" d="M112.3 103c.4 2.1 3.1 2.2 4.3 2s4-1 3.9-3.3c0-1.8-1.6-3.2-4.3-2.8-2.6.4-4.3 2-3.9 4.1z" class="prefix__cls-13" data-name="패스 1618"/>
                </g>
                <g id="prefix__그룹_1579" data-name="그룹 1579">
                    <path id="prefix__패스_1619" d="M145.3 93.5c.4 2.1 3 2.2 4.1 2 1.2-.2 3.9-1 3.9-3.2 0-1.7-1.5-3.1-4.1-2.7-2.7.3-4.3 1.8-3.9 3.9z" class="prefix__cls-13" data-name="패스 1619"/>
                </g>
                <g id="prefix__그룹_1580" data-name="그룹 1580">
                    <path id="prefix__패스_1620" d="M141.9 82.9h.2c2.1 0 2.9 2.6 3.2 3.7.2 1 .4 3.7-1.8 4.2a2.2 2.2 0 0 1-.8.1c-1.7 0-2.9-1.4-3.4-3.7a4.133 4.133 0 0 1 .5-3.2 3.6 3.6 0 0 1 2.1-1.1z" data-name="패스 1620"/>
                    <path id="prefix__패스_1621" d="M118.2 90.5a3.09 3.09 0 0 1 2-1.1h.2c2.2 0 3 2.8 3.2 3.7.2 1 .4 3.7-1.8 4.2a2.2 2.2 0 0 1-.8.1c-1.6 0-2.9-1.4-3.4-3.7a4.538 4.538 0 0 1 .6-3.2z" data-name="패스 1621"/>
                </g>
                <g id="prefix__그룹_1581" data-name="그룹 1581">
                    <path id="prefix__패스_1622" d="M185.8 185c9.5 2.6 16.3 6.2 21.8 11.7 11.3 11.2 17.2 21.7 24.6 34.9l.1.2a1.356 1.356 0 0 0 1.1.7 1.422 1.422 0 0 0 .6-.2.1.1 0 0 0 .1-.1 1.276 1.276 0 0 0 .4-1.7l-.1-.2c-7.5-13.4-13.4-24-25-35.5-5.9-5.8-13-9.7-23-12.4a1.128 1.128 0 0 0-1.1.3c-.2.2-.4.4-.4.6a1.346 1.346 0 0 0 .9 1.7z" class="prefix__cls-6" data-name="패스 1622"/>
                </g>
                <g id="prefix__그룹_1582" data-name="그룹 1582">
                    <path id="prefix__패스_1623" d="M29.3 253.2l141.8 45.6a78.181 78.181 0 0 0-9.5-17.3 88.862 88.862 0 0 0-19-19.7 9.046 9.046 0 0 1-3.3 2.5 13.587 13.587 0 0 1-6.1 1.2 26.122 26.122 0 0 1-8.6-1.6c-.9-.3-1.9-.8-2.8-1.2-6.9-3.5-9.9-9.3-9.9-14.6a5.7 5.7 0 0 1 .1-1.3 124.338 124.338 0 0 0-51.2-3.4c-19.7 2.9-31.5 9.8-31.5 9.8z" class="prefix__cls-2" data-name="패스 1623"/>
                </g>
                <g id="prefix__그룹_1583" data-name="그룹 1583">
                    <path id="prefix__패스_1624" d="M111.9 248.1c0 5.4 3 11.2 9.9 14.6a23.583 23.583 0 0 0 2.8 1.2 26.122 26.122 0 0 0 8.6 1.6 15.092 15.092 0 0 0 6.1-1.2 9.046 9.046 0 0 0 3.3-2.5 7.119 7.119 0 0 0 1.1-1.7 9.362 9.362 0 0 0 1.6.4c6.5.9 8-2.5 8.3-3.6a4.048 4.048 0 0 0-2-4.9c-1.1-.5-2.6-1-4-1.5-1.1-.4-2.3-.8-3.2-1.2a1.421 1.421 0 0 0-.6-.2 19.858 19.858 0 0 0-7.2-7.6 25.431 25.431 0 0 0-2.8-1.6 23.594 23.594 0 0 0-10.5-2.8 15.88 15.88 0 0 0-5 .8 9.13 9.13 0 0 0-5.5 5 1.421 1.421 0 0 0-.2.6c-.1.2-.1.4-.2.6v.1c-.1.3-.2.7-.3 1v.1c0 .2-.1.3-.1.5s-.1.4-.1.6V248.1zm2-.7a14.291 14.291 0 0 1 .8-3.7 7.132 7.132 0 0 1 4.3-3.8 12.157 12.157 0 0 1 5.1-.7 21.359 21.359 0 0 1 8.8 2.5 36.956 36.956 0 0 1 4.4 2.8 17.071 17.071 0 0 1 4.7 5.5c.1.2.2.3.2.5l.2.5.5.1a1.854 1.854 0 0 1 .7.2h.1c.9.4 2.1.8 3.2 1.2 1.4.5 2.9 1 3.9 1.4a2.259 2.259 0 0 1 .8 2.5c-.5 1.8-2.7 2.6-6 2.1a8.3 8.3 0 0 1-2.1-.6l-.9-.4-.4.9-.1.2a1.689 1.689 0 0 0-.2.5 7.1 7.1 0 0 1-1 1.4 8.125 8.125 0 0 1-3 2.1c-3.1 1.2-7.2 1-11.2-.2a29.036 29.036 0 0 1-4.1-1.6c-6.3-3.1-9-8.6-8.7-13.4z" class="prefix__cls-4" data-name="패스 1624"/>
                </g>
                <g id="prefix__그룹_1584" data-name="그룹 1584">
                    <path id="prefix__패스_1625" d="M81.6 195.3a206.2 206.2 0 0 1 30.9 22.7 1.4 1.4 0 0 0 .9.3 1.284 1.284 0 0 0 1-.4c0-.1.1-.1.1-.2a1.377 1.377 0 0 0-.2-1.7 211.682 211.682 0 0 0-21-16.4c-6.2-4.3-10.2-6.5-10.3-6.6a1.282 1.282 0 0 0-1.7.5 1.074 1.074 0 0 0 .3 1.8z" class="prefix__cls-10" data-name="패스 1625"/>
                </g>
                <g id="prefix__그룹_1585" data-name="그룹 1585">
                    <path id="prefix__패스_1626" d="M156.1 233.1l2 3.7 10.9 19.9a1.357 1.357 0 0 0 1.1.7 1.421 1.421 0 0 0 .6-.2 1.2 1.2 0 0 0 .5-1.7l-5.3-9.7-7.6-13.9a1.253 1.253 0 0 0-2.2 1.2z" class="prefix__cls-6" data-name="패스 1626"/>
                </g>
                <g id="prefix__그룹_1586" data-name="그룹 1586">
                    <path id="prefix__패스_1627" d="M51.2 82.4c3.6.8 9.6 1.3 15-2a94.136 94.136 0 0 0 .5 15.6c2.5 24.6-.2 31.5-9.3 39.6-2.2 2-1.1 5.5 1.8 6.9 4.2 2 6.7 3.1 11.9 3.3a30.692 30.692 0 0 1 11-7.8 27.743 27.743 0 0 1 13-2.1l2.1-6.7a3.955 3.955 0 0 1 4.7-2.7l2.2.6 2.2-8.5a1.67 1.67 0 0 0-1.5-2 17.271 17.271 0 0 1-10.2-3.6c-6.8-5.5-5.3-18.6 2.9-17.5 7.5-2.4 19.3-17.3 23.5-27a1.964 1.964 0 0 1 2.7-1c10.4 5.5 24.6 9.6 28.2 10.6a28.365 28.365 0 0 1 3.9 14.7l6-6.7a55.637 55.637 0 0 0-1.4-18.9c-3.4-14-10.2-23.2-22-28.4a32.394 32.394 0 0 0-28.6 1.1s-15.5-3.8-30 8.4a5.127 5.127 0 0 1 1.3 3.4 4.923 4.923 0 0 1-2 4 4.548 4.548 0 0 1-2.8 1 5.26 5.26 0 0 1 1.2 3.2 5.037 5.037 0 0 1-5.1 5 5.142 5.142 0 0 1-3-1 5.068 5.068 0 0 1-2-4 4.975 4.975 0 0 1 4.8-5 5.26 5.26 0 0 1-1.2-3.2 4.856 4.856 0 0 1 2.6-4.4 14.035 14.035 0 0 0-5-1.4C59.4 45 51.8 52 54.2 67.6c1 6.5-2.5 10.1-4 12a1.709 1.709 0 0 0 1 2.8z" data-name="패스 1627"/>
                </g>
                <g id="prefix__그룹_1587" data-name="그룹 1587">
                    <path id="prefix__패스_1628" d="M70.9 51.7a4.542 4.542 0 0 0 1.2 3.2h.3a5.066 5.066 0 0 1 1.3.2 5.414 5.414 0 0 1 2.5 1.6 4.779 4.779 0 0 0 2.8-1 5.068 5.068 0 0 0 2-4 5.127 5.127 0 0 0-1.3-3.4 5.2 5.2 0 0 0-3.8-1.7 5.421 5.421 0 0 0-2.5.6 5.629 5.629 0 0 0-2.5 4.5z" class="prefix__cls-5" data-name="패스 1628"/>
                </g>
                <g id="prefix__그룹_1588" data-name="그룹 1588">
                    <path id="prefix__패스_1629" d="M67.3 60a5.068 5.068 0 0 0 2 4 5.075 5.075 0 0 0 8.1-4 4.542 4.542 0 0 0-1.2-3.2 4.73 4.73 0 0 0-2.5-1.6 3.178 3.178 0 0 0-1.4-.2H72a4.96 4.96 0 0 0-4.7 5z" class="prefix__cls-7" data-name="패스 1629"/>
                </g>
                <g id="prefix__그룹_1589" data-name="그룹 1589">
                    <path id="prefix__패스_1630" d="M201.3 290.1c.6 1.4 15.6-3 24.6-5.7 8.5-2.6 26.2-7.2 25.2-10.4-.8-2.4-19.9 4.6-27 7.1-5.6 2-23.4 7.6-22.8 9z" class="prefix__cls-8" data-name="패스 1630"/>
                </g>
                <g id="prefix__그룹_1590" data-name="그룹 1590">
                    <path id="prefix__패스_1631" d="M122.7 260.9a29.037 29.037 0 0 0 4.1 1.6c4 1.2 8.1 1.4 11.2.2a8.125 8.125 0 0 0 3-2.1 7.1 7.1 0 0 0 1-1.4 1.689 1.689 0 0 0 .2-.5l.1-.2.4-.9.9.4a8.3 8.3 0 0 0 2.1.6c3.3.4 5.5-.3 6-2.1a2.259 2.259 0 0 0-.8-2.5 33.666 33.666 0 0 0-3.9-1.4c-1.1-.4-2.3-.8-3.2-1.2h-.1a1.854 1.854 0 0 0-.7-.2l-.5-.1-.2-.5c-.1-.2-.1-.3-.2-.5a15.915 15.915 0 0 0-4.7-5.5 30.318 30.318 0 0 0-4.4-2.8 21.359 21.359 0 0 0-8.8-2.5 11.929 11.929 0 0 0-5.1.7 7.132 7.132 0 0 0-4.3 3.8 9.464 9.464 0 0 0-.8 3.7c-.4 4.7 2.3 10.2 8.7 13.4z" class="prefix__cls-3" data-name="패스 1631"/>
                </g>
                <g id="prefix__그룹_1591" data-name="그룹 1591">
                    <path id="prefix__패스_1632" d="M116.4 121.3c.1.2 3.4 5.2 12.4 5.6a13.423 13.423 0 0 0 2.1-.1l.9-3.2a3.524 3.524 0 0 1 2.2-2.4c.2-.1.5-.2.7-.3-2.2.3-8 .7-17.2-1.1a1.1 1.1 0 0 0-1.2.3 1.262 1.262 0 0 0 .1 1.2z" class="prefix__cls-4" data-name="패스 1632"/>
                </g>
            </g>
        </g>
    </g>
</svg>
